{
    "asset" : {
        "generator" : "Khronos glTF Blender I/O v3.4.50",
        "version" : "2.0"
    },
    "extensionsUsed" : [
        "KHR_materials_specular",
        "KHR_materials_ior"
    ],
    "scene" : 0,
    "scenes" : [
        {
            "name" : "Scene",
            "nodes" : [
                59
            ]
        }
    ],
    "nodes" : [
        {
            "name" : "index_03_l",
            "rotation" : [
                0.04462031275033951,
                0.03684451803565025,
                -0.040419165045022964,
                0.9975059032440186
            ],
            "scale" : [
                1.0000001192092896,
                1.0000001192092896,
                0.9999999403953552
            ],
            "translation" : [
                -2.16066837310791e-06,
                0.2583915889263153,
                2.384185791015625e-06
            ]
        },
        {
            "children" : [
                0
            ],
            "name" : "index_02_l",
            "rotation" : [
                -0.01636727899312973,
                -0.030421720817685127,
                -0.020220370963215828,
                0.9991986155509949
            ],
            "scale" : [
                0.9999999403953552,
                1,
                0.9999999403953552
            ],
            "translation" : [
                1.087784767150879e-06,
                0.28975847363471985,
                -2.4586915969848633e-06
            ]
        },
        {
            "children" : [
                1
            ],
            "name" : "index_01_l",
            "rotation" : [
                -0.0780085101723671,
                0.13965165615081787,
                -0.06722769141197205,
                0.9848312139511108
            ],
            "scale" : [
                0.9999999403953552,
                1.0000001192092896,
                0.9999998807907104
            ],
            "translation" : [
                -0.2019360214471817,
                1.1750072240829468,
                0.061564937233924866
            ]
        },
        {
            "name" : "middle_03_l",
            "rotation" : [
                0.046933259814977646,
                0.044998183846473694,
                -0.03772040829062462,
                0.9971708059310913
            ],
            "scale" : [
                0.9999999403953552,
                0.9999999403953552,
                1
            ],
            "translation" : [
                1.5087425708770752e-06,
                0.3074168264865875,
                -1.9278377294540405e-06
            ]
        },
        {
            "children" : [
                3
            ],
            "name" : "middle_02_l",
            "rotation" : [
                0.012525670230388641,
                -0.033365897834300995,
                0.02743111550807953,
                0.9989882707595825
            ],
            "scale" : [
                1,
                0.9999998807907104,
                0.9999999403953552
            ],
            "translation" : [
                -1.2479722499847412e-07,
                0.37604281306266785,
                5.098991096019745e-07
            ]
        },
        {
            "children" : [
                4
            ],
            "name" : "middle_01_l",
            "rotation" : [
                -0.056571271270513535,
                0.2717149555683136,
                -0.09061563014984131,
                0.9564306139945984
            ],
            "scale" : [
                1,
                0.9999999403953552,
                0.9999998807907104
            ],
            "translation" : [
                -0.07672879099845886,
                1.1277559995651245,
                -0.17534448206424713
            ]
        },
        {
            "name" : "pinky_03_l",
            "rotation" : [
                -0.00531681627035141,
                0.011708025820553303,
                -0.012112963944673538,
                0.999843955039978
            ],
            "scale" : [
                1,
                1.0000001192092896,
                0.9999999403953552
            ],
            "translation" : [
                1.2814998626708984e-06,
                0.17325109243392944,
                -9.98377799987793e-07
            ]
        },
        {
            "children" : [
                6
            ],
            "name" : "pinky_02_l",
            "rotation" : [
                0.01001655776053667,
                -0.015005980618298054,
                0.018772194162011147,
                0.9996610879898071
            ],
            "scale" : [
                1,
                1.0000001192092896,
                1
            ],
            "translation" : [
                1.7434358596801758e-06,
                0.2408374696969986,
                1.6391277313232422e-06
            ]
        },
        {
            "children" : [
                7
            ],
            "name" : "pinky_01_l",
            "rotation" : [
                -0.09343457967042923,
                0.33183208107948303,
                -0.07663619518280029,
                0.9355663657188416
            ],
            "scale" : [
                1,
                1,
                0.9999999403953552
            ],
            "translation" : [
                0.20771799981594086,
                0.9400306940078735,
                -0.44827452301979065
            ]
        },
        {
            "name" : "ring_03_l",
            "rotation" : [
                0.03834100440144539,
                0.048777319490909576,
                -0.04179862514138222,
                0.9971979260444641
            ],
            "scale" : [
                1.0000001192092896,
                1,
                1
            ],
            "translation" : [
                1.1175870895385742e-06,
                0.27774837613105774,
                9.760260581970215e-07
            ]
        },
        {
            "children" : [
                9
            ],
            "name" : "ring_02_l",
            "rotation" : [
                0.01188414916396141,
                -0.03800077363848686,
                0.03914064168930054,
                0.998440146446228
            ],
            "scale" : [
                0.9999999403953552,
                1,
                0.9999999403953552
            ],
            "translation" : [
                -5.662441253662109e-07,
                0.3316907286643982,
                -2.0712614059448242e-06
            ]
        },
        {
            "children" : [
                10
            ],
            "name" : "ring_01_l",
            "rotation" : [
                -0.057954855263233185,
                0.3352664113044739,
                -0.09692322462797165,
                0.9353307485580444
            ],
            "scale" : [
                0.9999999403953552,
                1,
                0.9999999403953552
            ],
            "translation" : [
                0.05366350710391998,
                1.0405961275100708,
                -0.3427448868751526
            ]
        },
        {
            "name" : "thumb_03_l",
            "rotation" : [
                0.08556101471185684,
                0.1271969974040985,
                0.09141740202903748,
                0.9839426279067993
            ],
            "scale" : [
                1.0000001192092896,
                1,
                1.0000001192092896
            ],
            "translation" : [
                -1.6838312149047852e-06,
                0.40740635991096497,
                6.854534149169922e-07
            ]
        },
        {
            "children" : [
                12
            ],
            "name" : "thumb_02_l",
            "rotation" : [
                0.47028934955596924,
                0.35066717863082886,
                -0.18795962631702423,
                0.7877383232116699
            ],
            "scale" : [
                0.9999999403953552,
                1.0000001192092896,
                1
            ],
            "translation" : [
                5.21540641784668e-07,
                0.34253421425819397,
                -8.940696716308594e-08
            ]
        },
        {
            "children" : [
                13
            ],
            "name" : "thumb_01_l",
            "rotation" : [
                0.29371556639671326,
                0.8424461483955383,
                0.3869030177593231,
                0.2330702543258667
            ],
            "scale" : [
                1,
                0.9999998211860657,
                1
            ],
            "translation" : [
                -0.12152678519487381,
                0.44812414050102234,
                0.19586730003356934
            ]
        },
        {
            "children" : [
                2,
                5,
                8,
                11,
                14
            ],
            "name" : "hand_l",
            "rotation" : [
                0.11436766386032104,
                0.31168678402900696,
                -0.034752264618873596,
                0.9426365494728088
            ],
            "scale" : [
                1.0000001192092896,
                1,
                1.0000001192092896
            ],
            "translation" : [
                1.2116506695747375e-06,
                2.6440529823303223,
                -1.7881393432617188e-07
            ]
        },
        {
            "children" : [
                15
            ],
            "name" : "lowerarm_l",
            "rotation" : [
                -0.0013193258782848716,
                0.001279624062590301,
                0.013288162648677826,
                0.9999100565910339
            ],
            "scale" : [
                1.0000001192092896,
                1.0000001192092896,
                1.0000001192092896
            ],
            "translation" : [
                8.847564458847046e-08,
                3.0092129707336426,
                8.940696716308594e-08
            ]
        },
        {
            "children" : [
                16
            ],
            "name" : "upperarm_l",
            "rotation" : [
                0.02182682231068611,
                -0.03236335888504982,
                -0.06452447921037674,
                0.9971524477005005
            ],
            "scale" : [
                1,
                1.0000001192092896,
                1
            ],
            "translation" : [
                1.0064104571938515e-06,
                1.5913976430892944,
                1.862645149230957e-08
            ]
        },
        {
            "children" : [
                17
            ],
            "name" : "clavicle_l",
            "rotation" : [
                -0.013899005949497223,
                -0.0002489373437128961,
                -0.661409854888916,
                0.7498958706855774
            ],
            "scale" : [
                0.9999998807907104,
                1,
                0.9999999403953552
            ],
            "translation" : [
                0.2588318884372711,
                2.565518856048584,
                0.3325457274913788
            ]
        },
        {
            "name" : "index_03_r",
            "rotation" : [
                0.0446191243827343,
                -0.036841098219156265,
                0.04042056202888489,
                0.9975060224533081
            ],
            "scale" : [
                1,
                0.9999998807907104,
                0.9999998211860657
            ],
            "translation" : [
                -8.195638656616211e-07,
                0.2583889663219452,
                -6.258487701416016e-07
            ]
        },
        {
            "children" : [
                19
            ],
            "name" : "index_02_r",
            "rotation" : [
                -0.016365809366106987,
                0.030420709401369095,
                0.020219789817929268,
                0.9991986751556396
            ],
            "scale" : [
                1.0000001192092896,
                1.0000001192092896,
                1.0000001192092896
            ],
            "translation" : [
                -3.2782554626464844e-07,
                0.28975948691368103,
                6.556510925292969e-07
            ]
        },
        {
            "children" : [
                20
            ],
            "name" : "index_01_r",
            "rotation" : [
                -0.07800982147455215,
                -0.13965244591236115,
                0.06722697615623474,
                0.9848311543464661
            ],
            "scale" : [
                1,
                1.0000001192092896,
                1
            ],
            "translation" : [
                0.20193926990032196,
                1.1750059127807617,
                0.06156250834465027
            ]
        },
        {
            "name" : "middle_03_r",
            "rotation" : [
                0.046934034675359726,
                -0.045000407844781876,
                0.037720128893852234,
                0.9971706867218018
            ],
            "scale" : [
                0.9999998807907104,
                0.9999998807907104,
                0.9999998807907104
            ],
            "translation" : [
                2.7567148208618164e-07,
                0.30741870403289795,
                -2.982094883918762e-06
            ]
        },
        {
            "children" : [
                22
            ],
            "name" : "middle_02_r",
            "rotation" : [
                0.012527920305728912,
                0.03336666151881218,
                -0.027429930865764618,
                0.998988151550293
            ],
            "scale" : [
                1,
                0.9999999403953552,
                1
            ],
            "translation" : [
                -3.1944364309310913e-07,
                0.37604305148124695,
                9.164214134216309e-07
            ]
        },
        {
            "children" : [
                23
            ],
            "name" : "middle_01_r",
            "rotation" : [
                -0.056573882699012756,
                -0.2717166543006897,
                0.09061355888843536,
                0.956430196762085
            ],
            "scale" : [
                1,
                0.9999999403953552,
                0.9999998807907104
            ],
            "translation" : [
                0.07673055678606033,
                1.1277557611465454,
                -0.1753455251455307
            ]
        },
        {
            "name" : "pinky_03_r",
            "rotation" : [
                -0.0053215292282402515,
                -0.011713800020515919,
                0.012109437957406044,
                0.9998440146446228
            ],
            "scale" : [
                0.9999999403953552,
                0.9999998807907104,
                1
            ],
            "translation" : [
                -1.6391277313232422e-07,
                0.17324891686439514,
                -2.205371856689453e-06
            ]
        },
        {
            "children" : [
                25
            ],
            "name" : "pinky_02_r",
            "rotation" : [
                0.010022253729403019,
                0.01501160953193903,
                -0.018769890069961548,
                0.9996609091758728
            ],
            "scale" : [
                1,
                1,
                0.9999998211860657
            ],
            "translation" : [
                1.4901161193847656e-08,
                0.24084003269672394,
                -1.1324882507324219e-06
            ]
        },
        {
            "children" : [
                26
            ],
            "name" : "pinky_01_r",
            "rotation" : [
                -0.09343603998422623,
                -0.3318329453468323,
                0.07663597911596298,
                0.9355658888816833
            ],
            "scale" : [
                1.0000001192092896,
                1.0000001192092896,
                1.0000001192092896
            ],
            "translation" : [
                -0.20771372318267822,
                0.9400284290313721,
                -0.44827723503112793
            ]
        },
        {
            "name" : "ring_03_r",
            "rotation" : [
                0.03834783285856247,
                -0.048772357404232025,
                0.04180030897259712,
                0.9971978068351746
            ],
            "scale" : [
                0.9999999403953552,
                1.0000001192092896,
                1
            ],
            "translation" : [
                5.066394805908203e-07,
                0.27774980664253235,
                4.76837158203125e-07
            ]
        },
        {
            "children" : [
                28
            ],
            "name" : "ring_02_r",
            "rotation" : [
                0.011880617588758469,
                0.03799748793244362,
                -0.039141327142715454,
                0.9984403252601624
            ],
            "scale" : [
                1,
                1.0000001192092896,
                0.9999998807907104
            ],
            "translation" : [
                -3.8743019104003906e-07,
                0.33168932795524597,
                -1.4156103134155273e-07
            ]
        },
        {
            "children" : [
                29
            ],
            "name" : "ring_01_r",
            "rotation" : [
                -0.05795532092452049,
                -0.33526766300201416,
                0.09692241996526718,
                0.935330331325531
            ],
            "scale" : [
                1,
                1,
                0.9999999403953552
            ],
            "translation" : [
                -0.05366063117980957,
                1.0405967235565186,
                -0.3427474796772003
            ]
        },
        {
            "name" : "thumb_03_r",
            "rotation" : [
                0.08558867871761322,
                -0.1272449642419815,
                -0.09138958901166916,
                0.983936607837677
            ],
            "scale" : [
                1,
                0.9999998807907104,
                1.0000001192092896
            ],
            "translation" : [
                8.344650268554688e-07,
                0.4074106812477112,
                3.5762786865234375e-07
            ]
        },
        {
            "children" : [
                31
            ],
            "name" : "thumb_02_r",
            "rotation" : [
                0.47024866938591003,
                -0.35053083300590515,
                0.188060462474823,
                0.7877992391586304
            ],
            "translation" : [
                9.98377799987793e-07,
                0.3425333499908447,
                -3.8743019104003906e-07
            ]
        },
        {
            "children" : [
                32
            ],
            "name" : "thumb_01_r",
            "rotation" : [
                0.2937726378440857,
                -0.8424144983291626,
                -0.38693007826805115,
                0.23306778073310852
            ],
            "scale" : [
                0.9999999403953552,
                0.9999997019767761,
                1
            ],
            "translation" : [
                0.12152870744466782,
                0.44812241196632385,
                0.19586554169654846
            ]
        },
        {
            "children" : [
                21,
                24,
                27,
                30,
                33
            ],
            "name" : "hand_r",
            "rotation" : [
                0.11436804383993149,
                -0.31168580055236816,
                0.034753259271383286,
                0.9426369071006775
            ],
            "scale" : [
                1.0000001192092896,
                1.0000001192092896,
                1.0000001192092896
            ],
            "translation" : [
                -1.1865049600601196e-06,
                2.6440556049346924,
                -8.940696716308594e-08
            ]
        },
        {
            "children" : [
                34
            ],
            "name" : "lowerarm_r",
            "rotation" : [
                -0.001319430535659194,
                -0.0012789589818567038,
                -0.013287514448165894,
                0.9999100565910339
            ],
            "scale" : [
                0.9999999403953552,
                1.0000001192092896,
                1
            ],
            "translation" : [
                -3.009103238582611e-06,
                3.009211540222168,
                -4.470348358154297e-08
            ]
        },
        {
            "children" : [
                35
            ],
            "name" : "upperarm_r",
            "rotation" : [
                0.02182687632739544,
                0.03236250951886177,
                0.06452320516109467,
                0.9971524477005005
            ],
            "scale" : [
                1.0000001192092896,
                1.0000001192092896,
                1.000000238418579
            ],
            "translation" : [
                -6.856280378997326e-07,
                1.5913976430892944,
                -1.862645149230957e-08
            ]
        },
        {
            "children" : [
                36
            ],
            "name" : "clavicle_r",
            "rotation" : [
                -0.013899136334657669,
                0.000249092117883265,
                0.6614103317260742,
                0.749895453453064
            ],
            "scale" : [
                0.9999999403953552,
                1,
                1
            ],
            "translation" : [
                -0.2588319182395935,
                2.565518856048584,
                0.3325457274913788
            ]
        },
        {
            "name" : "head",
            "rotation" : [
                -0.17543049156665802,
                1.5362564553811353e-09,
                2.7375357536385536e-10,
                0.9844918251037598
            ],
            "scale" : [
                1,
                0.9999998807907104,
                1
            ],
            "translation" : [
                6.161737786669619e-15,
                1.1531978845596313,
                -4.3213367462158203e-07
            ]
        },
        {
            "children" : [
                38
            ],
            "name" : "neck_01",
            "rotation" : [
                0.14361973106861115,
                -1.791386372573811e-09,
                -1.8825173364600545e-10,
                0.9896329641342163
            ],
            "scale" : [
                1.0000001192092896,
                1,
                1
            ],
            "translation" : [
                -5.155356141983702e-10,
                3.3712270259857178,
                0.09984076023101807
            ]
        },
        {
            "children" : [
                18,
                37,
                39
            ],
            "name" : "spine_03",
            "rotation" : [
                -0.04171166941523552,
                -1.9009524857005466e-11,
                1.8650052335811296e-10,
                0.9991297125816345
            ],
            "scale" : [
                1,
                0.9999998807907104,
                0.9999998807907104
            ],
            "translation" : [
                -2.969846590872294e-14,
                1.1196717023849487,
                1.1920928955078125e-07
            ]
        },
        {
            "children" : [
                40
            ],
            "name" : "spine_02",
            "rotation" : [
                -0.08597096055746078,
                -3.167640802437255e-11,
                -2.5308694029391177e-10,
                0.9962976574897766
            ],
            "scale" : [
                1,
                1,
                0.9999999403953552
            ],
            "translation" : [
                -2.2093438190040615e-14,
                0.8118048906326294,
                -5.960464477539062e-07
            ]
        },
        {
            "children" : [
                41
            ],
            "name" : "spine_01",
            "rotation" : [
                0.3921152949333191,
                4.668968855980893e-08,
                7.876910501636303e-08,
                0.9199160933494568
            ],
            "scale" : [
                1,
                0.9999998807907104,
                0.9999999403953552
            ],
            "translation" : [
                2.0735917871661513e-08,
                0.9812895655632019,
                -1.0728836059570312e-06
            ]
        },
        {
            "name" : "ball_l",
            "rotation" : [
                -0.27519750595092773,
                0.01709824800491333,
                -0.010847486555576324,
                0.961174488067627
            ],
            "scale" : [
                1,
                1,
                0.9999999403953552
            ],
            "translation" : [
                -2.0489096641540527e-08,
                1.575463056564331,
                -4.470348358154297e-08
            ]
        },
        {
            "children" : [
                43
            ],
            "name" : "foot_l",
            "rotation" : [
                -0.5333883762359619,
                0.02161899395287037,
                -0.024237632751464844,
                0.8452467322349548
            ],
            "scale" : [
                0.9999999403953552,
                1,
                0.9999998211860657
            ],
            "translation" : [
                -2.60770320892334e-07,
                4.86095666885376,
                7.450580596923828e-09
            ]
        },
        {
            "children" : [
                44
            ],
            "name" : "calf_l",
            "rotation" : [
                0.06589958071708679,
                0.2400554120540619,
                -0.02896474301815033,
                0.9680866599082947
            ],
            "scale" : [
                1,
                0.9999997615814209,
                0.9999998211860657
            ],
            "translation" : [
                8.195638656616211e-08,
                4.908480644226074,
                1.4901161193847656e-08
            ]
        },
        {
            "children" : [
                45
            ],
            "name" : "thigh_l",
            "rotation" : [
                -0.9515690803527832,
                -0.05316019430756569,
                0.20214690268039703,
                0.22544826567173004
            ],
            "scale" : [
                0.9999998807907104,
                0.9999998211860657,
                0.9999992251396179
            ],
            "translation" : [
                1.1342380046844482,
                -0.08370973914861679,
                -0.16185294091701508
            ]
        },
        {
            "name" : "ball_r",
            "rotation" : [
                -0.27519628405570984,
                -0.01709943450987339,
                0.0108474837616086,
                0.9611748456954956
            ],
            "scale" : [
                0.9999999403953552,
                1,
                0.9999999403953552
            ],
            "translation" : [
                1.94646418094635e-07,
                1.5754607915878296,
                -6.705522537231445e-08
            ]
        },
        {
            "children" : [
                47
            ],
            "name" : "foot_r",
            "rotation" : [
                -0.533388078212738,
                -0.02161910943686962,
                0.024237344041466713,
                0.8452470302581787
            ],
            "scale" : [
                1.0000001192092896,
                1,
                1
            ],
            "translation" : [
                7.450580596923828e-08,
                4.860954761505127,
                7.450580596923828e-09
            ]
        },
        {
            "children" : [
                48
            ],
            "name" : "calf_r",
            "rotation" : [
                0.06589950621128082,
                -0.24005559086799622,
                0.028964824974536896,
                0.9680866003036499
            ],
            "scale" : [
                0.9999998807907104,
                0.9999998807907104,
                1
            ],
            "translation" : [
                8.195638656616211e-08,
                4.9084792137146,
                4.470348358154297e-08
            ]
        },
        {
            "children" : [
                49
            ],
            "name" : "thigh_r",
            "rotation" : [
                -0.951569139957428,
                0.05316000431776047,
                -0.20214682817459106,
                0.22544805705547333
            ],
            "scale" : [
                1,
                1,
                1.000001311302185
            ],
            "translation" : [
                -1.1342377662658691,
                -0.08370939642190933,
                -0.16185231506824493
            ]
        },
        {
            "children" : [
                42,
                46,
                50
            ],
            "name" : "pelvis",
            "rotation" : [
                0.34951093792915344,
                0.35162219405174255,
                0.6134833693504333,
                0.6146886944770813
            ],
            "scale" : [
                1.0000001192092896,
                1,
                0.9999999403953552
            ],
            "translation" : [
                -0.4879887104034424,
                0.07007694244384766,
                9.71046257019043
            ]
        },
        {
            "children" : [
                51
            ],
            "name" : "Root",
            "rotation" : [
                -0.49913981556892395,
                -0.500858724117279,
                -0.49913981556892395,
                0.500858724117279
            ],
            "translation" : [
                -0.036693524569272995,
                1.0521044731140137,
                -1.4210854715202004e-14
            ]
        },
        {
            "mesh" : 0,
            "name" : "editor_main_femailMesh",
            "skin" : 0
        },
        {
            "mesh" : 1,
            "name" : "female_casualsuit01Mesh",
            "skin" : 0
        },
        {
            "mesh" : 2,
            "name" : "high-polyMesh",
            "skin" : 0
        },
        {
            "mesh" : 3,
            "name" : "shoes01Mesh",
            "skin" : 0
        },
        {
            "mesh" : 4,
            "name" : "shoes02Mesh",
            "skin" : 0
        },
        {
            "mesh" : 5,
            "name" : "short03Mesh",
            "skin" : 0
        },
        {
            "children" : [
                53,
                54,
                55,
                56,
                57,
                58,
                52
            ],
            "name" : "Game_engine",
            "rotation" : [
                0.70710688829422,
                0,
                0,
                0.7071066498756409
            ],
            "scale" : [
                0.10000000149011612,
                0.10000000149011612,
                0.10000000149011612
            ]
        }
    ],
    "materials" : [
        {
            "doubleSided" : true,
            "extensions" : {
                "KHR_materials_specular" : {
                    "specularColorFactor" : [
                        2.371357614441398,
                        2.371357614441398,
                        2.371357614441398
                    ]
                },
                "KHR_materials_ior" : {
                    "ior" : 1.4500000476837158
                }
            },
            "name" : "editor_main_femail",
            "pbrMetallicRoughness" : {
                "baseColorFactor" : [
                    0.5903333425521851,
                    0.4399999976158142,
                    0.33799999952316284,
                    1
                ],
                "roughnessFactor" : 0.9020203948020935
            }
        },
        {
            "doubleSided" : true,
            "extensions" : {
                "KHR_materials_specular" : {
                    "specularColorFactor" : [
                        2.371357614441398,
                        2.371357614441398,
                        2.371357614441398
                    ]
                },
                "KHR_materials_ior" : {
                    "ior" : 1.4500000476837158
                }
            },
            "name" : "female_casualsuit01",
            "normalTexture" : {
                "index" : 0
            },
            "pbrMetallicRoughness" : {
                "baseColorTexture" : {
                    "index" : 1
                },
                "roughnessFactor" : 0.9557168483734131
            }
        },
        {
            "alphaMode" : "BLEND",
            "doubleSided" : true,
            "extensions" : {
                "KHR_materials_specular" : {
                    "specularColorFactor" : [
                        2.371357614441398,
                        2.371357614441398,
                        2.371357614441398
                    ]
                },
                "KHR_materials_ior" : {
                    "ior" : 1.4500000476837158
                }
            },
            "name" : "high-poly",
            "pbrMetallicRoughness" : {
                "baseColorTexture" : {
                    "index" : 2
                },
                "roughnessFactor" : 0.8999999761581421
            }
        },
        {
            "doubleSided" : true,
            "extensions" : {
                "KHR_materials_specular" : {
                    "specularColorFactor" : [
                        2.371357614441398,
                        2.371357614441398,
                        2.371357614441398
                    ]
                },
                "KHR_materials_ior" : {
                    "ior" : 1.4500000476837158
                }
            },
            "name" : "shoes01",
            "normalTexture" : {
                "index" : 3
            },
            "pbrMetallicRoughness" : {
                "baseColorTexture" : {
                    "index" : 4
                },
                "roughnessFactor" : 0.9367544651031494
            }
        },
        {
            "alphaMode" : "BLEND",
            "doubleSided" : true,
            "extensions" : {
                "KHR_materials_specular" : {
                    "specularColorFactor" : [
                        2.371357614441398,
                        2.371357614441398,
                        2.371357614441398
                    ]
                },
                "KHR_materials_ior" : {
                    "ior" : 1.4500000476837158
                }
            },
            "name" : "shoes02",
            "pbrMetallicRoughness" : {
                "baseColorTexture" : {
                    "index" : 5
                },
                "roughnessFactor" : 0.9105572700500488
            }
        },
        {
            "alphaMode" : "BLEND",
            "doubleSided" : true,
            "extensions" : {
                "KHR_materials_specular" : {
                    "specularColorFactor" : [
                        2.371357614441398,
                        2.371357614441398,
                        2.371357614441398
                    ]
                },
                "KHR_materials_ior" : {
                    "ior" : 1.4500000476837158
                }
            },
            "name" : "short03",
            "pbrMetallicRoughness" : {
                "baseColorTexture" : {
                    "index" : 6
                },
                "roughnessFactor" : 0.9020203948020935
            }
        }
    ],
    "meshes" : [
        {
            "name" : "editor_main_femail",
            "primitives" : [
                {
                    "attributes" : {
                        "POSITION" : 0,
                        "TEXCOORD_0" : 1,
                        "NORMAL" : 2,
                        "JOINTS_0" : 3,
                        "WEIGHTS_0" : 4
                    },
                    "indices" : 5,
                    "material" : 0
                }
            ]
        },
        {
            "name" : "female_casualsuit01",
            "primitives" : [
                {
                    "attributes" : {
                        "POSITION" : 7,
                        "TEXCOORD_0" : 8,
                        "NORMAL" : 9,
                        "JOINTS_0" : 10,
                        "WEIGHTS_0" : 11
                    },
                    "indices" : 12,
                    "material" : 1
                }
            ]
        },
        {
            "name" : "high-poly",
            "primitives" : [
                {
                    "attributes" : {
                        "POSITION" : 13,
                        "TEXCOORD_0" : 14,
                        "NORMAL" : 15,
                        "JOINTS_0" : 16,
                        "WEIGHTS_0" : 17
                    },
                    "indices" : 18,
                    "material" : 2
                }
            ]
        },
        {
            "name" : "shoes01",
            "primitives" : [
                {
                    "attributes" : {
                        "POSITION" : 19,
                        "TEXCOORD_0" : 20,
                        "NORMAL" : 21,
                        "JOINTS_0" : 22,
                        "WEIGHTS_0" : 23
                    },
                    "indices" : 24,
                    "material" : 3
                }
            ]
        },
        {
            "name" : "shoes02",
            "primitives" : [
                {
                    "attributes" : {
                        "POSITION" : 25,
                        "TEXCOORD_0" : 26,
                        "NORMAL" : 27,
                        "JOINTS_0" : 28,
                        "WEIGHTS_0" : 29
                    },
                    "indices" : 30,
                    "material" : 4
                }
            ]
        },
        {
            "name" : "short03",
            "primitives" : [
                {
                    "attributes" : {
                        "POSITION" : 31,
                        "TEXCOORD_0" : 32,
                        "NORMAL" : 33,
                        "JOINTS_0" : 34,
                        "WEIGHTS_0" : 35
                    },
                    "indices" : 36,
                    "material" : 5
                }
            ]
        }
    ],
    "textures" : [
        {
            "sampler" : 0,
            "source" : 0
        },
        {
            "sampler" : 0,
            "source" : 1
        },
        {
            "sampler" : 0,
            "source" : 2
        },
        {
            "sampler" : 0,
            "source" : 3
        },
        {
            "sampler" : 0,
            "source" : 4
        },
        {
            "sampler" : 0,
            "source" : 5
        },
        {
            "sampler" : 0,
            "source" : 6
        }
    ],
    "images" : [
        {
            "mimeType" : "image/png",
            "name" : "female_casualsuit01_normal",
            "uri" : "female_casualsuit01_normal.png"
        },
        {
            "mimeType" : "image/png",
            "name" : "female_casualsuit01_diffuse",
            "uri" : "female_casualsuit01_diffuse.png"
        },
        {
            "mimeType" : "image/png",
            "name" : "brown_eye",
            "uri" : "brown_eye.png"
        },
        {
            "mimeType" : "image/png",
            "name" : "shoes01_normal",
            "uri" : "shoes01_normal.png"
        },
        {
            "mimeType" : "image/png",
            "name" : "shoes01_diffuse",
            "uri" : "shoes01_diffuse.png"
        },
        {
            "mimeType" : "image/png",
            "name" : "shoes02_diffuse",
            "uri" : "shoes02_diffuse.png"
        },
        {
            "mimeType" : "image/png",
            "name" : "short03_diffuse",
            "uri" : "short03_diffuse.png"
        }
    ],
    "skins" : [
        {
            "inverseBindMatrices" : 6,
            "joints" : [
                52,
                51,
                42,
                41,
                40,
                18,
                17,
                16,
                15,
                2,
                1,
                0,
                5,
                4,
                3,
                8,
                7,
                6,
                11,
                10,
                9,
                14,
                13,
                12,
                37,
                36,
                35,
                34,
                21,
                20,
                19,
                24,
                23,
                22,
                27,
                26,
                25,
                30,
                29,
                28,
                33,
                32,
                31,
                39,
                38,
                46,
                45,
                44,
                43,
                50,
                49,
                48,
                47
            ],
            "name" : "Game_engine"
        }
    ],
    "accessors" : [
        {
            "bufferView" : 0,
            "componentType" : 5126,
            "count" : 53029,
            "max" : [
                0.9635730981826782,
                0.18686409294605255,
                1.9706133604049683
            ],
            "min" : [
                -0.9635730981826782,
                -0.1718740016222,
                -0.023629849776625633
            ],
            "type" : "VEC3"
        },
        {
            "bufferView" : 1,
            "componentType" : 5126,
            "count" : 53029,
            "type" : "VEC2"
        },
        {
            "bufferView" : 2,
            "componentType" : 5126,
            "count" : 53029,
            "type" : "VEC3"
        },
        {
            "bufferView" : 3,
            "componentType" : 5121,
            "count" : 53029,
            "type" : "VEC4"
        },
        {
            "bufferView" : 4,
            "componentType" : 5126,
            "count" : 53029,
            "type" : "VEC4"
        },
        {
            "bufferView" : 5,
            "componentType" : 5123,
            "count" : 110916,
            "type" : "SCALAR"
        },
        {
            "bufferView" : 6,
            "componentType" : 5126,
            "count" : 53,
            "type" : "MAT4"
        },
        {
            "bufferView" : 7,
            "componentType" : 5126,
            "count" : 6155,
            "max" : [
                0.34523043036460876,
                0.1797359436750412,
                1.6977462768554688
            ],
            "min" : [
                -0.355373740196228,
                -0.10501858592033386,
                0.09673985838890076
            ],
            "type" : "VEC3"
        },
        {
            "bufferView" : 8,
            "componentType" : 5126,
            "count" : 6155,
            "type" : "VEC2"
        },
        {
            "bufferView" : 9,
            "componentType" : 5126,
            "count" : 6155,
            "type" : "VEC3"
        },
        {
            "bufferView" : 10,
            "componentType" : 5121,
            "count" : 6155,
            "type" : "VEC4"
        },
        {
            "bufferView" : 11,
            "componentType" : 5126,
            "count" : 6155,
            "type" : "VEC4"
        },
        {
            "bufferView" : 12,
            "componentType" : 5123,
            "count" : 12708,
            "type" : "SCALAR"
        },
        {
            "bufferView" : 13,
            "componentType" : 5126,
            "count" : 1672,
            "max" : [
                0.04972963407635689,
                -0.061099402606487274,
                1.862192988395691
            ],
            "min" : [
                -0.04972963407635689,
                -0.08658263087272644,
                1.8285576105117798
            ],
            "type" : "VEC3"
        },
        {
            "bufferView" : 14,
            "componentType" : 5126,
            "count" : 1672,
            "type" : "VEC2"
        },
        {
            "bufferView" : 15,
            "componentType" : 5126,
            "count" : 1672,
            "type" : "VEC3"
        },
        {
            "bufferView" : 16,
            "componentType" : 5121,
            "count" : 1672,
            "type" : "VEC4"
        },
        {
            "bufferView" : 17,
            "componentType" : 5126,
            "count" : 1672,
            "type" : "VEC4"
        },
        {
            "bufferView" : 18,
            "componentType" : 5123,
            "count" : 6120,
            "type" : "SCALAR"
        },
        {
            "bufferView" : 19,
            "componentType" : 5126,
            "count" : 4086,
            "max" : [
                0.20105454325675964,
                0.13753274083137512,
                0.2566075623035431
            ],
            "min" : [
                -0.20105455815792084,
                -0.15587380528450012,
                -2.0708681404357776e-05
            ],
            "type" : "VEC3"
        },
        {
            "bufferView" : 20,
            "componentType" : 5126,
            "count" : 4086,
            "type" : "VEC2"
        },
        {
            "bufferView" : 21,
            "componentType" : 5126,
            "count" : 4086,
            "type" : "VEC3"
        },
        {
            "bufferView" : 22,
            "componentType" : 5121,
            "count" : 4086,
            "type" : "VEC4"
        },
        {
            "bufferView" : 23,
            "componentType" : 5126,
            "count" : 4086,
            "type" : "VEC4"
        },
        {
            "bufferView" : 24,
            "componentType" : 5123,
            "count" : 9960,
            "type" : "SCALAR"
        },
        {
            "bufferView" : 25,
            "componentType" : 5126,
            "count" : 3928,
            "max" : [
                0.20785574615001678,
                0.13437692821025848,
                0.2566075921058655
            ],
            "min" : [
                -0.20785576105117798,
                -0.16342900693416595,
                -0.016243472695350647
            ],
            "type" : "VEC3"
        },
        {
            "bufferView" : 26,
            "componentType" : 5126,
            "count" : 3928,
            "type" : "VEC2"
        },
        {
            "bufferView" : 27,
            "componentType" : 5126,
            "count" : 3928,
            "type" : "VEC3"
        },
        {
            "bufferView" : 28,
            "componentType" : 5121,
            "count" : 3928,
            "type" : "VEC4"
        },
        {
            "bufferView" : 29,
            "componentType" : 5126,
            "count" : 3928,
            "type" : "VEC4"
        },
        {
            "bufferView" : 30,
            "componentType" : 5123,
            "count" : 9192,
            "type" : "SCALAR"
        },
        {
            "bufferView" : 31,
            "componentType" : 5126,
            "count" : 2770,
            "max" : [
                0.08534667640924454,
                0.11811742931604385,
                1.9718650579452515
            ],
            "min" : [
                -0.10453084856271744,
                -0.11590544879436493,
                1.7473688125610352
            ],
            "type" : "VEC3"
        },
        {
            "bufferView" : 32,
            "componentType" : 5126,
            "count" : 2770,
            "type" : "VEC2"
        },
        {
            "bufferView" : 33,
            "componentType" : 5126,
            "count" : 2770,
            "type" : "VEC3"
        },
        {
            "bufferView" : 34,
            "componentType" : 5121,
            "count" : 2770,
            "type" : "VEC4"
        },
        {
            "bufferView" : 35,
            "componentType" : 5126,
            "count" : 2770,
            "type" : "VEC4"
        },
        {
            "bufferView" : 36,
            "componentType" : 5123,
            "count" : 5766,
            "type" : "SCALAR"
        }
    ],
    "bufferViews" : [
        {
            "buffer" : 0,
            "byteLength" : 636348,
            "byteOffset" : 0,
            "target" : 34962
        },
        {
            "buffer" : 0,
            "byteLength" : 424232,
            "byteOffset" : 636348,
            "target" : 34962
        },
        {
            "buffer" : 0,
            "byteLength" : 636348,
            "byteOffset" : 1060580,
            "target" : 34962
        },
        {
            "buffer" : 0,
            "byteLength" : 212116,
            "byteOffset" : 1696928,
            "target" : 34962
        },
        {
            "buffer" : 0,
            "byteLength" : 848464,
            "byteOffset" : 1909044,
            "target" : 34962
        },
        {
            "buffer" : 0,
            "byteLength" : 221832,
            "byteOffset" : 2757508,
            "target" : 34963
        },
        {
            "buffer" : 0,
            "byteLength" : 3392,
            "byteOffset" : 2979340
        },
        {
            "buffer" : 0,
            "byteLength" : 73860,
            "byteOffset" : 2982732,
            "target" : 34962
        },
        {
            "buffer" : 0,
            "byteLength" : 49240,
            "byteOffset" : 3056592,
            "target" : 34962
        },
        {
            "buffer" : 0,
            "byteLength" : 73860,
            "byteOffset" : 3105832,
            "target" : 34962
        },
        {
            "buffer" : 0,
            "byteLength" : 24620,
            "byteOffset" : 3179692,
            "target" : 34962
        },
        {
            "buffer" : 0,
            "byteLength" : 98480,
            "byteOffset" : 3204312,
            "target" : 34962
        },
        {
            "buffer" : 0,
            "byteLength" : 25416,
            "byteOffset" : 3302792,
            "target" : 34963
        },
        {
            "buffer" : 0,
            "byteLength" : 20064,
            "byteOffset" : 3328208,
            "target" : 34962
        },
        {
            "buffer" : 0,
            "byteLength" : 13376,
            "byteOffset" : 3348272,
            "target" : 34962
        },
        {
            "buffer" : 0,
            "byteLength" : 20064,
            "byteOffset" : 3361648,
            "target" : 34962
        },
        {
            "buffer" : 0,
            "byteLength" : 6688,
            "byteOffset" : 3381712,
            "target" : 34962
        },
        {
            "buffer" : 0,
            "byteLength" : 26752,
            "byteOffset" : 3388400,
            "target" : 34962
        },
        {
            "buffer" : 0,
            "byteLength" : 12240,
            "byteOffset" : 3415152,
            "target" : 34963
        },
        {
            "buffer" : 0,
            "byteLength" : 49032,
            "byteOffset" : 3427392,
            "target" : 34962
        },
        {
            "buffer" : 0,
            "byteLength" : 32688,
            "byteOffset" : 3476424,
            "target" : 34962
        },
        {
            "buffer" : 0,
            "byteLength" : 49032,
            "byteOffset" : 3509112,
            "target" : 34962
        },
        {
            "buffer" : 0,
            "byteLength" : 16344,
            "byteOffset" : 3558144,
            "target" : 34962
        },
        {
            "buffer" : 0,
            "byteLength" : 65376,
            "byteOffset" : 3574488,
            "target" : 34962
        },
        {
            "buffer" : 0,
            "byteLength" : 19920,
            "byteOffset" : 3639864,
            "target" : 34963
        },
        {
            "buffer" : 0,
            "byteLength" : 47136,
            "byteOffset" : 3659784,
            "target" : 34962
        },
        {
            "buffer" : 0,
            "byteLength" : 31424,
            "byteOffset" : 3706920,
            "target" : 34962
        },
        {
            "buffer" : 0,
            "byteLength" : 47136,
            "byteOffset" : 3738344,
            "target" : 34962
        },
        {
            "buffer" : 0,
            "byteLength" : 15712,
            "byteOffset" : 3785480,
            "target" : 34962
        },
        {
            "buffer" : 0,
            "byteLength" : 62848,
            "byteOffset" : 3801192,
            "target" : 34962
        },
        {
            "buffer" : 0,
            "byteLength" : 18384,
            "byteOffset" : 3864040,
            "target" : 34963
        },
        {
            "buffer" : 0,
            "byteLength" : 33240,
            "byteOffset" : 3882424,
            "target" : 34962
        },
        {
            "buffer" : 0,
            "byteLength" : 22160,
            "byteOffset" : 3915664,
            "target" : 34962
        },
        {
            "buffer" : 0,
            "byteLength" : 33240,
            "byteOffset" : 3937824,
            "target" : 34962
        },
        {
            "buffer" : 0,
            "byteLength" : 11080,
            "byteOffset" : 3971064,
            "target" : 34962
        },
        {
            "buffer" : 0,
            "byteLength" : 44320,
            "byteOffset" : 3982144,
            "target" : 34962
        },
        {
            "buffer" : 0,
            "byteLength" : 11532,
            "byteOffset" : 4026464,
            "target" : 34963
        }
    ],
    "samplers" : [
        {
            "magFilter" : 9729,
            "minFilter" : 9987
        }
    ],
    "buffers" : [
        {
            "byteLength" : 4037996,
            "uri" : "EditorMainFemale.bin"
        }
    ]
}
