{
    "asset" : {
        "generator" : "Khronos glTF Blender I/O v3.4.50",
        "version" : "2.0"
    },
    "extensionsUsed" : [
        "KHR_materials_specular",
        "KHR_materials_ior"
    ],
    "scene" : 0,
    "scenes" : [
        {
            "name" : "Scene",
            "nodes" : [
                58
            ]
        }
    ],
    "nodes" : [
        {
            "name" : "index_03_l",
            "rotation" : [
                0.048355989158153534,
                0.038873642683029175,
                -0.04614567011594772,
                0.9970061182975769
            ],
            "scale" : [
                0.9999998807907104,
                0.9999999403953552,
                0.9999999403953552
            ],
            "translation" : [
                1.9408762454986572e-06,
                0.2324601411819458,
                -1.3560056686401367e-06
            ]
        },
        {
            "children" : [
                0
            ],
            "name" : "index_02_l",
            "rotation" : [
                -0.01280322764068842,
                -0.024890871718525887,
                -0.022393159568309784,
                0.9993573427200317
            ],
            "translation" : [
                -8.009374141693115e-07,
                0.2606910169124603,
                6.724148988723755e-07
            ]
        },
        {
            "children" : [
                1
            ],
            "name" : "index_01_l",
            "rotation" : [
                -0.07346484065055847,
                0.15147477388381958,
                -0.0776233896613121,
                0.9826662540435791
            ],
            "scale" : [
                1,
                1.0000001192092896,
                1.0000001192092896
            ],
            "translation" : [
                -0.1656595766544342,
                1.0553343296051025,
                0.066757932305336
            ]
        },
        {
            "name" : "middle_03_l",
            "rotation" : [
                0.05333331972360611,
                0.04764048755168915,
                -0.04174906387925148,
                0.996565580368042
            ],
            "scale" : [
                1,
                1.0000001192092896,
                1
            ],
            "translation" : [
                1.0281801223754883e-06,
                0.2767886817455292,
                8.419156074523926e-07
            ]
        },
        {
            "children" : [
                3
            ],
            "name" : "middle_02_l",
            "rotation" : [
                0.006784448865801096,
                -0.03703080862760544,
                0.03141074255108833,
                0.9987973570823669
            ],
            "scale" : [
                1,
                0.9999999403953552,
                1.0000001192092896
            ],
            "translation" : [
                -7.301568984985352e-07,
                0.3396798074245453,
                -1.0728836059570312e-06
            ]
        },
        {
            "children" : [
                4
            ],
            "name" : "middle_01_l",
            "rotation" : [
                -0.03935687243938446,
                0.28829526901245117,
                -0.11119706183671951,
                0.9502484798431396
            ],
            "scale" : [
                1,
                1,
                1.0000001192092896
            ],
            "translation" : [
                -0.07409287989139557,
                1.0130897760391235,
                -0.15778715908527374
            ]
        },
        {
            "name" : "pinky_03_l",
            "rotation" : [
                -0.005724707618355751,
                0.01052612904459238,
                -0.010800507850944996,
                0.9998698830604553
            ],
            "scale" : [
                1,
                1.0000001192092896,
                1.0000001192092896
            ],
            "translation" : [
                2.980232238769531e-07,
                0.1563548743724823,
                -8.195638656616211e-07
            ]
        },
        {
            "children" : [
                6
            ],
            "name" : "pinky_02_l",
            "rotation" : [
                0.014490583911538124,
                -0.01763152703642845,
                0.02182295359671116,
                0.9995013475418091
            ],
            "scale" : [
                1,
                1,
                0.9999999403953552
            ],
            "translation" : [
                2.3283064365386963e-07,
                0.2142377346754074,
                -4.917383193969727e-07
            ]
        },
        {
            "children" : [
                7
            ],
            "name" : "pinky_01_l",
            "rotation" : [
                -0.085806705057621,
                0.3484730124473572,
                -0.0894438847899437,
                0.9290875196456909
            ],
            "scale" : [
                1.0000001192092896,
                1.0000001192092896,
                1.0000001192092896
            ],
            "translation" : [
                0.1822282075881958,
                0.841696560382843,
                -0.4053390920162201
            ]
        },
        {
            "name" : "ring_03_l",
            "rotation" : [
                0.05246496573090553,
                0.05821957066655159,
                -0.051301561295986176,
                0.9956033825874329
            ],
            "scale" : [
                1,
                0.9999998211860657,
                1.0000001192092896
            ],
            "translation" : [
                -1.1920928955078125e-07,
                0.24948671460151672,
                -5.513429641723633e-07
            ]
        },
        {
            "children" : [
                9
            ],
            "name" : "ring_02_l",
            "rotation" : [
                0.001267291372641921,
                -0.0461767315864563,
                0.04703419283032417,
                0.9978246092796326
            ],
            "scale" : [
                1,
                0.9999998211860657,
                0.9999999403953552
            ],
            "translation" : [
                8.344650268554688e-07,
                0.299379825592041,
                -1.7136335372924805e-06
            ]
        },
        {
            "children" : [
                10
            ],
            "name" : "ring_01_l",
            "rotation" : [
                -0.04065826162695885,
                0.35143327713012695,
                -0.11621715873479843,
                0.9280814528465271
            ],
            "scale" : [
                1,
                0.9999998807907104,
                1
            ],
            "translation" : [
                0.03988240659236908,
                0.9332267642021179,
                -0.3099735379219055
            ]
        },
        {
            "name" : "thumb_03_l",
            "rotation" : [
                0.11334466189146042,
                0.17517046630382538,
                0.10000237822532654,
                0.9728657603263855
            ],
            "scale" : [
                1,
                0.9999998807907104,
                1
            ],
            "translation" : [
                9.834766387939453e-07,
                0.36557719111442566,
                1.4901161193847656e-07
            ]
        },
        {
            "children" : [
                12
            ],
            "name" : "thumb_02_l",
            "rotation" : [
                0.45738884806632996,
                0.3027886152267456,
                -0.21894854307174683,
                0.8069548010826111
            ],
            "scale" : [
                0.9999999403953552,
                0.9999998807907104,
                0.9999997019767761
            ],
            "translation" : [
                7.450580596923828e-07,
                0.3091002404689789,
                2.1457672119140625e-06
            ]
        },
        {
            "children" : [
                13
            ],
            "name" : "thumb_01_l",
            "rotation" : [
                0.3193904161453247,
                0.8351645469665527,
                0.39134445786476135,
                0.21757648885250092
            ],
            "scale" : [
                1.0000001192092896,
                1,
                1.0000001192092896
            ],
            "translation" : [
                -0.10030180215835571,
                0.4007691740989685,
                0.1802862584590912
            ]
        },
        {
            "children" : [
                2,
                5,
                8,
                11,
                14
            ],
            "name" : "hand_l",
            "rotation" : [
                0.09686650335788727,
                0.3701789677143097,
                -0.04232297092676163,
                0.9229264259338379
            ],
            "scale" : [
                1,
                1.0000001192092896,
                1
            ],
            "translation" : [
                -4.023313522338867e-07,
                2.4467580318450928,
                2.384185791015625e-07
            ]
        },
        {
            "children" : [
                15
            ],
            "name" : "lowerarm_l",
            "rotation" : [
                0.04633772000670433,
                -0.05600854381918907,
                0.0268278606235981,
                0.9969935417175293
            ],
            "scale" : [
                1,
                0.9999998807907104,
                1
            ],
            "translation" : [
                -9.313225746154785e-07,
                2.414097547531128,
                1.695007085800171e-07
            ]
        },
        {
            "children" : [
                16
            ],
            "name" : "upperarm_l",
            "rotation" : [
                0.03388616070151329,
                -0.02863376960158348,
                -0.03333317115902901,
                0.9984592199325562
            ],
            "scale" : [
                0.9999998211860657,
                0.9999999403953552,
                0.9999998807907104
            ],
            "translation" : [
                -4.1350722312927246e-07,
                1.6706591844558716,
                -2.9802322387695312e-08
            ]
        },
        {
            "children" : [
                17
            ],
            "name" : "clavicle_l",
            "rotation" : [
                -0.008574503473937511,
                0.043361157178878784,
                -0.688490092754364,
                0.7238976955413818
            ],
            "scale" : [
                1.0000001192092896,
                1,
                1
            ],
            "translation" : [
                0.22790434956550598,
                2.5165457725524902,
                0.9843167662620544
            ]
        },
        {
            "name" : "index_03_r",
            "rotation" : [
                0.04835695028305054,
                -0.03887318819761276,
                0.04614480584859848,
                0.9970061182975769
            ],
            "scale" : [
                0.9999998211860657,
                1.0000001192092896,
                1
            ],
            "translation" : [
                -7.972121238708496e-07,
                0.23246127367019653,
                7.748603820800781e-07
            ]
        },
        {
            "children" : [
                19
            ],
            "name" : "index_02_r",
            "rotation" : [
                -0.01280258409678936,
                0.024890096858143806,
                0.02239488810300827,
                0.9993573427200317
            ],
            "scale" : [
                1,
                0.9999998807907104,
                0.9999998807907104
            ],
            "translation" : [
                -1.1548399925231934e-07,
                0.2606901526451111,
                -7.972121238708496e-07
            ]
        },
        {
            "children" : [
                20
            ],
            "name" : "index_01_r",
            "rotation" : [
                -0.07346685975790024,
                -0.15147626399993896,
                0.0776199996471405,
                0.9826661348342896
            ],
            "scale" : [
                0.9999999403953552,
                0.9999998807907104,
                0.9999998807907104
            ],
            "translation" : [
                0.16566058993339539,
                1.0553337335586548,
                0.06676089018583298
            ]
        },
        {
            "name" : "middle_03_r",
            "rotation" : [
                0.053336553275585175,
                -0.04763359576463699,
                0.04175007715821266,
                0.9965656995773315
            ],
            "scale" : [
                0.9999999403953552,
                0.9999999403953552,
                0.9999999403953552
            ],
            "translation" : [
                2.1010637283325195e-06,
                0.27678948640823364,
                -1.7210841178894043e-06
            ]
        },
        {
            "children" : [
                22
            ],
            "name" : "middle_02_r",
            "rotation" : [
                0.006779511924833059,
                0.0370246022939682,
                -0.03141358494758606,
                0.9987974762916565
            ],
            "scale" : [
                0.9999998807907104,
                1,
                1
            ],
            "translation" : [
                -8.642673492431641e-07,
                0.33968091011047363,
                0
            ]
        },
        {
            "children" : [
                23
            ],
            "name" : "middle_01_r",
            "rotation" : [
                -0.039358481764793396,
                -0.28829675912857056,
                0.11119581758975983,
                0.9502480626106262
            ],
            "scale" : [
                1.0000001192092896,
                1.0000001192092896,
                1.0000001192092896
            ],
            "translation" : [
                0.07409416884183884,
                1.0130892992019653,
                -0.1577834188938141
            ]
        },
        {
            "name" : "pinky_03_r",
            "rotation" : [
                -0.005719288717955351,
                -0.010514654219150543,
                0.01080353558063507,
                0.9998700022697449
            ],
            "scale" : [
                1.0000001192092896,
                1.0000001192092896,
                1
            ],
            "translation" : [
                1.4901161193847656e-07,
                0.15635785460472107,
                2.7567148208618164e-06
            ]
        },
        {
            "children" : [
                25
            ],
            "name" : "pinky_02_r",
            "rotation" : [
                0.014482567086815834,
                0.017620718106627464,
                -0.02182593382894993,
                0.9995015859603882
            ],
            "scale" : [
                1,
                0.9999998807907104,
                0.9999999403953552
            ],
            "translation" : [
                -5.811452865600586e-07,
                0.21423833072185516,
                -4.351139068603516e-06
            ]
        },
        {
            "children" : [
                26
            ],
            "name" : "pinky_01_r",
            "rotation" : [
                -0.08580628037452698,
                -0.3484729826450348,
                0.08944302797317505,
                0.9290876388549805
            ],
            "scale" : [
                1.0000001192092896,
                1,
                1
            ],
            "translation" : [
                -0.18222805857658386,
                0.8416970372200012,
                -0.40533632040023804
            ]
        },
        {
            "name" : "ring_03_r",
            "rotation" : [
                0.052463073283433914,
                -0.05821947380900383,
                0.051301874220371246,
                0.9956035614013672
            ],
            "translation" : [
                -4.470348358154297e-07,
                0.24948500096797943,
                -8.046627044677734e-07
            ]
        },
        {
            "children" : [
                28
            ],
            "name" : "ring_02_r",
            "rotation" : [
                0.0012680526124313474,
                0.046176183968782425,
                -0.04703511670231819,
                0.9978246688842773
            ],
            "scale" : [
                0.9999999403953552,
                1,
                1
            ],
            "translation" : [
                -4.470348358154297e-08,
                0.2993825078010559,
                -3.0174851417541504e-06
            ]
        },
        {
            "children" : [
                29
            ],
            "name" : "ring_01_r",
            "rotation" : [
                -0.040659934282302856,
                -0.3514351546764374,
                0.11621570587158203,
                0.9280808568000793
            ],
            "scale" : [
                1,
                1,
                1.0000001192092896
            ],
            "translation" : [
                -0.03988127410411835,
                0.9332257509231567,
                -0.3099711835384369
            ]
        },
        {
            "name" : "thumb_03_r",
            "rotation" : [
                0.11337772756814957,
                -0.17522099614143372,
                -0.09996510297060013,
                0.9728567004203796
            ],
            "scale" : [
                0.9999999403953552,
                1,
                1
            ],
            "translation" : [
                1.475214958190918e-06,
                0.3655805289745331,
                1.646578311920166e-06
            ]
        },
        {
            "children" : [
                31
            ],
            "name" : "thumb_02_r",
            "rotation" : [
                0.45734286308288574,
                -0.3026481568813324,
                0.21904239058494568,
                0.8070081472396851
            ],
            "scale" : [
                1,
                1.0000001192092896,
                1
            ],
            "translation" : [
                -1.2442469596862793e-06,
                0.30909615755081177,
                5.662441253662109e-07
            ]
        },
        {
            "children" : [
                32
            ],
            "name" : "thumb_01_r",
            "rotation" : [
                0.3194449245929718,
                -0.8351311683654785,
                -0.39137306809425354,
                0.21757300198078156
            ],
            "scale" : [
                1.000000238418579,
                1,
                1
            ],
            "translation" : [
                0.10029864311218262,
                0.40076932311058044,
                0.1802901327610016
            ]
        },
        {
            "children" : [
                21,
                24,
                27,
                30,
                33
            ],
            "name" : "hand_r",
            "rotation" : [
                0.09686649590730667,
                -0.3701777756214142,
                0.04232536628842354,
                0.9229269027709961
            ],
            "scale" : [
                0.9999999403953552,
                1.0000001192092896,
                0.9999998807907104
            ],
            "translation" : [
                1.9371509552001953e-07,
                2.446758270263672,
                8.940696716308594e-08
            ]
        },
        {
            "children" : [
                34
            ],
            "name" : "lowerarm_r",
            "rotation" : [
                0.04633777588605881,
                0.05600818246603012,
                -0.026828255504369736,
                0.9969935417175293
            ],
            "scale" : [
                1.0000001192092896,
                1.0000001192092896,
                1.0000001192092896
            ],
            "translation" : [
                1.7657876014709473e-06,
                2.4140982627868652,
                -6.705522537231445e-08
            ]
        },
        {
            "children" : [
                35
            ],
            "name" : "upperarm_r",
            "rotation" : [
                0.033886153250932693,
                0.02863403409719467,
                0.033333633095026016,
                0.9984591603279114
            ],
            "scale" : [
                0.9999998211860657,
                0.9999999403953552,
                0.9999997615814209
            ],
            "translation" : [
                -8.121132850646973e-07,
                1.6706598997116089,
                1.4901161193847656e-08
            ]
        },
        {
            "children" : [
                36
            ],
            "name" : "clavicle_r",
            "rotation" : [
                -0.008574338629841805,
                -0.043361276388168335,
                0.6884898543357849,
                0.7238978147506714
            ],
            "scale" : [
                1.0000001192092896,
                1,
                1
            ],
            "translation" : [
                -0.22790434956550598,
                2.5165457725524902,
                0.9843168258666992
            ]
        },
        {
            "name" : "head",
            "rotation" : [
                -0.16129672527313232,
                -1.9453743060893203e-09,
                -4.64821570123064e-10,
                0.9869059324264526
            ],
            "scale" : [
                1,
                1,
                1.0000001192092896
            ],
            "translation" : [
                -2.1094237467877974e-15,
                0.9368495941162109,
                -5.960464477539063e-08
            ]
        },
        {
            "children" : [
                38
            ],
            "name" : "neck_01",
            "rotation" : [
                0.22579751908779144,
                1.5231578220920028e-09,
                -5.37836719605167e-10,
                0.9741742610931396
            ],
            "translation" : [
                5.646545453430463e-09,
                3.2917368412017822,
                0.9346939921379089
            ]
        },
        {
            "children" : [
                18,
                37,
                39
            ],
            "name" : "spine_03",
            "rotation" : [
                0.116226926445961,
                1.6864196150656596e-10,
                1.8214459940324446e-09,
                0.993222713470459
            ],
            "scale" : [
                1,
                0.9999999403953552,
                0.9999998807907104
            ],
            "translation" : [
                2.220446049250313e-16,
                0.6001262664794922,
                2.384185791015625e-07
            ]
        },
        {
            "children" : [
                40
            ],
            "name" : "spine_02",
            "rotation" : [
                -0.22757767140865326,
                -3.700488804270208e-10,
                -4.2380249309914575e-10,
                0.9737599492073059
            ],
            "scale" : [
                0.9999999403953552,
                1,
                1
            ],
            "translation" : [
                2.3592239273284576e-15,
                0.6683387160301208,
                1.1920928955078125e-07
            ]
        },
        {
            "children" : [
                41
            ],
            "name" : "spine_01",
            "rotation" : [
                0.22647029161453247,
                2.3483373468025093e-08,
                9.551495594450898e-09,
                0.9740180969238281
            ],
            "scale" : [
                1,
                1,
                0.9999999403953552
            ],
            "translation" : [
                4.952521948098365e-09,
                0.9138883948326111,
                5.960464477539062e-07
            ]
        },
        {
            "name" : "ball_l",
            "rotation" : [
                -0.24652162194252014,
                0.01865304447710514,
                0.011677761562168598,
                0.9688875079154968
            ],
            "translation" : [
                3.6368146538734436e-07,
                1.3981009721755981,
                -3.203749656677246e-07
            ]
        },
        {
            "children" : [
                43
            ],
            "name" : "foot_l",
            "rotation" : [
                -0.5544454455375671,
                0.022131193429231644,
                -0.024571172893047333,
                0.8315628170967102
            ],
            "scale" : [
                0.9999999403953552,
                1.0000001192092896,
                1.0000001192092896
            ],
            "translation" : [
                9.138602763414383e-08,
                4.482901573181152,
                9.033828973770142e-08
            ]
        },
        {
            "children" : [
                44
            ],
            "name" : "calf_l",
            "rotation" : [
                0.0675472617149353,
                0.21788334846496582,
                3.966063741245307e-05,
                0.973634660243988
            ],
            "scale" : [
                0.9999999403953552,
                1,
                1.0000001192092896
            ],
            "translation" : [
                -8.940696716308594e-08,
                3.922980785369873,
                -8.940696716308594e-08
            ]
        },
        {
            "children" : [
                45
            ],
            "name" : "thigh_l",
            "rotation" : [
                -0.9675956964492798,
                -0.042889080941677094,
                0.21162471175193787,
                0.1308974325656891
            ],
            "scale" : [
                1,
                1,
                0.9999998807907104
            ],
            "translation" : [
                1.1338379383087158,
                -0.1637991964817047,
                -0.1754450500011444
            ]
        },
        {
            "name" : "ball_r",
            "rotation" : [
                -0.24652165174484253,
                -0.018653109669685364,
                -0.011677616275846958,
                0.9688875079154968
            ],
            "scale" : [
                1.0000001192092896,
                1.0000001192092896,
                1
            ],
            "translation" : [
                1.6111880540847778e-07,
                1.3981012105941772,
                -2.2351741790771484e-08
            ]
        },
        {
            "children" : [
                47
            ],
            "name" : "foot_r",
            "rotation" : [
                -0.5544455051422119,
                -0.0221311803907156,
                0.024571282789111137,
                0.8315628170967102
            ],
            "scale" : [
                0.9999999403953552,
                0.9999998807907104,
                0.9999999403953552
            ],
            "translation" : [
                -6.635673344135284e-08,
                4.482901096343994,
                -1.0710209608078003e-08
            ]
        },
        {
            "children" : [
                48
            ],
            "name" : "calf_r",
            "rotation" : [
                0.06754729151725769,
                -0.21788322925567627,
                -3.968262899434194e-05,
                0.9736346006393433
            ],
            "scale" : [
                0.9999998211860657,
                0.9999998807907104,
                1
            ],
            "translation" : [
                5.960464477539063e-08,
                3.922980785369873,
                -2.9802322387695312e-08
            ]
        },
        {
            "children" : [
                49
            ],
            "name" : "thigh_r",
            "rotation" : [
                -0.9675956964492798,
                0.0428890660405159,
                -0.2116246223449707,
                0.13089744746685028
            ],
            "scale" : [
                1,
                0.9999998807907104,
                0.9999996423721313
            ],
            "translation" : [
                -1.1338379383087158,
                -0.1637992560863495,
                -0.17544487118721008
            ]
        },
        {
            "children" : [
                42,
                46,
                50
            ],
            "name" : "pelvis",
            "rotation" : [
                0.4033065438270569,
                0.4033065438270569,
                0.5808131098747253,
                0.5808131098747253
            ],
            "translation" : [
                -0.6157893538475037,
                0.028225896880030632,
                8.398468017578125
            ]
        },
        {
            "children" : [
                51
            ],
            "name" : "Root",
            "rotation" : [
                -0.5,
                -0.5,
                -0.5,
                0.5
            ],
            "translation" : [
                -0.02822589874267578,
                0.8806060552597046,
                -1.4210854715202004e-14
            ]
        },
        {
            "mesh" : 0,
            "name" : "editor_main_maleMesh",
            "skin" : 0
        },
        {
            "mesh" : 1,
            "name" : "high-polyMesh",
            "skin" : 0
        },
        {
            "mesh" : 2,
            "name" : "male_casualsuit01Mesh",
            "skin" : 0
        },
        {
            "mesh" : 3,
            "name" : "shoes01Mesh",
            "skin" : 0
        },
        {
            "mesh" : 4,
            "name" : "short03Mesh",
            "skin" : 0
        },
        {
            "children" : [
                53,
                54,
                55,
                56,
                57,
                52
            ],
            "name" : "Game_engine",
            "rotation" : [
                0.70710688829422,
                0,
                0,
                0.7071066498756409
            ],
            "scale" : [
                0.10000000149011612,
                0.10000000149011612,
                0.10000000149011612
            ]
        }
    ],
    "materials" : [
        {
            "doubleSided" : true,
            "extensions" : {
                "KHR_materials_specular" : {
                    "specularColorFactor" : [
                        2.371357614441398,
                        2.371357614441398,
                        2.371357614441398
                    ]
                },
                "KHR_materials_ior" : {
                    "ior" : 1.4500000476837158
                }
            },
            "name" : "editor_main_male",
            "pbrMetallicRoughness" : {
                "baseColorFactor" : [
                    0.5903333425521851,
                    0.4399999976158142,
                    0.33799999952316284,
                    1
                ],
                "roughnessFactor" : 0.9020203948020935
            }
        },
        {
            "alphaMode" : "BLEND",
            "doubleSided" : true,
            "extensions" : {
                "KHR_materials_specular" : {
                    "specularColorFactor" : [
                        2.371357614441398,
                        2.371357614441398,
                        2.371357614441398
                    ]
                },
                "KHR_materials_ior" : {
                    "ior" : 1.4500000476837158
                }
            },
            "name" : "high-poly",
            "pbrMetallicRoughness" : {
                "baseColorTexture" : {
                    "index" : 0
                },
                "roughnessFactor" : 0.8999999761581421
            }
        },
        {
            "alphaMode" : "BLEND",
            "doubleSided" : true,
            "extensions" : {
                "KHR_materials_specular" : {
                    "specularColorFactor" : [
                        2.371357614441398,
                        2.371357614441398,
                        2.371357614441398
                    ]
                },
                "KHR_materials_ior" : {
                    "ior" : 1.4500000476837158
                }
            },
            "name" : "male_casualsuit01",
            "normalTexture" : {
                "index" : 1
            },
            "pbrMetallicRoughness" : {
                "baseColorTexture" : {
                    "index" : 2
                },
                "roughnessFactor" : 0.9552786350250244
            }
        },
        {
            "doubleSided" : true,
            "extensions" : {
                "KHR_materials_specular" : {
                    "specularColorFactor" : [
                        2.371357614441398,
                        2.371357614441398,
                        2.371357614441398
                    ]
                },
                "KHR_materials_ior" : {
                    "ior" : 1.4500000476837158
                }
            },
            "name" : "shoes01",
            "normalTexture" : {
                "index" : 3
            },
            "pbrMetallicRoughness" : {
                "baseColorTexture" : {
                    "index" : 4
                },
                "roughnessFactor" : 0.9367544651031494
            }
        },
        {
            "alphaMode" : "BLEND",
            "doubleSided" : true,
            "extensions" : {
                "KHR_materials_specular" : {
                    "specularColorFactor" : [
                        2.371357614441398,
                        2.371357614441398,
                        2.371357614441398
                    ]
                },
                "KHR_materials_ior" : {
                    "ior" : 1.4500000476837158
                }
            },
            "name" : "short03",
            "pbrMetallicRoughness" : {
                "baseColorTexture" : {
                    "index" : 5
                },
                "roughnessFactor" : 0.9020203948020935
            }
        }
    ],
    "meshes" : [
        {
            "name" : "editor_main_male",
            "primitives" : [
                {
                    "attributes" : {
                        "POSITION" : 0,
                        "TEXCOORD_0" : 1,
                        "NORMAL" : 2,
                        "JOINTS_0" : 3,
                        "WEIGHTS_0" : 4
                    },
                    "indices" : 5,
                    "material" : 0
                }
            ]
        },
        {
            "name" : "high-poly",
            "primitives" : [
                {
                    "attributes" : {
                        "POSITION" : 7,
                        "TEXCOORD_0" : 8,
                        "NORMAL" : 9,
                        "JOINTS_0" : 10,
                        "WEIGHTS_0" : 11
                    },
                    "indices" : 12,
                    "material" : 1
                }
            ]
        },
        {
            "name" : "male_casualsuit01",
            "primitives" : [
                {
                    "attributes" : {
                        "POSITION" : 13,
                        "TEXCOORD_0" : 14,
                        "NORMAL" : 15,
                        "JOINTS_0" : 16,
                        "WEIGHTS_0" : 17
                    },
                    "indices" : 18,
                    "material" : 2
                }
            ]
        },
        {
            "name" : "shoes01",
            "primitives" : [
                {
                    "attributes" : {
                        "POSITION" : 19,
                        "TEXCOORD_0" : 20,
                        "NORMAL" : 21,
                        "JOINTS_0" : 22,
                        "WEIGHTS_0" : 23
                    },
                    "indices" : 24,
                    "material" : 3
                }
            ]
        },
        {
            "name" : "short03",
            "primitives" : [
                {
                    "attributes" : {
                        "POSITION" : 25,
                        "TEXCOORD_0" : 26,
                        "NORMAL" : 27,
                        "JOINTS_0" : 28,
                        "WEIGHTS_0" : 29
                    },
                    "indices" : 30,
                    "material" : 4
                }
            ]
        }
    ],
    "textures" : [
        {
            "sampler" : 0,
            "source" : 0
        },
        {
            "sampler" : 0,
            "source" : 1
        },
        {
            "sampler" : 0,
            "source" : 2
        },
        {
            "sampler" : 0,
            "source" : 3
        },
        {
            "sampler" : 0,
            "source" : 4
        },
        {
            "sampler" : 0,
            "source" : 5
        }
    ],
    "images" : [
        {
            "mimeType" : "image/png",
            "name" : "brown_eye",
            "uri" : "brown_eye.png"
        },
        {
            "mimeType" : "image/png",
            "name" : "male_casualsuit01_normal",
            "uri" : "male_casualsuit01_normal.png"
        },
        {
            "mimeType" : "image/png",
            "name" : "male_casualsuit01_diffuse",
            "uri" : "male_casualsuit01_diffuse.png"
        },
        {
            "mimeType" : "image/png",
            "name" : "shoes01_normal",
            "uri" : "shoes01_normal.png"
        },
        {
            "mimeType" : "image/png",
            "name" : "shoes01_diffuse",
            "uri" : "shoes01_diffuse.png"
        },
        {
            "mimeType" : "image/png",
            "name" : "short03_diffuse",
            "uri" : "short03_diffuse.png"
        }
    ],
    "skins" : [
        {
            "inverseBindMatrices" : 6,
            "joints" : [
                52,
                51,
                42,
                41,
                40,
                18,
                17,
                16,
                15,
                2,
                1,
                0,
                5,
                4,
                3,
                8,
                7,
                6,
                11,
                10,
                9,
                14,
                13,
                12,
                37,
                36,
                35,
                34,
                21,
                20,
                19,
                24,
                23,
                22,
                27,
                26,
                25,
                30,
                29,
                28,
                33,
                32,
                31,
                39,
                38,
                46,
                45,
                44,
                43,
                50,
                49,
                48,
                47
            ],
            "name" : "Game_engine"
        }
    ],
    "accessors" : [
        {
            "bufferView" : 0,
            "componentType" : 5126,
            "count" : 53511,
            "max" : [
                0.8666642904281616,
                0.1930031180381775,
                1.7258483171463013
            ],
            "min" : [
                -0.8666645288467407,
                -0.1471550017595291,
                -0.023927515372633934
            ],
            "type" : "VEC3"
        },
        {
            "bufferView" : 1,
            "componentType" : 5126,
            "count" : 53511,
            "type" : "VEC2"
        },
        {
            "bufferView" : 2,
            "componentType" : 5126,
            "count" : 53511,
            "type" : "VEC3"
        },
        {
            "bufferView" : 3,
            "componentType" : 5121,
            "count" : 53511,
            "type" : "VEC4"
        },
        {
            "bufferView" : 4,
            "componentType" : 5126,
            "count" : 53511,
            "type" : "VEC4"
        },
        {
            "bufferView" : 5,
            "componentType" : 5123,
            "count" : 110916,
            "type" : "SCALAR"
        },
        {
            "bufferView" : 6,
            "componentType" : 5126,
            "count" : 53,
            "type" : "MAT4"
        },
        {
            "bufferView" : 7,
            "componentType" : 5126,
            "count" : 1691,
            "max" : [
                0.045041441917419434,
                -0.04862620308995247,
                1.6180354356765747
            ],
            "min" : [
                -0.04504144564270973,
                -0.07319726049900055,
                1.5882089138031006
            ],
            "type" : "VEC3"
        },
        {
            "bufferView" : 8,
            "componentType" : 5126,
            "count" : 1691,
            "type" : "VEC2"
        },
        {
            "bufferView" : 9,
            "componentType" : 5126,
            "count" : 1691,
            "type" : "VEC3"
        },
        {
            "bufferView" : 10,
            "componentType" : 5121,
            "count" : 1691,
            "type" : "VEC4"
        },
        {
            "bufferView" : 11,
            "componentType" : 5126,
            "count" : 1691,
            "type" : "VEC4"
        },
        {
            "bufferView" : 12,
            "componentType" : 5123,
            "count" : 6120,
            "type" : "SCALAR"
        },
        {
            "bufferView" : 13,
            "componentType" : 5126,
            "count" : 29226,
            "max" : [
                0.6934414505958557,
                0.21311624348163605,
                1.5223416090011597
            ],
            "min" : [
                -0.7032772302627563,
                -0.1016942635178566,
                0.0669170543551445
            ],
            "type" : "VEC3"
        },
        {
            "bufferView" : 14,
            "componentType" : 5126,
            "count" : 29226,
            "type" : "VEC2"
        },
        {
            "bufferView" : 15,
            "componentType" : 5126,
            "count" : 29226,
            "type" : "VEC3"
        },
        {
            "bufferView" : 16,
            "componentType" : 5121,
            "count" : 29226,
            "type" : "VEC4"
        },
        {
            "bufferView" : 17,
            "componentType" : 5126,
            "count" : 29226,
            "type" : "VEC4"
        },
        {
            "bufferView" : 18,
            "componentType" : 5123,
            "count" : 50016,
            "type" : "SCALAR"
        },
        {
            "bufferView" : 19,
            "componentType" : 5126,
            "count" : 4088,
            "max" : [
                0.18291428685188293,
                0.1296226978302002,
                0.20992109179496765
            ],
            "min" : [
                -0.18291431665420532,
                -0.1364687979221344,
                -0.0034689034800976515
            ],
            "type" : "VEC3"
        },
        {
            "bufferView" : 20,
            "componentType" : 5126,
            "count" : 4088,
            "type" : "VEC2"
        },
        {
            "bufferView" : 21,
            "componentType" : 5126,
            "count" : 4088,
            "type" : "VEC3"
        },
        {
            "bufferView" : 22,
            "componentType" : 5121,
            "count" : 4088,
            "type" : "VEC4"
        },
        {
            "bufferView" : 23,
            "componentType" : 5126,
            "count" : 4088,
            "type" : "VEC4"
        },
        {
            "bufferView" : 24,
            "componentType" : 5123,
            "count" : 9960,
            "type" : "SCALAR"
        },
        {
            "bufferView" : 25,
            "componentType" : 5126,
            "count" : 2797,
            "max" : [
                0.07899467647075653,
                0.13068202137947083,
                1.720638394355774
            ],
            "min" : [
                -0.09508761018514633,
                -0.09961827099323273,
                1.5094926357269287
            ],
            "type" : "VEC3"
        },
        {
            "bufferView" : 26,
            "componentType" : 5126,
            "count" : 2797,
            "type" : "VEC2"
        },
        {
            "bufferView" : 27,
            "componentType" : 5126,
            "count" : 2797,
            "type" : "VEC3"
        },
        {
            "bufferView" : 28,
            "componentType" : 5121,
            "count" : 2797,
            "type" : "VEC4"
        },
        {
            "bufferView" : 29,
            "componentType" : 5126,
            "count" : 2797,
            "type" : "VEC4"
        },
        {
            "bufferView" : 30,
            "componentType" : 5123,
            "count" : 5766,
            "type" : "SCALAR"
        }
    ],
    "bufferViews" : [
        {
            "buffer" : 0,
            "byteLength" : 642132,
            "byteOffset" : 0,
            "target" : 34962
        },
        {
            "buffer" : 0,
            "byteLength" : 428088,
            "byteOffset" : 642132,
            "target" : 34962
        },
        {
            "buffer" : 0,
            "byteLength" : 642132,
            "byteOffset" : 1070220,
            "target" : 34962
        },
        {
            "buffer" : 0,
            "byteLength" : 214044,
            "byteOffset" : 1712352,
            "target" : 34962
        },
        {
            "buffer" : 0,
            "byteLength" : 856176,
            "byteOffset" : 1926396,
            "target" : 34962
        },
        {
            "buffer" : 0,
            "byteLength" : 221832,
            "byteOffset" : 2782572,
            "target" : 34963
        },
        {
            "buffer" : 0,
            "byteLength" : 3392,
            "byteOffset" : 3004404
        },
        {
            "buffer" : 0,
            "byteLength" : 20292,
            "byteOffset" : 3007796,
            "target" : 34962
        },
        {
            "buffer" : 0,
            "byteLength" : 13528,
            "byteOffset" : 3028088,
            "target" : 34962
        },
        {
            "buffer" : 0,
            "byteLength" : 20292,
            "byteOffset" : 3041616,
            "target" : 34962
        },
        {
            "buffer" : 0,
            "byteLength" : 6764,
            "byteOffset" : 3061908,
            "target" : 34962
        },
        {
            "buffer" : 0,
            "byteLength" : 27056,
            "byteOffset" : 3068672,
            "target" : 34962
        },
        {
            "buffer" : 0,
            "byteLength" : 12240,
            "byteOffset" : 3095728,
            "target" : 34963
        },
        {
            "buffer" : 0,
            "byteLength" : 350712,
            "byteOffset" : 3107968,
            "target" : 34962
        },
        {
            "buffer" : 0,
            "byteLength" : 233808,
            "byteOffset" : 3458680,
            "target" : 34962
        },
        {
            "buffer" : 0,
            "byteLength" : 350712,
            "byteOffset" : 3692488,
            "target" : 34962
        },
        {
            "buffer" : 0,
            "byteLength" : 116904,
            "byteOffset" : 4043200,
            "target" : 34962
        },
        {
            "buffer" : 0,
            "byteLength" : 467616,
            "byteOffset" : 4160104,
            "target" : 34962
        },
        {
            "buffer" : 0,
            "byteLength" : 100032,
            "byteOffset" : 4627720,
            "target" : 34963
        },
        {
            "buffer" : 0,
            "byteLength" : 49056,
            "byteOffset" : 4727752,
            "target" : 34962
        },
        {
            "buffer" : 0,
            "byteLength" : 32704,
            "byteOffset" : 4776808,
            "target" : 34962
        },
        {
            "buffer" : 0,
            "byteLength" : 49056,
            "byteOffset" : 4809512,
            "target" : 34962
        },
        {
            "buffer" : 0,
            "byteLength" : 16352,
            "byteOffset" : 4858568,
            "target" : 34962
        },
        {
            "buffer" : 0,
            "byteLength" : 65408,
            "byteOffset" : 4874920,
            "target" : 34962
        },
        {
            "buffer" : 0,
            "byteLength" : 19920,
            "byteOffset" : 4940328,
            "target" : 34963
        },
        {
            "buffer" : 0,
            "byteLength" : 33564,
            "byteOffset" : 4960248,
            "target" : 34962
        },
        {
            "buffer" : 0,
            "byteLength" : 22376,
            "byteOffset" : 4993812,
            "target" : 34962
        },
        {
            "buffer" : 0,
            "byteLength" : 33564,
            "byteOffset" : 5016188,
            "target" : 34962
        },
        {
            "buffer" : 0,
            "byteLength" : 11188,
            "byteOffset" : 5049752,
            "target" : 34962
        },
        {
            "buffer" : 0,
            "byteLength" : 44752,
            "byteOffset" : 5060940,
            "target" : 34962
        },
        {
            "buffer" : 0,
            "byteLength" : 11532,
            "byteOffset" : 5105692,
            "target" : 34963
        }
    ],
    "samplers" : [
        {
            "magFilter" : 9729,
            "minFilter" : 9987
        }
    ],
    "buffers" : [
        {
            "byteLength" : 5117224,
            "uri" : "EditorMainMale.bin"
        }
    ]
}
