# Stylized 3D Djehuti/Thoth ibis head bust
mtllib djehuti_head.mtl
v 0.220000 2.010000 0.000000
v 0.220000 2.010000 0.000000
v 0.220000 2.010000 0.000000
v 0.220000 2.010000 0.000000
v 0.220000 2.010000 0.000000
v 0.220000 2.010000 0.000000
v 0.220000 2.010000 0.000000
v 0.220000 2.010000 0.000000
v 0.220000 2.010000 0.000000
v 0.220000 2.010000 0.000000
v 0.220000 2.010000 0.000000
v 0.220000 2.010000 0.000000
v 0.220000 2.010000 0.000000
v 0.220000 2.010000 0.000000
v 0.220000 2.010000 0.000000
v 0.220000 2.010000 0.000000
v 0.220000 2.010000 0.000000
v 0.220000 2.010000 0.000000
v 0.220000 2.010000 0.000000
v 0.220000 2.010000 0.000000
v 0.220000 2.010000 0.000000
v 0.220000 2.010000 0.000000
v 0.220000 2.010000 0.000000
v 0.220000 2.010000 0.000000
v 0.220000 2.010000 0.000000
v 0.220000 2.010000 0.000000
v 0.220000 2.010000 0.000000
v 0.220000 2.010000 0.000000
v 0.220000 2.010000 0.000000
v 0.220000 2.010000 0.000000
v 0.220000 2.010000 0.000000
v 0.220000 2.010000 0.000000
v 0.220000 2.010000 0.000000
v 0.220000 2.010000 0.000000
v 0.220000 2.010000 0.000000
v 0.220000 2.010000 0.000000
v 0.294669 1.998150 0.000000
v 0.293534 1.998150 0.010855
v 0.290166 1.998150 0.021381
v 0.284665 1.998150 0.031257
v 0.277200 1.998150 0.040183
v 0.267996 1.998150 0.047888
v 0.257334 1.998150 0.054138
v 0.245538 1.998150 0.058743
v 0.232966 1.998150 0.061564
v 0.220000 1.998150 0.062513
v 0.207034 1.998150 0.061564
v 0.194462 1.998150 0.058743
v 0.182666 1.998150 0.054138
v 0.172004 1.998150 0.047888
v 0.162800 1.998150 0.040183
v 0.155335 1.998150 0.031257
v 0.149834 1.998150 0.021381
v 0.146466 1.998150 0.010855
v 0.145331 1.998150 0.000000
v 0.146466 1.998150 -0.010855
v 0.149834 1.998150 -0.021381
v 0.155335 1.998150 -0.031257
v 0.162800 1.998150 -0.040183
v 0.172004 1.998150 -0.047888
v 0.182666 1.998150 -0.054138
v 0.194462 1.998150 -0.058743
v 0.207034 1.998150 -0.061564
v 0.220000 1.998150 -0.062513
v 0.232966 1.998150 -0.061564
v 0.245538 1.998150 -0.058743
v 0.257334 1.998150 -0.054138
v 0.267996 1.998150 -0.047888
v 0.277200 1.998150 -0.040183
v 0.284665 1.998150 -0.031257
v 0.290166 1.998150 -0.021381
v 0.293534 1.998150 -0.010855
v 0.367069 1.962960 0.000000
v 0.364834 1.962960 0.021381
v 0.358199 1.962960 0.042112
v 0.347365 1.962960 0.061564
v 0.332661 1.962960 0.079145
v 0.314534 1.962960 0.094321
v 0.293534 1.962960 0.106631
v 0.270300 1.962960 0.115702
v 0.245538 1.962960 0.121257
v 0.220000 1.962960 0.123127
v 0.194462 1.962960 0.121257
v 0.169700 1.962960 0.115702
v 0.146466 1.962960 0.106631
v 0.125466 1.962960 0.094321
v 0.107339 1.962960 0.079145
v 0.092635 1.962960 0.061564
v 0.081801 1.962960 0.042112
v 0.075166 1.962960 0.021381
v 0.072931 1.962960 0.000000
v 0.075166 1.962960 -0.021381
v 0.081801 1.962960 -0.042112
v 0.092635 1.962960 -0.061564
v 0.107339 1.962960 -0.079145
v 0.125466 1.962960 -0.094321
v 0.146466 1.962960 -0.106631
v 0.169700 1.962960 -0.115702
v 0.194462 1.962960 -0.121257
v 0.220000 1.962960 -0.123127
v 0.245538 1.962960 -0.121257
v 0.270300 1.962960 -0.115702
v 0.293534 1.962960 -0.106631
v 0.314534 1.962960 -0.094321
v 0.332661 1.962960 -0.079145
v 0.347365 1.962960 -0.061564
v 0.358199 1.962960 -0.042112
v 0.364834 1.962960 -0.021381
v 0.435000 1.905500 0.000000
v 0.431734 1.905500 0.031257
v 0.422034 1.905500 0.061564
v 0.406195 1.905500 0.090000
v 0.384700 1.905500 0.115702
v 0.358199 1.905500 0.137888
v 0.327500 1.905500 0.155885
v 0.293534 1.905500 0.169145
v 0.257334 1.905500 0.177265
v 0.220000 1.905500 0.180000
v 0.182666 1.905500 0.177265
v 0.146466 1.905500 0.169145
v 0.112500 1.905500 0.155885
v 0.081801 1.905500 0.137888
v 0.055300 1.905500 0.115702
v 0.033805 1.905500 0.090000
v 0.017966 1.905500 0.061564
v 0.008266 1.905500 0.031257
v 0.005000 1.905500 0.000000
v 0.008266 1.905500 -0.031257
v 0.017966 1.905500 -0.061564
v 0.033805 1.905500 -0.090000
v 0.055300 1.905500 -0.115702
v 0.081801 1.905500 -0.137888
v 0.112500 1.905500 -0.155885
v 0.146466 1.905500 -0.169145
v 0.182666 1.905500 -0.177265
v 0.220000 1.905500 -0.180000
v 0.257334 1.905500 -0.177265
v 0.293534 1.905500 -0.169145
v 0.327500 1.905500 -0.155885
v 0.358199 1.905500 -0.137888
v 0.384700 1.905500 -0.115702
v 0.406195 1.905500 -0.090000
v 0.422034 1.905500 -0.061564
v 0.431734 1.905500 -0.031257
v 0.496399 1.827515 0.000000
v 0.492200 1.827515 0.040183
v 0.479730 1.827515 0.079145
v 0.459368 1.827515 0.115702
v 0.431734 1.827515 0.148743
v 0.397666 1.827515 0.177265
v 0.358199 1.827515 0.200401
v 0.314534 1.827515 0.217448
v 0.267996 1.827515 0.227888
v 0.220000 1.827515 0.231404
v 0.172004 1.827515 0.227888
v 0.125466 1.827515 0.217448
v 0.081801 1.827515 0.200401
v 0.042334 1.827515 0.177265
v 0.008266 1.827515 0.148743
v -0.019368 1.827515 0.115702
v -0.039730 1.827515 0.079145
v -0.052200 1.827515 0.040183
v -0.056399 1.827515 0.000000
v -0.052200 1.827515 -0.040183
v -0.039730 1.827515 -0.079145
v -0.019368 1.827515 -0.115702
v 0.008266 1.827515 -0.148743
v 0.042334 1.827515 -0.177265
v 0.081801 1.827515 -0.200401
v 0.125466 1.827515 -0.217448
v 0.172004 1.827515 -0.227888
v 0.220000 1.827515 -0.231404
v 0.267996 1.827515 -0.227888
v 0.314534 1.827515 -0.217448
v 0.358199 1.827515 -0.200401
v 0.397666 1.827515 -0.177265
v 0.431734 1.827515 -0.148743
v 0.459368 1.827515 -0.115702
v 0.479730 1.827515 -0.079145
v 0.492200 1.827515 -0.040183
v 0.549399 1.731374 0.000000
v 0.544395 1.731374 0.047888
v 0.529534 1.731374 0.094321
v 0.505268 1.731374 0.137888
v 0.472334 1.731374 0.177265
v 0.431734 1.731374 0.211257
v 0.384700 1.731374 0.238829
v 0.332661 1.731374 0.259145
v 0.277200 1.731374 0.271586
v 0.220000 1.731374 0.275776
v 0.162800 1.731374 0.271586
v 0.107339 1.731374 0.259145
v 0.055300 1.731374 0.238829
v 0.008266 1.731374 0.211257
v -0.032334 1.731374 0.177265
v -0.065268 1.731374 0.137888
v -0.089534 1.731374 0.094321
v -0.104395 1.731374 0.047888
v -0.109399 1.731374 0.000000
v -0.104395 1.731374 -0.047888
v -0.089534 1.731374 -0.094321
v -0.065268 1.731374 -0.137888
v -0.032334 1.731374 -0.177265
v 0.008266 1.731374 -0.211257
v 0.055300 1.731374 -0.238829
v 0.107339 1.731374 -0.259145
v 0.162800 1.731374 -0.271586
v 0.220000 1.731374 -0.275776
v 0.277200 1.731374 -0.271586
v 0.332661 1.731374 -0.259145
v 0.384700 1.731374 -0.238829
v 0.431734 1.731374 -0.211257
v 0.472334 1.731374 -0.177265
v 0.505268 1.731374 -0.137888
v 0.529534 1.731374 -0.094321
v 0.544395 1.731374 -0.047888
v 0.592391 1.620000 0.000000
v 0.586733 1.620000 0.054138
v 0.569933 1.620000 0.106631
v 0.542500 1.620000 0.155885
v 0.505268 1.620000 0.200401
v 0.459368 1.620000 0.238829
v 0.406195 1.620000 0.270000
v 0.347365 1.620000 0.292967
v 0.284665 1.620000 0.307033
v 0.220000 1.620000 0.311769
v 0.155335 1.620000 0.307033
v 0.092635 1.620000 0.292967
v 0.033805 1.620000 0.270000
v -0.019368 1.620000 0.238829
v -0.065268 1.620000 0.200401
v -0.102500 1.620000 0.155885
v -0.129933 1.620000 0.106631
v -0.146733 1.620000 0.054138
v -0.152391 1.620000 0.000000
v -0.146733 1.620000 -0.054138
v -0.129933 1.620000 -0.106631
v -0.102500 1.620000 -0.155885
v -0.065268 1.620000 -0.200401
v -0.019368 1.620000 -0.238829
v 0.033805 1.620000 -0.270000
v 0.092635 1.620000 -0.292967
v 0.155335 1.620000 -0.307033
v 0.220000 1.620000 -0.311769
v 0.284665 1.620000 -0.307033
v 0.347365 1.620000 -0.292967
v 0.406195 1.620000 -0.270000
v 0.459368 1.620000 -0.238829
v 0.505268 1.620000 -0.200401
v 0.542500 1.620000 -0.155885
v 0.569933 1.620000 -0.106631
v 0.586733 1.620000 -0.054138
v 0.624068 1.496776 0.000000
v 0.617929 1.496776 0.058743
v 0.599700 1.496776 0.115702
v 0.569933 1.496776 0.169145
v 0.529534 1.496776 0.217448
v 0.479730 1.496776 0.259145
v 0.422034 1.496776 0.292967
v 0.358199 1.496776 0.317888
v 0.290166 1.496776 0.333150
v 0.220000 1.496776 0.338289
v 0.149834 1.496776 0.333150
v 0.081801 1.496776 0.317888
v 0.017966 1.496776 0.292967
v -0.039730 1.496776 0.259145
v -0.089534 1.496776 0.217448
v -0.129933 1.496776 0.169145
v -0.159700 1.496776 0.115702
v -0.177929 1.496776 0.058743
v -0.184068 1.496776 0.000000
v -0.177929 1.496776 -0.058743
v -0.159700 1.496776 -0.115702
v -0.129933 1.496776 -0.169145
v -0.089534 1.496776 -0.217448
v -0.039730 1.496776 -0.259145
v 0.017966 1.496776 -0.292967
v 0.081801 1.496776 -0.317888
v 0.149834 1.496776 -0.333150
v 0.220000 1.496776 -0.338289
v 0.290166 1.496776 -0.333150
v 0.358199 1.496776 -0.317888
v 0.422034 1.496776 -0.292967
v 0.479730 1.496776 -0.259145
v 0.529534 1.496776 -0.217448
v 0.569933 1.496776 -0.169145
v 0.599700 1.496776 -0.115702
v 0.617929 1.496776 -0.058743
v 0.643467 1.365446 0.000000
v 0.637034 1.365446 0.061564
v 0.617929 1.365446 0.121257
v 0.586733 1.365446 0.177265
v 0.544395 1.365446 0.227888
v 0.492200 1.365446 0.271586
v 0.431734 1.365446 0.307033
v 0.364834 1.365446 0.333150
v 0.293534 1.365446 0.349145
v 0.220000 1.365446 0.354531
v 0.146466 1.365446 0.349145
v 0.075166 1.365446 0.333150
v 0.008266 1.365446 0.307033
v -0.052200 1.365446 0.271586
v -0.104395 1.365446 0.227888
v -0.146733 1.365446 0.177265
v -0.177929 1.365446 0.121257
v -0.197034 1.365446 0.061564
v -0.203467 1.365446 0.000000
v -0.197034 1.365446 -0.061564
v -0.177929 1.365446 -0.121257
v -0.146733 1.365446 -0.177265
v -0.104395 1.365446 -0.227888
v -0.052200 1.365446 -0.271586
v 0.008266 1.365446 -0.307033
v 0.075166 1.365446 -0.333150
v 0.146466 1.365446 -0.349145
v 0.220000 1.365446 -0.354531
v 0.293534 1.365446 -0.349145
v 0.364834 1.365446 -0.333150
v 0.431734 1.365446 -0.307033
v 0.492200 1.365446 -0.271586
v 0.544395 1.365446 -0.227888
v 0.586733 1.365446 -0.177265
v 0.617929 1.365446 -0.121257
v 0.637034 1.365446 -0.061564
v 0.650000 1.230000 0.000000
v 0.643467 1.230000 0.062513
v 0.624068 1.230000 0.123127
v 0.592391 1.230000 0.180000
v 0.549399 1.230000 0.231404
v 0.496399 1.230000 0.275776
v 0.435000 1.230000 0.311769
v 0.367069 1.230000 0.338289
v 0.294669 1.230000 0.354531
v 0.220000 1.230000 0.360000
v 0.145331 1.230000 0.354531
v 0.072931 1.230000 0.338289
v 0.005000 1.230000 0.311769
v -0.056399 1.230000 0.275776
v -0.109399 1.230000 0.231404
v -0.152391 1.230000 0.180000
v -0.184068 1.230000 0.123127
v -0.203467 1.230000 0.062513
v -0.210000 1.230000 0.000000
v -0.203467 1.230000 -0.062513
v -0.184068 1.230000 -0.123127
v -0.152391 1.230000 -0.180000
v -0.109399 1.230000 -0.231404
v -0.056399 1.230000 -0.275776
v 0.005000 1.230000 -0.311769
v 0.072931 1.230000 -0.338289
v 0.145331 1.230000 -0.354531
v 0.220000 1.230000 -0.360000
v 0.294669 1.230000 -0.354531
v 0.367069 1.230000 -0.338289
v 0.435000 1.230000 -0.311769
v 0.496399 1.230000 -0.275776
v 0.549399 1.230000 -0.231404
v 0.592391 1.230000 -0.180000
v 0.624068 1.230000 -0.123127
v 0.643467 1.230000 -0.062513
v 0.643467 1.094554 0.000000
v 0.637034 1.094554 0.061564
v 0.617929 1.094554 0.121257
v 0.586733 1.094554 0.177265
v 0.544395 1.094554 0.227888
v 0.492200 1.094554 0.271586
v 0.431734 1.094554 0.307033
v 0.364834 1.094554 0.333150
v 0.293534 1.094554 0.349145
v 0.220000 1.094554 0.354531
v 0.146466 1.094554 0.349145
v 0.075166 1.094554 0.333150
v 0.008266 1.094554 0.307033
v -0.052200 1.094554 0.271586
v -0.104395 1.094554 0.227888
v -0.146733 1.094554 0.177265
v -0.177929 1.094554 0.121257
v -0.197034 1.094554 0.061564
v -0.203467 1.094554 0.000000
v -0.197034 1.094554 -0.061564
v -0.177929 1.094554 -0.121257
v -0.146733 1.094554 -0.177265
v -0.104395 1.094554 -0.227888
v -0.052200 1.094554 -0.271586
v 0.008266 1.094554 -0.307033
v 0.075166 1.094554 -0.333150
v 0.146466 1.094554 -0.349145
v 0.220000 1.094554 -0.354531
v 0.293534 1.094554 -0.349145
v 0.364834 1.094554 -0.333150
v 0.431734 1.094554 -0.307033
v 0.492200 1.094554 -0.271586
v 0.544395 1.094554 -0.227888
v 0.586733 1.094554 -0.177265
v 0.617929 1.094554 -0.121257
v 0.637034 1.094554 -0.061564
v 0.624068 0.963224 0.000000
v 0.617929 0.963224 0.058743
v 0.599700 0.963224 0.115702
v 0.569933 0.963224 0.169145
v 0.529534 0.963224 0.217448
v 0.479730 0.963224 0.259145
v 0.422034 0.963224 0.292967
v 0.358199 0.963224 0.317888
v 0.290166 0.963224 0.333150
v 0.220000 0.963224 0.338289
v 0.149834 0.963224 0.333150
v 0.081801 0.963224 0.317888
v 0.017966 0.963224 0.292967
v -0.039730 0.963224 0.259145
v -0.089534 0.963224 0.217448
v -0.129933 0.963224 0.169145
v -0.159700 0.963224 0.115702
v -0.177929 0.963224 0.058743
v -0.184068 0.963224 0.000000
v -0.177929 0.963224 -0.058743
v -0.159700 0.963224 -0.115702
v -0.129933 0.963224 -0.169145
v -0.089534 0.963224 -0.217448
v -0.039730 0.963224 -0.259145
v 0.017966 0.963224 -0.292967
v 0.081801 0.963224 -0.317888
v 0.149834 0.963224 -0.333150
v 0.220000 0.963224 -0.338289
v 0.290166 0.963224 -0.333150
v 0.358199 0.963224 -0.317888
v 0.422034 0.963224 -0.292967
v 0.479730 0.963224 -0.259145
v 0.529534 0.963224 -0.217448
v 0.569933 0.963224 -0.169145
v 0.599700 0.963224 -0.115702
v 0.617929 0.963224 -0.058743
v 0.592391 0.840000 0.000000
v 0.586733 0.840000 0.054138
v 0.569933 0.840000 0.106631
v 0.542500 0.840000 0.155885
v 0.505268 0.840000 0.200401
v 0.459368 0.840000 0.238829
v 0.406195 0.840000 0.270000
v 0.347365 0.840000 0.292967
v 0.284665 0.840000 0.307033
v 0.220000 0.840000 0.311769
v 0.155335 0.840000 0.307033
v 0.092635 0.840000 0.292967
v 0.033805 0.840000 0.270000
v -0.019368 0.840000 0.238829
v -0.065268 0.840000 0.200401
v -0.102500 0.840000 0.155885
v -0.129933 0.840000 0.106631
v -0.146733 0.840000 0.054138
v -0.152391 0.840000 0.000000
v -0.146733 0.840000 -0.054138
v -0.129933 0.840000 -0.106631
v -0.102500 0.840000 -0.155885
v -0.065268 0.840000 -0.200401
v -0.019368 0.840000 -0.238829
v 0.033805 0.840000 -0.270000
v 0.092635 0.840000 -0.292967
v 0.155335 0.840000 -0.307033
v 0.220000 0.840000 -0.311769
v 0.284665 0.840000 -0.307033
v 0.347365 0.840000 -0.292967
v 0.406195 0.840000 -0.270000
v 0.459368 0.840000 -0.238829
v 0.505268 0.840000 -0.200401
v 0.542500 0.840000 -0.155885
v 0.569933 0.840000 -0.106631
v 0.586733 0.840000 -0.054138
v 0.549399 0.728626 0.000000
v 0.544395 0.728626 0.047888
v 0.529534 0.728626 0.094321
v 0.505268 0.728626 0.137888
v 0.472334 0.728626 0.177265
v 0.431734 0.728626 0.211257
v 0.384700 0.728626 0.238829
v 0.332661 0.728626 0.259145
v 0.277200 0.728626 0.271586
v 0.220000 0.728626 0.275776
v 0.162800 0.728626 0.271586
v 0.107339 0.728626 0.259145
v 0.055300 0.728626 0.238829
v 0.008266 0.728626 0.211257
v -0.032334 0.728626 0.177265
v -0.065268 0.728626 0.137888
v -0.089534 0.728626 0.094321
v -0.104395 0.728626 0.047888
v -0.109399 0.728626 0.000000
v -0.104395 0.728626 -0.047888
v -0.089534 0.728626 -0.094321
v -0.065268 0.728626 -0.137888
v -0.032334 0.728626 -0.177265
v 0.008266 0.728626 -0.211257
v 0.055300 0.728626 -0.238829
v 0.107339 0.728626 -0.259145
v 0.162800 0.728626 -0.271586
v 0.220000 0.728626 -0.275776
v 0.277200 0.728626 -0.271586
v 0.332661 0.728626 -0.259145
v 0.384700 0.728626 -0.238829
v 0.431734 0.728626 -0.211257
v 0.472334 0.728626 -0.177265
v 0.505268 0.728626 -0.137888
v 0.529534 0.728626 -0.094321
v 0.544395 0.728626 -0.047888
v 0.496399 0.632485 0.000000
v 0.492200 0.632485 0.040183
v 0.479730 0.632485 0.079145
v 0.459368 0.632485 0.115702
v 0.431734 0.632485 0.148743
v 0.397666 0.632485 0.177265
v 0.358199 0.632485 0.200401
v 0.314534 0.632485 0.217448
v 0.267996 0.632485 0.227888
v 0.220000 0.632485 0.231404
v 0.172004 0.632485 0.227888
v 0.125466 0.632485 0.217448
v 0.081801 0.632485 0.200401
v 0.042334 0.632485 0.177265
v 0.008266 0.632485 0.148743
v -0.019368 0.632485 0.115702
v -0.039730 0.632485 0.079145
v -0.052200 0.632485 0.040183
v -0.056399 0.632485 0.000000
v -0.052200 0.632485 -0.040183
v -0.039730 0.632485 -0.079145
v -0.019368 0.632485 -0.115702
v 0.008266 0.632485 -0.148743
v 0.042334 0.632485 -0.177265
v 0.081801 0.632485 -0.200401
v 0.125466 0.632485 -0.217448
v 0.172004 0.632485 -0.227888
v 0.220000 0.632485 -0.231404
v 0.267996 0.632485 -0.227888
v 0.314534 0.632485 -0.217448
v 0.358199 0.632485 -0.200401
v 0.397666 0.632485 -0.177265
v 0.431734 0.632485 -0.148743
v 0.459368 0.632485 -0.115702
v 0.479730 0.632485 -0.079145
v 0.492200 0.632485 -0.040183
v 0.435000 0.554500 0.000000
v 0.431734 0.554500 0.031257
v 0.422034 0.554500 0.061564
v 0.406195 0.554500 0.090000
v 0.384700 0.554500 0.115702
v 0.358199 0.554500 0.137888
v 0.327500 0.554500 0.155885
v 0.293534 0.554500 0.169145
v 0.257334 0.554500 0.177265
v 0.220000 0.554500 0.180000
v 0.182666 0.554500 0.177265
v 0.146466 0.554500 0.169145
v 0.112500 0.554500 0.155885
v 0.081801 0.554500 0.137888
v 0.055300 0.554500 0.115702
v 0.033805 0.554500 0.090000
v 0.017966 0.554500 0.061564
v 0.008266 0.554500 0.031257
v 0.005000 0.554500 0.000000
v 0.008266 0.554500 -0.031257
v 0.017966 0.554500 -0.061564
v 0.033805 0.554500 -0.090000
v 0.055300 0.554500 -0.115702
v 0.081801 0.554500 -0.137888
v 0.112500 0.554500 -0.155885
v 0.146466 0.554500 -0.169145
v 0.182666 0.554500 -0.177265
v 0.220000 0.554500 -0.180000
v 0.257334 0.554500 -0.177265
v 0.293534 0.554500 -0.169145
v 0.327500 0.554500 -0.155885
v 0.358199 0.554500 -0.137888
v 0.384700 0.554500 -0.115702
v 0.406195 0.554500 -0.090000
v 0.422034 0.554500 -0.061564
v 0.431734 0.554500 -0.031257
v 0.367069 0.497040 0.000000
v 0.364834 0.497040 0.021381
v 0.358199 0.497040 0.042112
v 0.347365 0.497040 0.061564
v 0.332661 0.497040 0.079145
v 0.314534 0.497040 0.094321
v 0.293534 0.497040 0.106631
v 0.270300 0.497040 0.115702
v 0.245538 0.497040 0.121257
v 0.220000 0.497040 0.123127
v 0.194462 0.497040 0.121257
v 0.169700 0.497040 0.115702
v 0.146466 0.497040 0.106631
v 0.125466 0.497040 0.094321
v 0.107339 0.497040 0.079145
v 0.092635 0.497040 0.061564
v 0.081801 0.497040 0.042112
v 0.075166 0.497040 0.021381
v 0.072931 0.497040 0.000000
v 0.075166 0.497040 -0.021381
v 0.081801 0.497040 -0.042112
v 0.092635 0.497040 -0.061564
v 0.107339 0.497040 -0.079145
v 0.125466 0.497040 -0.094321
v 0.146466 0.497040 -0.106631
v 0.169700 0.497040 -0.115702
v 0.194462 0.497040 -0.121257
v 0.220000 0.497040 -0.123127
v 0.245538 0.497040 -0.121257
v 0.270300 0.497040 -0.115702
v 0.293534 0.497040 -0.106631
v 0.314534 0.497040 -0.094321
v 0.332661 0.497040 -0.079145
v 0.347365 0.497040 -0.061564
v 0.358199 0.497040 -0.042112
v 0.364834 0.497040 -0.021381
v 0.294669 0.461850 0.000000
v 0.293534 0.461850 0.010855
v 0.290166 0.461850 0.021381
v 0.284665 0.461850 0.031257
v 0.277200 0.461850 0.040183
v 0.267996 0.461850 0.047888
v 0.257334 0.461850 0.054138
v 0.245538 0.461850 0.058743
v 0.232966 0.461850 0.061564
v 0.220000 0.461850 0.062513
v 0.207034 0.461850 0.061564
v 0.194462 0.461850 0.058743
v 0.182666 0.461850 0.054138
v 0.172004 0.461850 0.047888
v 0.162800 0.461850 0.040183
v 0.155335 0.461850 0.031257
v 0.149834 0.461850 0.021381
v 0.146466 0.461850 0.010855
v 0.145331 0.461850 0.000000
v 0.146466 0.461850 -0.010855
v 0.149834 0.461850 -0.021381
v 0.155335 0.461850 -0.031257
v 0.162800 0.461850 -0.040183
v 0.172004 0.461850 -0.047888
v 0.182666 0.461850 -0.054138
v 0.194462 0.461850 -0.058743
v 0.207034 0.461850 -0.061564
v 0.220000 0.461850 -0.062513
v 0.232966 0.461850 -0.061564
v 0.245538 0.461850 -0.058743
v 0.257334 0.461850 -0.054138
v 0.267996 0.461850 -0.047888
v 0.277200 0.461850 -0.040183
v 0.284665 0.461850 -0.031257
v 0.290166 0.461850 -0.021381
v 0.293534 0.461850 -0.010855
v 0.220000 0.450000 0.000000
v 0.220000 0.450000 0.000000
v 0.220000 0.450000 0.000000
v 0.220000 0.450000 0.000000
v 0.220000 0.450000 0.000000
v 0.220000 0.450000 0.000000
v 0.220000 0.450000 0.000000
v 0.220000 0.450000 0.000000
v 0.220000 0.450000 0.000000
v 0.220000 0.450000 0.000000
v 0.220000 0.450000 0.000000
v 0.220000 0.450000 0.000000
v 0.220000 0.450000 0.000000
v 0.220000 0.450000 0.000000
v 0.220000 0.450000 0.000000
v 0.220000 0.450000 0.000000
v 0.220000 0.450000 0.000000
v 0.220000 0.450000 0.000000
v 0.220000 0.450000 0.000000
v 0.220000 0.450000 -0.000000
v 0.220000 0.450000 -0.000000
v 0.220000 0.450000 -0.000000
v 0.220000 0.450000 -0.000000
v 0.220000 0.450000 -0.000000
v 0.220000 0.450000 -0.000000
v 0.220000 0.450000 -0.000000
v 0.220000 0.450000 -0.000000
v 0.220000 0.450000 -0.000000
v 0.220000 0.450000 -0.000000
v 0.220000 0.450000 -0.000000
v 0.220000 0.450000 -0.000000
v 0.220000 0.450000 -0.000000
v 0.220000 0.450000 -0.000000
v 0.220000 0.450000 -0.000000
v 0.220000 0.450000 -0.000000
v 0.220000 0.450000 -0.000000
v -0.110000 0.340000 -0.295000
v 0.070000 0.340000 -0.295000
v 0.070000 1.120000 -0.295000
v -0.110000 1.120000 -0.295000
v -0.110000 0.340000 -0.185000
v 0.070000 0.340000 -0.185000
v 0.070000 1.120000 -0.185000
v -0.110000 1.120000 -0.185000
v -0.110000 0.340000 0.185000
v 0.070000 0.340000 0.185000
v 0.070000 1.120000 0.185000
v -0.110000 1.120000 0.185000
v -0.110000 0.340000 0.295000
v 0.070000 0.340000 0.295000
v 0.070000 1.120000 0.295000
v -0.110000 1.120000 0.295000
v -0.180000 1.950000 0.000000
v -0.180000 1.950000 0.000000
v -0.180000 1.950000 0.000000
v -0.180000 1.950000 0.000000
v -0.180000 1.950000 0.000000
v -0.180000 1.950000 0.000000
v -0.180000 1.950000 0.000000
v -0.180000 1.950000 0.000000
v -0.180000 1.950000 0.000000
v -0.180000 1.950000 0.000000
v -0.180000 1.950000 0.000000
v -0.180000 1.950000 0.000000
v -0.180000 1.950000 0.000000
v -0.180000 1.950000 0.000000
v -0.180000 1.950000 0.000000
v -0.180000 1.950000 0.000000
v -0.180000 1.950000 0.000000
v -0.180000 1.950000 0.000000
v -0.180000 1.950000 0.000000
v -0.180000 1.950000 0.000000
v -0.180000 1.950000 0.000000
v -0.180000 1.950000 0.000000
v -0.180000 1.950000 0.000000
v -0.180000 1.950000 0.000000
v -0.180000 1.950000 0.000000
v -0.180000 1.950000 0.000000
v -0.180000 1.950000 0.000000
v -0.180000 1.950000 0.000000
v -0.180000 1.950000 0.000000
v -0.180000 1.950000 0.000000
v -0.180000 1.950000 0.000000
v -0.180000 1.950000 0.000000
v -0.125375 1.943659 0.000000
v -0.126424 1.943659 0.008754
v -0.129533 1.943659 0.017171
v -0.134581 1.943659 0.024929
v -0.141374 1.943659 0.031728
v -0.149652 1.943659 0.037309
v -0.159096 1.943659 0.041455
v -0.169343 1.943659 0.044009
v -0.180000 1.943659 0.044871
v -0.190657 1.943659 0.044009
v -0.200904 1.943659 0.041455
v -0.210348 1.943659 0.037309
v -0.218626 1.943659 0.031728
v -0.225419 1.943659 0.024929
v -0.230467 1.943659 0.017171
v -0.233576 1.943659 0.008754
v -0.234625 1.943659 0.000000
v -0.233576 1.943659 -0.008754
v -0.230467 1.943659 -0.017171
v -0.225419 1.943659 -0.024929
v -0.218626 1.943659 -0.031728
v -0.210348 1.943659 -0.037309
v -0.200904 1.943659 -0.041455
v -0.190657 1.943659 -0.044009
v -0.180000 1.943659 -0.044871
v -0.169343 1.943659 -0.044009
v -0.159096 1.943659 -0.041455
v -0.149652 1.943659 -0.037309
v -0.141374 1.943659 -0.031728
v -0.134581 1.943659 -0.024929
v -0.129533 1.943659 -0.017171
v -0.126424 1.943659 -0.008754
v -0.072849 1.924880 0.000000
v -0.074908 1.924880 0.017171
v -0.081005 1.924880 0.033683
v -0.090907 1.924880 0.048900
v -0.104233 1.924880 0.062238
v -0.120470 1.924880 0.073184
v -0.138995 1.924880 0.081317
v -0.159096 1.924880 0.086326
v -0.180000 1.924880 0.088017
v -0.200904 1.924880 0.086326
v -0.221005 1.924880 0.081317
v -0.239530 1.924880 0.073184
v -0.255767 1.924880 0.062238
v -0.269093 1.924880 0.048900
v -0.278995 1.924880 0.033683
v -0.285092 1.924880 0.017171
v -0.287151 1.924880 0.000000
v -0.285092 1.924880 -0.017171
v -0.278995 1.924880 -0.033683
v -0.269093 1.924880 -0.048900
v -0.255767 1.924880 -0.062238
v -0.239530 1.924880 -0.073184
v -0.221005 1.924880 -0.081317
v -0.200904 1.924880 -0.086326
v -0.180000 1.924880 -0.088017
v -0.159096 1.924880 -0.086326
v -0.138995 1.924880 -0.081317
v -0.120470 1.924880 -0.073184
v -0.104233 1.924880 -0.062238
v -0.090907 1.924880 -0.048900
v -0.081005 1.924880 -0.033683
v -0.074908 1.924880 -0.017171
v -0.024440 1.894385 0.000000
v -0.027429 1.894385 0.024929
v -0.036282 1.894385 0.048900
v -0.050657 1.894385 0.070991
v -0.070003 1.894385 0.090355
v -0.093576 1.894385 0.106246
v -0.120470 1.894385 0.118054
v -0.149652 1.894385 0.125326
v -0.180000 1.894385 0.127781
v -0.210348 1.894385 0.125326
v -0.239530 1.894385 0.118054
v -0.266424 1.894385 0.106246
v -0.289997 1.894385 0.090355
v -0.309343 1.894385 0.070991
v -0.323718 1.894385 0.048900
v -0.332571 1.894385 0.024929
v -0.335560 1.894385 0.000000
v -0.332571 1.894385 -0.024929
v -0.323718 1.894385 -0.048900
v -0.309343 1.894385 -0.070991
v -0.289997 1.894385 -0.090355
v -0.266424 1.894385 -0.106246
v -0.239530 1.894385 -0.118054
v -0.210348 1.894385 -0.125326
v -0.180000 1.894385 -0.127781
v -0.149652 1.894385 -0.125326
v -0.120470 1.894385 -0.118054
v -0.093576 1.894385 -0.106246
v -0.070003 1.894385 -0.090355
v -0.050657 1.894385 -0.070991
v -0.036282 1.894385 -0.048900
v -0.027429 1.894385 -0.024929
v 0.017990 1.853345 0.000000
v 0.014186 1.853345 0.031728
v 0.002919 1.853345 0.062238
v -0.015377 1.853345 0.090355
v -0.040000 1.853345 0.115000
v -0.070003 1.853345 0.135226
v -0.104233 1.853345 0.150255
v -0.141374 1.853345 0.159510
v -0.180000 1.853345 0.162635
v -0.218626 1.853345 0.159510
v -0.255767 1.853345 0.150255
v -0.289997 1.853345 0.135226
v -0.320000 1.853345 0.115000
v -0.344623 1.853345 0.090355
v -0.362919 1.853345 0.062238
v -0.374186 1.853345 0.031728
v -0.377990 1.853345 0.000000
v -0.374186 1.853345 -0.031728
v -0.362919 1.853345 -0.062238
v -0.344623 1.853345 -0.090355
v -0.320000 1.853345 -0.115000
v -0.289997 1.853345 -0.135226
v -0.255767 1.853345 -0.150255
v -0.218626 1.853345 -0.159510
v -0.180000 1.853345 -0.162635
v -0.141374 1.853345 -0.159510
v -0.104233 1.853345 -0.150255
v -0.070003 1.853345 -0.135226
v -0.040000 1.853345 -0.115000
v -0.015377 1.853345 -0.090355
v 0.002919 1.853345 -0.062238
v 0.014186 1.853345 -0.031728
v 0.052811 1.803338 0.000000
v 0.048338 1.803338 0.037309
v 0.035090 1.803338 0.073184
v 0.013576 1.803338 0.106246
v -0.015377 1.803338 0.135226
v -0.050657 1.803338 0.159009
v -0.090907 1.803338 0.176681
v -0.134581 1.803338 0.187563
v -0.180000 1.803338 0.191238
v -0.225419 1.803338 0.187563
v -0.269093 1.803338 0.176681
v -0.309343 1.803338 0.159009
v -0.344623 1.803338 0.135226
v -0.373576 1.803338 0.106246
v -0.395090 1.803338 0.073184
v -0.408338 1.803338 0.037309
v -0.412811 1.803338 0.000000
v -0.408338 1.803338 -0.037309
v -0.395090 1.803338 -0.073184
v -0.373576 1.803338 -0.106246
v -0.344623 1.803338 -0.135226
v -0.309343 1.803338 -0.159009
v -0.269093 1.803338 -0.176681
v -0.225419 1.803338 -0.187563
v -0.180000 1.803338 -0.191238
v -0.134581 1.803338 -0.187563
v -0.090907 1.803338 -0.176681
v -0.050657 1.803338 -0.159009
v -0.015377 1.803338 -0.135226
v 0.013576 1.803338 -0.106246
v 0.035090 1.803338 -0.073184
v 0.048338 1.803338 -0.037309
v 0.078686 1.746286 0.000000
v 0.073716 1.746286 0.041455
v 0.058995 1.746286 0.081317
v 0.035090 1.746286 0.118054
v 0.002919 1.746286 0.150255
v -0.036282 1.746286 0.176681
v -0.081005 1.746286 0.196317
v -0.129533 1.746286 0.208409
v -0.180000 1.746286 0.212492
v -0.230467 1.746286 0.208409
v -0.278995 1.746286 0.196317
v -0.323718 1.746286 0.176681
v -0.362919 1.746286 0.150255
v -0.395090 1.746286 0.118054
v -0.418995 1.746286 0.081317
v -0.433716 1.746286 0.041455
v -0.438686 1.746286 0.000000
v -0.433716 1.746286 -0.041455
v -0.418995 1.746286 -0.081317
v -0.395090 1.746286 -0.118054
v -0.362919 1.746286 -0.150255
v -0.323718 1.746286 -0.176681
v -0.278995 1.746286 -0.196317
v -0.230467 1.746286 -0.208409
v -0.180000 1.746286 -0.212492
v -0.129533 1.746286 -0.208409
v -0.081005 1.746286 -0.196317
v -0.036282 1.746286 -0.176681
v 0.002919 1.746286 -0.150255
v 0.035090 1.746286 -0.118054
v 0.058995 1.746286 -0.081317
v 0.073716 1.746286 -0.041455
v 0.094620 1.684380 0.000000
v 0.089343 1.684380 0.044009
v 0.073716 1.684380 0.086326
v 0.048338 1.684380 0.125326
v 0.014186 1.684380 0.159510
v -0.027429 1.684380 0.187563
v -0.074908 1.684380 0.208409
v -0.126424 1.684380 0.221246
v -0.180000 1.684380 0.225581
v -0.233576 1.684380 0.221246
v -0.285092 1.684380 0.208409
v -0.332571 1.684380 0.187563
v -0.374186 1.684380 0.159510
v -0.408338 1.684380 0.125326
v -0.433716 1.684380 0.086326
v -0.449343 1.684380 0.044009
v -0.454620 1.684380 0.000000
v -0.449343 1.684380 -0.044009
v -0.433716 1.684380 -0.086326
v -0.408338 1.684380 -0.125326
v -0.374186 1.684380 -0.159510
v -0.332571 1.684380 -0.187563
v -0.285092 1.684380 -0.208409
v -0.233576 1.684380 -0.221246
v -0.180000 1.684380 -0.225581
v -0.126424 1.684380 -0.221246
v -0.074908 1.684380 -0.208409
v -0.027429 1.684380 -0.187563
v 0.014186 1.684380 -0.159510
v 0.048338 1.684380 -0.125326
v 0.073716 1.684380 -0.086326
v 0.089343 1.684380 -0.044009
v 0.100000 1.620000 0.000000
v 0.094620 1.620000 0.044871
v 0.078686 1.620000 0.088017
v 0.052811 1.620000 0.127781
v 0.017990 1.620000 0.162635
v -0.024440 1.620000 0.191238
v -0.072849 1.620000 0.212492
v -0.125375 1.620000 0.225581
v -0.180000 1.620000 0.230000
v -0.234625 1.620000 0.225581
v -0.287151 1.620000 0.212492
v -0.335560 1.620000 0.191238
v -0.377990 1.620000 0.162635
v -0.412811 1.620000 0.127781
v -0.438686 1.620000 0.088017
v -0.454620 1.620000 0.044871
v -0.460000 1.620000 0.000000
v -0.454620 1.620000 -0.044871
v -0.438686 1.620000 -0.088017
v -0.412811 1.620000 -0.127781
v -0.377990 1.620000 -0.162635
v -0.335560 1.620000 -0.191238
v -0.287151 1.620000 -0.212492
v -0.234625 1.620000 -0.225581
v -0.180000 1.620000 -0.230000
v -0.125375 1.620000 -0.225581
v -0.072849 1.620000 -0.212492
v -0.024440 1.620000 -0.191238
v 0.017990 1.620000 -0.162635
v 0.052811 1.620000 -0.127781
v 0.078686 1.620000 -0.088017
v 0.094620 1.620000 -0.044871
v 0.094620 1.555620 0.000000
v 0.089343 1.555620 0.044009
v 0.073716 1.555620 0.086326
v 0.048338 1.555620 0.125326
v 0.014186 1.555620 0.159510
v -0.027429 1.555620 0.187563
v -0.074908 1.555620 0.208409
v -0.126424 1.555620 0.221246
v -0.180000 1.555620 0.225581
v -0.233576 1.555620 0.221246
v -0.285092 1.555620 0.208409
v -0.332571 1.555620 0.187563
v -0.374186 1.555620 0.159510
v -0.408338 1.555620 0.125326
v -0.433716 1.555620 0.086326
v -0.449343 1.555620 0.044009
v -0.454620 1.555620 0.000000
v -0.449343 1.555620 -0.044009
v -0.433716 1.555620 -0.086326
v -0.408338 1.555620 -0.125326
v -0.374186 1.555620 -0.159510
v -0.332571 1.555620 -0.187563
v -0.285092 1.555620 -0.208409
v -0.233576 1.555620 -0.221246
v -0.180000 1.555620 -0.225581
v -0.126424 1.555620 -0.221246
v -0.074908 1.555620 -0.208409
v -0.027429 1.555620 -0.187563
v 0.014186 1.555620 -0.159510
v 0.048338 1.555620 -0.125326
v 0.073716 1.555620 -0.086326
v 0.089343 1.555620 -0.044009
v 0.078686 1.493714 0.000000
v 0.073716 1.493714 0.041455
v 0.058995 1.493714 0.081317
v 0.035090 1.493714 0.118054
v 0.002919 1.493714 0.150255
v -0.036282 1.493714 0.176681
v -0.081005 1.493714 0.196317
v -0.129533 1.493714 0.208409
v -0.180000 1.493714 0.212492
v -0.230467 1.493714 0.208409
v -0.278995 1.493714 0.196317
v -0.323718 1.493714 0.176681
v -0.362919 1.493714 0.150255
v -0.395090 1.493714 0.118054
v -0.418995 1.493714 0.081317
v -0.433716 1.493714 0.041455
v -0.438686 1.493714 0.000000
v -0.433716 1.493714 -0.041455
v -0.418995 1.493714 -0.081317
v -0.395090 1.493714 -0.118054
v -0.362919 1.493714 -0.150255
v -0.323718 1.493714 -0.176681
v -0.278995 1.493714 -0.196317
v -0.230467 1.493714 -0.208409
v -0.180000 1.493714 -0.212492
v -0.129533 1.493714 -0.208409
v -0.081005 1.493714 -0.196317
v -0.036282 1.493714 -0.176681
v 0.002919 1.493714 -0.150255
v 0.035090 1.493714 -0.118054
v 0.058995 1.493714 -0.081317
v 0.073716 1.493714 -0.041455
v 0.052811 1.436662 0.000000
v 0.048338 1.436662 0.037309
v 0.035090 1.436662 0.073184
v 0.013576 1.436662 0.106246
v -0.015377 1.436662 0.135226
v -0.050657 1.436662 0.159009
v -0.090907 1.436662 0.176681
v -0.134581 1.436662 0.187563
v -0.180000 1.436662 0.191238
v -0.225419 1.436662 0.187563
v -0.269093 1.436662 0.176681
v -0.309343 1.436662 0.159009
v -0.344623 1.436662 0.135226
v -0.373576 1.436662 0.106246
v -0.395090 1.436662 0.073184
v -0.408338 1.436662 0.037309
v -0.412811 1.436662 0.000000
v -0.408338 1.436662 -0.037309
v -0.395090 1.436662 -0.073184
v -0.373576 1.436662 -0.106246
v -0.344623 1.436662 -0.135226
v -0.309343 1.436662 -0.159009
v -0.269093 1.436662 -0.176681
v -0.225419 1.436662 -0.187563
v -0.180000 1.436662 -0.191238
v -0.134581 1.436662 -0.187563
v -0.090907 1.436662 -0.176681
v -0.050657 1.436662 -0.159009
v -0.015377 1.436662 -0.135226
v 0.013576 1.436662 -0.106246
v 0.035090 1.436662 -0.073184
v 0.048338 1.436662 -0.037309
v 0.017990 1.386655 0.000000
v 0.014186 1.386655 0.031728
v 0.002919 1.386655 0.062238
v -0.015377 1.386655 0.090355
v -0.040000 1.386655 0.115000
v -0.070003 1.386655 0.135226
v -0.104233 1.386655 0.150255
v -0.141374 1.386655 0.159510
v -0.180000 1.386655 0.162635
v -0.218626 1.386655 0.159510
v -0.255767 1.386655 0.150255
v -0.289997 1.386655 0.135226
v -0.320000 1.386655 0.115000
v -0.344623 1.386655 0.090355
v -0.362919 1.386655 0.062238
v -0.374186 1.386655 0.031728
v -0.377990 1.386655 0.000000
v -0.374186 1.386655 -0.031728
v -0.362919 1.386655 -0.062238
v -0.344623 1.386655 -0.090355
v -0.320000 1.386655 -0.115000
v -0.289997 1.386655 -0.135226
v -0.255767 1.386655 -0.150255
v -0.218626 1.386655 -0.159510
v -0.180000 1.386655 -0.162635
v -0.141374 1.386655 -0.159510
v -0.104233 1.386655 -0.150255
v -0.070003 1.386655 -0.135226
v -0.040000 1.386655 -0.115000
v -0.015377 1.386655 -0.090355
v 0.002919 1.386655 -0.062238
v 0.014186 1.386655 -0.031728
v -0.024440 1.345615 0.000000
v -0.027429 1.345615 0.024929
v -0.036282 1.345615 0.048900
v -0.050657 1.345615 0.070991
v -0.070003 1.345615 0.090355
v -0.093576 1.345615 0.106246
v -0.120470 1.345615 0.118054
v -0.149652 1.345615 0.125326
v -0.180000 1.345615 0.127781
v -0.210348 1.345615 0.125326
v -0.239530 1.345615 0.118054
v -0.266424 1.345615 0.106246
v -0.289997 1.345615 0.090355
v -0.309343 1.345615 0.070991
v -0.323718 1.345615 0.048900
v -0.332571 1.345615 0.024929
v -0.335560 1.345615 0.000000
v -0.332571 1.345615 -0.024929
v -0.323718 1.345615 -0.048900
v -0.309343 1.345615 -0.070991
v -0.289997 1.345615 -0.090355
v -0.266424 1.345615 -0.106246
v -0.239530 1.345615 -0.118054
v -0.210348 1.345615 -0.125326
v -0.180000 1.345615 -0.127781
v -0.149652 1.345615 -0.125326
v -0.120470 1.345615 -0.118054
v -0.093576 1.345615 -0.106246
v -0.070003 1.345615 -0.090355
v -0.050657 1.345615 -0.070991
v -0.036282 1.345615 -0.048900
v -0.027429 1.345615 -0.024929
v -0.072849 1.315120 0.000000
v -0.074908 1.315120 0.017171
v -0.081005 1.315120 0.033683
v -0.090907 1.315120 0.048900
v -0.104233 1.315120 0.062238
v -0.120470 1.315120 0.073184
v -0.138995 1.315120 0.081317
v -0.159096 1.315120 0.086326
v -0.180000 1.315120 0.088017
v -0.200904 1.315120 0.086326
v -0.221005 1.315120 0.081317
v -0.239530 1.315120 0.073184
v -0.255767 1.315120 0.062238
v -0.269093 1.315120 0.048900
v -0.278995 1.315120 0.033683
v -0.285092 1.315120 0.017171
v -0.287151 1.315120 0.000000
v -0.285092 1.315120 -0.017171
v -0.278995 1.315120 -0.033683
v -0.269093 1.315120 -0.048900
v -0.255767 1.315120 -0.062238
v -0.239530 1.315120 -0.073184
v -0.221005 1.315120 -0.081317
v -0.200904 1.315120 -0.086326
v -0.180000 1.315120 -0.088017
v -0.159096 1.315120 -0.086326
v -0.138995 1.315120 -0.081317
v -0.120470 1.315120 -0.073184
v -0.104233 1.315120 -0.062238
v -0.090907 1.315120 -0.048900
v -0.081005 1.315120 -0.033683
v -0.074908 1.315120 -0.017171
v -0.125375 1.296341 0.000000
v -0.126424 1.296341 0.008754
v -0.129533 1.296341 0.017171
v -0.134581 1.296341 0.024929
v -0.141374 1.296341 0.031728
v -0.149652 1.296341 0.037309
v -0.159096 1.296341 0.041455
v -0.169343 1.296341 0.044009
v -0.180000 1.296341 0.044871
v -0.190657 1.296341 0.044009
v -0.200904 1.296341 0.041455
v -0.210348 1.296341 0.037309
v -0.218626 1.296341 0.031728
v -0.225419 1.296341 0.024929
v -0.230467 1.296341 0.017171
v -0.233576 1.296341 0.008754
v -0.234625 1.296341 0.000000
v -0.233576 1.296341 -0.008754
v -0.230467 1.296341 -0.017171
v -0.225419 1.296341 -0.024929
v -0.218626 1.296341 -0.031728
v -0.210348 1.296341 -0.037309
v -0.200904 1.296341 -0.041455
v -0.190657 1.296341 -0.044009
v -0.180000 1.296341 -0.044871
v -0.169343 1.296341 -0.044009
v -0.159096 1.296341 -0.041455
v -0.149652 1.296341 -0.037309
v -0.141374 1.296341 -0.031728
v -0.134581 1.296341 -0.024929
v -0.129533 1.296341 -0.017171
v -0.126424 1.296341 -0.008754
v -0.180000 1.290000 0.000000
v -0.180000 1.290000 0.000000
v -0.180000 1.290000 0.000000
v -0.180000 1.290000 0.000000
v -0.180000 1.290000 0.000000
v -0.180000 1.290000 0.000000
v -0.180000 1.290000 0.000000
v -0.180000 1.290000 0.000000
v -0.180000 1.290000 0.000000
v -0.180000 1.290000 0.000000
v -0.180000 1.290000 0.000000
v -0.180000 1.290000 0.000000
v -0.180000 1.290000 0.000000
v -0.180000 1.290000 0.000000
v -0.180000 1.290000 0.000000
v -0.180000 1.290000 0.000000
v -0.180000 1.290000 0.000000
v -0.180000 1.290000 -0.000000
v -0.180000 1.290000 -0.000000
v -0.180000 1.290000 -0.000000
v -0.180000 1.290000 -0.000000
v -0.180000 1.290000 -0.000000
v -0.180000 1.290000 -0.000000
v -0.180000 1.290000 -0.000000
v -0.180000 1.290000 -0.000000
v -0.180000 1.290000 -0.000000
v -0.180000 1.290000 -0.000000
v -0.180000 1.290000 -0.000000
v -0.180000 1.290000 -0.000000
v -0.180000 1.290000 -0.000000
v -0.180000 1.290000 -0.000000
v -0.180000 1.290000 -0.000000
v 0.120000 0.550000 0.000000
v 0.116239 0.550000 0.031153
v 0.105145 0.550000 0.060744
v 0.087275 0.550000 0.087289
v 0.063523 0.550000 0.109456
v 0.035083 0.550000 0.126136
v 0.003378 0.550000 0.136490
v -0.030000 0.550000 0.140000
v -0.063378 0.550000 0.136490
v -0.095083 0.550000 0.126136
v -0.123523 0.550000 0.109456
v -0.147275 0.550000 0.087289
v -0.165145 0.550000 0.060744
v -0.176239 0.550000 0.031153
v -0.180000 0.550000 0.000000
v -0.176239 0.550000 -0.031153
v -0.165145 0.550000 -0.060744
v -0.147275 0.550000 -0.087289
v -0.123523 0.550000 -0.109456
v -0.095083 0.550000 -0.126136
v -0.063378 0.550000 -0.136490
v -0.030000 0.550000 -0.140000
v 0.003378 0.550000 -0.136490
v 0.035083 0.550000 -0.126136
v 0.063523 0.550000 -0.109456
v 0.087275 0.550000 -0.087289
v 0.105145 0.550000 -0.060744
v 0.116239 0.550000 -0.031153
v 0.120000 0.780000 0.000000
v 0.115988 0.780000 0.031153
v 0.104155 0.780000 0.060744
v 0.085093 0.780000 0.087289
v 0.059758 0.780000 0.109456
v 0.029421 0.780000 0.126136
v -0.004397 0.780000 0.136490
v -0.040000 0.780000 0.140000
v -0.075603 0.780000 0.136490
v -0.109421 0.780000 0.126136
v -0.139758 0.780000 0.109456
v -0.165093 0.780000 0.087289
v -0.184155 0.780000 0.060744
v -0.195988 0.780000 0.031153
v -0.200000 0.780000 0.000000
v -0.195988 0.780000 -0.031153
v -0.184155 0.780000 -0.060744
v -0.165093 0.780000 -0.087289
v -0.139758 0.780000 -0.109456
v -0.109421 0.780000 -0.126136
v -0.075603 0.780000 -0.136490
v -0.040000 0.780000 -0.140000
v -0.004397 0.780000 -0.136490
v 0.029421 0.780000 -0.126136
v 0.059758 0.780000 -0.109456
v 0.085093 0.780000 -0.087289
v 0.104155 0.780000 -0.060744
v 0.115988 0.780000 -0.031153
v 0.050000 1.020000 0.000000
v 0.046239 1.020000 0.028928
v 0.035145 1.020000 0.056405
v 0.017275 1.020000 0.081054
v -0.006477 1.020000 0.101638
v -0.034917 1.020000 0.117126
v -0.066622 1.020000 0.126741
v -0.100000 1.020000 0.130000
v -0.133378 1.020000 0.126741
v -0.165083 1.020000 0.117126
v -0.193523 1.020000 0.101638
v -0.217275 1.020000 0.081054
v -0.235145 1.020000 0.056405
v -0.246239 1.020000 0.028928
v -0.250000 1.020000 0.000000
v -0.246239 1.020000 -0.028928
v -0.235145 1.020000 -0.056405
v -0.217275 1.020000 -0.081054
v -0.193523 1.020000 -0.101638
v -0.165083 1.020000 -0.117126
v -0.133378 1.020000 -0.126741
v -0.100000 1.020000 -0.130000
v -0.066622 1.020000 -0.126741
v -0.034917 1.020000 -0.117126
v -0.006477 1.020000 -0.101638
v 0.017275 1.020000 -0.081054
v 0.035145 1.020000 -0.056405
v 0.046239 1.020000 -0.028928
v -0.040000 1.250000 0.000000
v -0.043259 1.250000 0.024477
v -0.052874 1.250000 0.047727
v -0.068362 1.250000 0.068584
v -0.088946 1.250000 0.086001
v -0.113595 1.250000 0.099107
v -0.141072 1.250000 0.107242
v -0.170000 1.250000 0.110000
v -0.198928 1.250000 0.107242
v -0.226405 1.250000 0.099107
v -0.251054 1.250000 0.086001
v -0.271638 1.250000 0.068584
v -0.287126 1.250000 0.047727
v -0.296741 1.250000 0.024477
v -0.300000 1.250000 0.000000
v -0.296741 1.250000 -0.024477
v -0.287126 1.250000 -0.047727
v -0.271638 1.250000 -0.068584
v -0.251054 1.250000 -0.086001
v -0.226405 1.250000 -0.099107
v -0.198928 1.250000 -0.107242
v -0.170000 1.250000 -0.110000
v -0.141072 1.250000 -0.107242
v -0.113595 1.250000 -0.099107
v -0.088946 1.250000 -0.086001
v -0.068362 1.250000 -0.068584
v -0.052874 1.250000 -0.047727
v -0.043259 1.250000 -0.024477
v -0.090000 1.450000 0.000000
v -0.092758 1.450000 0.022252
v -0.100893 1.450000 0.043388
v -0.113999 1.450000 0.062349
v -0.131416 1.450000 0.078183
v -0.152273 1.450000 0.090097
v -0.175523 1.450000 0.097493
v -0.200000 1.450000 0.100000
v -0.224477 1.450000 0.097493
v -0.247727 1.450000 0.090097
v -0.268584 1.450000 0.078183
v -0.286001 1.450000 0.062349
v -0.299107 1.450000 0.043388
v -0.307242 1.450000 0.022252
v -0.310000 1.450000 0.000000
v -0.307242 1.450000 -0.022252
v -0.299107 1.450000 -0.043388
v -0.286001 1.450000 -0.062349
v -0.268584 1.450000 -0.078183
v -0.247727 1.450000 -0.090097
v -0.224477 1.450000 -0.097493
v -0.200000 1.450000 -0.100000
v -0.175523 1.450000 -0.097493
v -0.152273 1.450000 -0.090097
v -0.131416 1.450000 -0.078183
v -0.113999 1.450000 -0.062349
v -0.100893 1.450000 -0.043388
v -0.092758 1.450000 -0.022252
v -0.030000 0.550000 0.000000
v -0.200000 1.450000 0.000000
v -0.380000 1.655000 0.000000
v -0.380000 1.651329 0.015451
v -0.380000 1.640676 0.029389
v -0.380000 1.624084 0.040451
v -0.380000 1.603176 0.047553
v -0.380000 1.580000 0.050000
v -0.380000 1.556824 0.047553
v -0.380000 1.535916 0.040451
v -0.380000 1.519324 0.029389
v -0.380000 1.508671 0.015451
v -0.380000 1.505000 0.000000
v -0.380000 1.508671 -0.015451
v -0.380000 1.519324 -0.029389
v -0.380000 1.535916 -0.040451
v -0.380000 1.556824 -0.047553
v -0.380000 1.580000 -0.050000
v -0.380000 1.603176 -0.047553
v -0.380000 1.624084 -0.040451
v -0.380000 1.640676 -0.029389
v -0.380000 1.651329 -0.015451
v -0.620000 1.595000 0.000000
v -0.620000 1.591819 0.013597
v -0.620000 1.582586 0.025863
v -0.620000 1.568206 0.035597
v -0.620000 1.550086 0.041846
v -0.620000 1.530000 0.044000
v -0.620000 1.509914 0.041846
v -0.620000 1.491794 0.035597
v -0.620000 1.477414 0.025863
v -0.620000 1.468181 0.013597
v -0.620000 1.465000 0.000000
v -0.620000 1.468181 -0.013597
v -0.620000 1.477414 -0.025863
v -0.620000 1.491794 -0.035597
v -0.620000 1.509914 -0.041846
v -0.620000 1.530000 -0.044000
v -0.620000 1.550086 -0.041846
v -0.620000 1.568206 -0.035597
v -0.620000 1.582586 -0.025863
v -0.620000 1.591819 -0.013597
v -0.880000 1.484000 0.000000
v -0.880000 1.481357 0.011743
v -0.880000 1.473687 0.022336
v -0.880000 1.461740 0.030743
v -0.880000 1.446687 0.036140
v -0.880000 1.430000 0.038000
v -0.880000 1.413313 0.036140
v -0.880000 1.398260 0.030743
v -0.880000 1.386313 0.022336
v -0.880000 1.378643 0.011743
v -0.880000 1.376000 0.000000
v -0.880000 1.378643 -0.011743
v -0.880000 1.386313 -0.022336
v -0.880000 1.398260 -0.030743
v -0.880000 1.413313 -0.036140
v -0.880000 1.430000 -0.038000
v -0.880000 1.446687 -0.036140
v -0.880000 1.461740 -0.030743
v -0.880000 1.473687 -0.022336
v -0.880000 1.481357 -0.011743
v -1.140000 1.343000 0.000000
v -1.140000 1.340895 0.009580
v -1.140000 1.334788 0.018221
v -1.140000 1.325275 0.025080
v -1.140000 1.313288 0.029483
v -1.140000 1.300000 0.031000
v -1.140000 1.286712 0.029483
v -1.140000 1.274725 0.025080
v -1.140000 1.265212 0.018221
v -1.140000 1.259105 0.009580
v -1.140000 1.257000 0.000000
v -1.140000 1.259105 -0.009580
v -1.140000 1.265212 -0.018221
v -1.140000 1.274725 -0.025080
v -1.140000 1.286712 -0.029483
v -1.140000 1.300000 -0.031000
v -1.140000 1.313288 -0.029483
v -1.140000 1.325275 -0.025080
v -1.140000 1.334788 -0.018221
v -1.140000 1.340895 -0.009580
v -1.400000 1.172000 0.000000
v -1.400000 1.170434 0.007416
v -1.400000 1.165889 0.014107
v -1.400000 1.158809 0.019416
v -1.400000 1.149889 0.022825
v -1.400000 1.140000 0.024000
v -1.400000 1.130111 0.022825
v -1.400000 1.121191 0.019416
v -1.400000 1.114111 0.014107
v -1.400000 1.109566 0.007416
v -1.400000 1.108000 0.000000
v -1.400000 1.109566 -0.007416
v -1.400000 1.114111 -0.014107
v -1.400000 1.121191 -0.019416
v -1.400000 1.130111 -0.022825
v -1.400000 1.140000 -0.024000
v -1.400000 1.149889 -0.022825
v -1.400000 1.158809 -0.019416
v -1.400000 1.165889 -0.014107
v -1.400000 1.170434 -0.007416
v -1.620000 0.976000 0.000000
v -1.620000 0.975217 0.003708
v -1.620000 0.972944 0.007053
v -1.620000 0.969405 0.009708
v -1.620000 0.964944 0.011413
v -1.620000 0.960000 0.012000
v -1.620000 0.955056 0.011413
v -1.620000 0.950595 0.009708
v -1.620000 0.947056 0.007053
v -1.620000 0.944783 0.003708
v -1.620000 0.944000 0.000000
v -1.620000 0.944783 -0.003708
v -1.620000 0.947056 -0.007053
v -1.620000 0.950595 -0.009708
v -1.620000 0.955056 -0.011413
v -1.620000 0.960000 -0.012000
v -1.620000 0.964944 -0.011413
v -1.620000 0.969405 -0.009708
v -1.620000 0.972944 -0.007053
v -1.620000 0.975217 -0.003708
v -0.380000 1.580000 0.000000
v -1.620000 0.960000 0.000000
v -0.320000 1.715000 -0.145000
v -0.320000 1.715000 -0.145000
v -0.320000 1.715000 -0.145000
v -0.320000 1.715000 -0.145000
v -0.320000 1.715000 -0.145000
v -0.320000 1.715000 -0.145000
v -0.320000 1.715000 -0.145000
v -0.320000 1.715000 -0.145000
v -0.320000 1.715000 -0.145000
v -0.320000 1.715000 -0.145000
v -0.320000 1.715000 -0.145000
v -0.320000 1.715000 -0.145000
v -0.310433 1.713097 -0.145000
v -0.311715 1.713097 -0.142321
v -0.315216 1.713097 -0.140360
v -0.320000 1.713097 -0.139642
v -0.324784 1.713097 -0.140360
v -0.328285 1.713097 -0.142321
v -0.329567 1.713097 -0.145000
v -0.328285 1.713097 -0.147679
v -0.324784 1.713097 -0.149640
v -0.320000 1.713097 -0.150358
v -0.315216 1.713097 -0.149640
v -0.311715 1.713097 -0.147679
v -0.302322 1.707678 -0.145000
v -0.304691 1.707678 -0.140050
v -0.311161 1.707678 -0.136427
v -0.320000 1.707678 -0.135101
v -0.328839 1.707678 -0.136427
v -0.335309 1.707678 -0.140050
v -0.337678 1.707678 -0.145000
v -0.335309 1.707678 -0.149950
v -0.328839 1.707678 -0.153573
v -0.320000 1.707678 -0.154899
v -0.311161 1.707678 -0.153573
v -0.304691 1.707678 -0.149950
v -0.296903 1.699567 -0.145000
v -0.299997 1.699567 -0.138533
v -0.308452 1.699567 -0.133799
v -0.320000 1.699567 -0.132066
v -0.331548 1.699567 -0.133799
v -0.340003 1.699567 -0.138533
v -0.343097 1.699567 -0.145000
v -0.340003 1.699567 -0.151467
v -0.331548 1.699567 -0.156201
v -0.320000 1.699567 -0.157934
v -0.308452 1.699567 -0.156201
v -0.299997 1.699567 -0.151467
v -0.295000 1.690000 -0.145000
v -0.298349 1.690000 -0.138000
v -0.307500 1.690000 -0.132876
v -0.320000 1.690000 -0.131000
v -0.332500 1.690000 -0.132876
v -0.341651 1.690000 -0.138000
v -0.345000 1.690000 -0.145000
v -0.341651 1.690000 -0.152000
v -0.332500 1.690000 -0.157124
v -0.320000 1.690000 -0.159000
v -0.307500 1.690000 -0.157124
v -0.298349 1.690000 -0.152000
v -0.296903 1.680433 -0.145000
v -0.299997 1.680433 -0.138533
v -0.308452 1.680433 -0.133799
v -0.320000 1.680433 -0.132066
v -0.331548 1.680433 -0.133799
v -0.340003 1.680433 -0.138533
v -0.343097 1.680433 -0.145000
v -0.340003 1.680433 -0.151467
v -0.331548 1.680433 -0.156201
v -0.320000 1.680433 -0.157934
v -0.308452 1.680433 -0.156201
v -0.299997 1.680433 -0.151467
v -0.302322 1.672322 -0.145000
v -0.304691 1.672322 -0.140050
v -0.311161 1.672322 -0.136427
v -0.320000 1.672322 -0.135101
v -0.328839 1.672322 -0.136427
v -0.335309 1.672322 -0.140050
v -0.337678 1.672322 -0.145000
v -0.335309 1.672322 -0.149950
v -0.328839 1.672322 -0.153573
v -0.320000 1.672322 -0.154899
v -0.311161 1.672322 -0.153573
v -0.304691 1.672322 -0.149950
v -0.310433 1.666903 -0.145000
v -0.311715 1.666903 -0.142321
v -0.315216 1.666903 -0.140360
v -0.320000 1.666903 -0.139642
v -0.324784 1.666903 -0.140360
v -0.328285 1.666903 -0.142321
v -0.329567 1.666903 -0.145000
v -0.328285 1.666903 -0.147679
v -0.324784 1.666903 -0.149640
v -0.320000 1.666903 -0.150358
v -0.315216 1.666903 -0.149640
v -0.311715 1.666903 -0.147679
v -0.320000 1.665000 -0.145000
v -0.320000 1.665000 -0.145000
v -0.320000 1.665000 -0.145000
v -0.320000 1.665000 -0.145000
v -0.320000 1.665000 -0.145000
v -0.320000 1.665000 -0.145000
v -0.320000 1.665000 -0.145000
v -0.320000 1.665000 -0.145000
v -0.320000 1.665000 -0.145000
v -0.320000 1.665000 -0.145000
v -0.320000 1.665000 -0.145000
v -0.320000 1.665000 -0.145000
v -0.320000 1.715000 0.145000
v -0.320000 1.715000 0.145000
v -0.320000 1.715000 0.145000
v -0.320000 1.715000 0.145000
v -0.320000 1.715000 0.145000
v -0.320000 1.715000 0.145000
v -0.320000 1.715000 0.145000
v -0.320000 1.715000 0.145000
v -0.320000 1.715000 0.145000
v -0.320000 1.715000 0.145000
v -0.320000 1.715000 0.145000
v -0.320000 1.715000 0.145000
v -0.310433 1.713097 0.145000
v -0.311715 1.713097 0.147679
v -0.315216 1.713097 0.149640
v -0.320000 1.713097 0.150358
v -0.324784 1.713097 0.149640
v -0.328285 1.713097 0.147679
v -0.329567 1.713097 0.145000
v -0.328285 1.713097 0.142321
v -0.324784 1.713097 0.140360
v -0.320000 1.713097 0.139642
v -0.315216 1.713097 0.140360
v -0.311715 1.713097 0.142321
v -0.302322 1.707678 0.145000
v -0.304691 1.707678 0.149950
v -0.311161 1.707678 0.153573
v -0.320000 1.707678 0.154899
v -0.328839 1.707678 0.153573
v -0.335309 1.707678 0.149950
v -0.337678 1.707678 0.145000
v -0.335309 1.707678 0.140050
v -0.328839 1.707678 0.136427
v -0.320000 1.707678 0.135101
v -0.311161 1.707678 0.136427
v -0.304691 1.707678 0.140050
v -0.296903 1.699567 0.145000
v -0.299997 1.699567 0.151467
v -0.308452 1.699567 0.156201
v -0.320000 1.699567 0.157934
v -0.331548 1.699567 0.156201
v -0.340003 1.699567 0.151467
v -0.343097 1.699567 0.145000
v -0.340003 1.699567 0.138533
v -0.331548 1.699567 0.133799
v -0.320000 1.699567 0.132066
v -0.308452 1.699567 0.133799
v -0.299997 1.699567 0.138533
v -0.295000 1.690000 0.145000
v -0.298349 1.690000 0.152000
v -0.307500 1.690000 0.157124
v -0.320000 1.690000 0.159000
v -0.332500 1.690000 0.157124
v -0.341651 1.690000 0.152000
v -0.345000 1.690000 0.145000
v -0.341651 1.690000 0.138000
v -0.332500 1.690000 0.132876
v -0.320000 1.690000 0.131000
v -0.307500 1.690000 0.132876
v -0.298349 1.690000 0.138000
v -0.296903 1.680433 0.145000
v -0.299997 1.680433 0.151467
v -0.308452 1.680433 0.156201
v -0.320000 1.680433 0.157934
v -0.331548 1.680433 0.156201
v -0.340003 1.680433 0.151467
v -0.343097 1.680433 0.145000
v -0.340003 1.680433 0.138533
v -0.331548 1.680433 0.133799
v -0.320000 1.680433 0.132066
v -0.308452 1.680433 0.133799
v -0.299997 1.680433 0.138533
v -0.302322 1.672322 0.145000
v -0.304691 1.672322 0.149950
v -0.311161 1.672322 0.153573
v -0.320000 1.672322 0.154899
v -0.328839 1.672322 0.153573
v -0.335309 1.672322 0.149950
v -0.337678 1.672322 0.145000
v -0.335309 1.672322 0.140050
v -0.328839 1.672322 0.136427
v -0.320000 1.672322 0.135101
v -0.311161 1.672322 0.136427
v -0.304691 1.672322 0.140050
v -0.310433 1.666903 0.145000
v -0.311715 1.666903 0.147679
v -0.315216 1.666903 0.149640
v -0.320000 1.666903 0.150358
v -0.324784 1.666903 0.149640
v -0.328285 1.666903 0.147679
v -0.329567 1.666903 0.145000
v -0.328285 1.666903 0.142321
v -0.324784 1.666903 0.140360
v -0.320000 1.666903 0.139642
v -0.315216 1.666903 0.140360
v -0.311715 1.666903 0.142321
v -0.320000 1.665000 0.145000
v -0.320000 1.665000 0.145000
v -0.320000 1.665000 0.145000
v -0.320000 1.665000 0.145000
v -0.320000 1.665000 0.145000
v -0.320000 1.665000 0.145000
v -0.320000 1.665000 0.145000
v -0.320000 1.665000 0.145000
v -0.320000 1.665000 0.145000
v -0.320000 1.665000 0.145000
v -0.320000 1.665000 0.145000
v -0.320000 1.665000 0.145000
v 0.440000 0.420000 0.000000
v 0.433012 0.420000 0.059040
v 0.412259 0.420000 0.116287
v 0.378372 0.420000 0.170000
v 0.332380 0.420000 0.218548
v 0.275682 0.420000 0.260455
v 0.210000 0.420000 0.294449
v 0.137329 0.420000 0.319495
v 0.059878 0.420000 0.334835
v -0.020000 0.420000 0.340000
v -0.099878 0.420000 0.334835
v -0.177329 0.420000 0.319495
v -0.250000 0.420000 0.294449
v -0.315682 0.420000 0.260455
v -0.372380 0.420000 0.218548
v -0.418372 0.420000 0.170000
v -0.452259 0.420000 0.116287
v -0.473012 0.420000 0.059040
v -0.480000 0.420000 0.000000
v -0.473012 0.420000 -0.059040
v -0.452259 0.420000 -0.116287
v -0.418372 0.420000 -0.170000
v -0.372380 0.420000 -0.218548
v -0.315682 0.420000 -0.260455
v -0.250000 0.420000 -0.294449
v -0.177329 0.420000 -0.319495
v -0.099878 0.420000 -0.334835
v -0.020000 0.420000 -0.340000
v 0.059878 0.420000 -0.334835
v 0.137329 0.420000 -0.319495
v 0.210000 0.420000 -0.294449
v 0.275682 0.420000 -0.260455
v 0.332380 0.420000 -0.218548
v 0.378372 0.420000 -0.170000
v 0.412259 0.420000 -0.116287
v 0.433012 0.420000 -0.059040
v 0.410000 0.490000 0.000000
v 0.403467 0.490000 0.053831
v 0.384068 0.490000 0.106026
v 0.352391 0.490000 0.155000
v 0.309399 0.490000 0.199264
v 0.256399 0.490000 0.237474
v 0.195000 0.490000 0.268468
v 0.127069 0.490000 0.291305
v 0.054669 0.490000 0.305290
v -0.020000 0.490000 0.310000
v -0.094669 0.490000 0.305290
v -0.167069 0.490000 0.291305
v -0.235000 0.490000 0.268468
v -0.296399 0.490000 0.237474
v -0.349399 0.490000 0.199264
v -0.392391 0.490000 0.155000
v -0.424068 0.490000 0.106026
v -0.443467 0.490000 0.053831
v -0.450000 0.490000 0.000000
v -0.443467 0.490000 -0.053831
v -0.424068 0.490000 -0.106026
v -0.392391 0.490000 -0.155000
v -0.349399 0.490000 -0.199264
v -0.296399 0.490000 -0.237474
v -0.235000 0.490000 -0.268468
v -0.167069 0.490000 -0.291305
v -0.094669 0.490000 -0.305290
v -0.020000 0.490000 -0.310000
v 0.054669 0.490000 -0.305290
v 0.127069 0.490000 -0.291305
v 0.195000 0.490000 -0.268468
v 0.256399 0.490000 -0.237474
v 0.309399 0.490000 -0.199264
v 0.352391 0.490000 -0.155000
v 0.384068 0.490000 -0.106026
v 0.403467 0.490000 -0.053831
v -0.020000 0.420000 0.000000
v -0.020000 0.490000 0.000000
v 0.350000 0.500000 0.000000
v 0.344379 0.500000 0.046885
v 0.327686 0.500000 0.092345
v 0.300429 0.500000 0.135000
v 0.263436 0.500000 0.173553
v 0.217831 0.500000 0.206832
v 0.165000 0.500000 0.233827
v 0.106547 0.500000 0.253717
v 0.044250 0.500000 0.265898
v -0.020000 0.500000 0.270000
v -0.084250 0.500000 0.265898
v -0.146547 0.500000 0.253717
v -0.205000 0.500000 0.233827
v -0.257831 0.500000 0.206832
v -0.303436 0.500000 0.173553
v -0.340429 0.500000 0.135000
v -0.367686 0.500000 0.092345
v -0.384379 0.500000 0.046885
v -0.390000 0.500000 0.000000
v -0.384379 0.500000 -0.046885
v -0.367686 0.500000 -0.092345
v -0.340429 0.500000 -0.135000
v -0.303436 0.500000 -0.173553
v -0.257831 0.500000 -0.206832
v -0.205000 0.500000 -0.233827
v -0.146547 0.500000 -0.253717
v -0.084250 0.500000 -0.265898
v -0.020000 0.500000 -0.270000
v 0.044250 0.500000 -0.265898
v 0.106547 0.500000 -0.253717
v 0.165000 0.500000 -0.233827
v 0.217831 0.500000 -0.206832
v 0.263436 0.500000 -0.173553
v 0.300429 0.500000 -0.135000
v 0.327686 0.500000 -0.092345
v 0.344379 0.500000 -0.046885
v 0.310000 0.560000 0.000000
v 0.304987 0.560000 0.041676
v 0.290099 0.560000 0.082085
v 0.265788 0.560000 0.120000
v 0.232795 0.560000 0.154269
v 0.192120 0.560000 0.183851
v 0.145000 0.560000 0.207846
v 0.092867 0.560000 0.225526
v 0.037304 0.560000 0.236354
v -0.020000 0.560000 0.240000
v -0.077304 0.560000 0.236354
v -0.132867 0.560000 0.225526
v -0.185000 0.560000 0.207846
v -0.232120 0.560000 0.183851
v -0.272795 0.560000 0.154269
v -0.305788 0.560000 0.120000
v -0.330099 0.560000 0.082085
v -0.344987 0.560000 0.041676
v -0.350000 0.560000 0.000000
v -0.344987 0.560000 -0.041676
v -0.330099 0.560000 -0.082085
v -0.305788 0.560000 -0.120000
v -0.272795 0.560000 -0.154269
v -0.232120 0.560000 -0.183851
v -0.185000 0.560000 -0.207846
v -0.132867 0.560000 -0.225526
v -0.077304 0.560000 -0.236354
v -0.020000 0.560000 -0.240000
v 0.037304 0.560000 -0.236354
v 0.092867 0.560000 -0.225526
v 0.145000 0.560000 -0.207846
v 0.192120 0.560000 -0.183851
v 0.232795 0.560000 -0.154269
v 0.265788 0.560000 -0.120000
v 0.290099 0.560000 -0.082085
v 0.304987 0.560000 -0.041676
v -0.020000 0.500000 0.000000
v -0.020000 0.560000 0.000000
v -0.130000 0.920000 -0.370000
v 0.090000 0.920000 -0.370000
v 0.090000 1.000000 -0.370000
v -0.130000 1.000000 -0.370000
v -0.130000 0.920000 -0.290000
v 0.090000 0.920000 -0.290000
v 0.090000 1.000000 -0.290000
v -0.130000 1.000000 -0.290000
v -0.130000 0.920000 0.290000
v 0.090000 0.920000 0.290000
v 0.090000 1.000000 0.290000
v -0.130000 1.000000 0.290000
v -0.130000 0.920000 0.370000
v 0.090000 0.920000 0.370000
v 0.090000 1.000000 0.370000
v -0.130000 1.000000 0.370000
g deep_blue_headdress
usemtl deep_blue_headdress
f 1 2 38 37
f 2 3 39 38
f 3 4 40 39
f 4 5 41 40
f 5 6 42 41
f 6 7 43 42
f 7 8 44 43
f 8 9 45 44
f 9 10 46 45
f 10 11 47 46
f 11 12 48 47
f 12 13 49 48
f 13 14 50 49
f 14 15 51 50
f 15 16 52 51
f 16 17 53 52
f 17 18 54 53
f 18 19 55 54
f 19 20 56 55
f 20 21 57 56
f 21 22 58 57
f 22 23 59 58
f 23 24 60 59
f 24 25 61 60
f 25 26 62 61
f 26 27 63 62
f 27 28 64 63
f 28 29 65 64
f 29 30 66 65
f 30 31 67 66
f 31 32 68 67
f 32 33 69 68
f 33 34 70 69
f 34 35 71 70
f 35 36 72 71
f 36 1 37 72
f 37 38 74 73
f 38 39 75 74
f 39 40 76 75
f 40 41 77 76
f 41 42 78 77
f 42 43 79 78
f 43 44 80 79
f 44 45 81 80
f 45 46 82 81
f 46 47 83 82
f 47 48 84 83
f 48 49 85 84
f 49 50 86 85
f 50 51 87 86
f 51 52 88 87
f 52 53 89 88
f 53 54 90 89
f 54 55 91 90
f 55 56 92 91
f 56 57 93 92
f 57 58 94 93
f 58 59 95 94
f 59 60 96 95
f 60 61 97 96
f 61 62 98 97
f 62 63 99 98
f 63 64 100 99
f 64 65 101 100
f 65 66 102 101
f 66 67 103 102
f 67 68 104 103
f 68 69 105 104
f 69 70 106 105
f 70 71 107 106
f 71 72 108 107
f 72 37 73 108
f 73 74 110 109
f 74 75 111 110
f 75 76 112 111
f 76 77 113 112
f 77 78 114 113
f 78 79 115 114
f 79 80 116 115
f 80 81 117 116
f 81 82 118 117
f 82 83 119 118
f 83 84 120 119
f 84 85 121 120
f 85 86 122 121
f 86 87 123 122
f 87 88 124 123
f 88 89 125 124
f 89 90 126 125
f 90 91 127 126
f 91 92 128 127
f 92 93 129 128
f 93 94 130 129
f 94 95 131 130
f 95 96 132 131
f 96 97 133 132
f 97 98 134 133
f 98 99 135 134
f 99 100 136 135
f 100 101 137 136
f 101 102 138 137
f 102 103 139 138
f 103 104 140 139
f 104 105 141 140
f 105 106 142 141
f 106 107 143 142
f 107 108 144 143
f 108 73 109 144
f 109 110 146 145
f 110 111 147 146
f 111 112 148 147
f 112 113 149 148
f 113 114 150 149
f 114 115 151 150
f 115 116 152 151
f 116 117 153 152
f 117 118 154 153
f 118 119 155 154
f 119 120 156 155
f 120 121 157 156
f 121 122 158 157
f 122 123 159 158
f 123 124 160 159
f 124 125 161 160
f 125 126 162 161
f 126 127 163 162
f 127 128 164 163
f 128 129 165 164
f 129 130 166 165
f 130 131 167 166
f 131 132 168 167
f 132 133 169 168
f 133 134 170 169
f 134 135 171 170
f 135 136 172 171
f 136 137 173 172
f 137 138 174 173
f 138 139 175 174
f 139 140 176 175
f 140 141 177 176
f 141 142 178 177
f 142 143 179 178
f 143 144 180 179
f 144 109 145 180
f 145 146 182 181
f 146 147 183 182
f 147 148 184 183
f 148 149 185 184
f 149 150 186 185
f 150 151 187 186
f 151 152 188 187
f 152 153 189 188
f 153 154 190 189
f 154 155 191 190
f 155 156 192 191
f 156 157 193 192
f 157 158 194 193
f 158 159 195 194
f 159 160 196 195
f 160 161 197 196
f 161 162 198 197
f 162 163 199 198
f 163 164 200 199
f 164 165 201 200
f 165 166 202 201
f 166 167 203 202
f 167 168 204 203
f 168 169 205 204
f 169 170 206 205
f 170 171 207 206
f 171 172 208 207
f 172 173 209 208
f 173 174 210 209
f 174 175 211 210
f 175 176 212 211
f 176 177 213 212
f 177 178 214 213
f 178 179 215 214
f 179 180 216 215
f 180 145 181 216
f 181 182 218 217
f 182 183 219 218
f 183 184 220 219
f 184 185 221 220
f 185 186 222 221
f 186 187 223 222
f 187 188 224 223
f 188 189 225 224
f 189 190 226 225
f 190 191 227 226
f 191 192 228 227
f 192 193 229 228
f 193 194 230 229
f 194 195 231 230
f 195 196 232 231
f 196 197 233 232
f 197 198 234 233
f 198 199 235 234
f 199 200 236 235
f 200 201 237 236
f 201 202 238 237
f 202 203 239 238
f 203 204 240 239
f 204 205 241 240
f 205 206 242 241
f 206 207 243 242
f 207 208 244 243
f 208 209 245 244
f 209 210 246 245
f 210 211 247 246
f 211 212 248 247
f 212 213 249 248
f 213 214 250 249
f 214 215 251 250
f 215 216 252 251
f 216 181 217 252
f 217 218 254 253
f 218 219 255 254
f 219 220 256 255
f 220 221 257 256
f 221 222 258 257
f 222 223 259 258
f 223 224 260 259
f 224 225 261 260
f 225 226 262 261
f 226 227 263 262
f 227 228 264 263
f 228 229 265 264
f 229 230 266 265
f 230 231 267 266
f 231 232 268 267
f 232 233 269 268
f 233 234 270 269
f 234 235 271 270
f 235 236 272 271
f 236 237 273 272
f 237 238 274 273
f 238 239 275 274
f 239 240 276 275
f 240 241 277 276
f 241 242 278 277
f 242 243 279 278
f 243 244 280 279
f 244 245 281 280
f 245 246 282 281
f 246 247 283 282
f 247 248 284 283
f 248 249 285 284
f 249 250 286 285
f 250 251 287 286
f 251 252 288 287
f 252 217 253 288
f 253 254 290 289
f 254 255 291 290
f 255 256 292 291
f 256 257 293 292
f 257 258 294 293
f 258 259 295 294
f 259 260 296 295
f 260 261 297 296
f 261 262 298 297
f 262 263 299 298
f 263 264 300 299
f 264 265 301 300
f 265 266 302 301
f 266 267 303 302
f 267 268 304 303
f 268 269 305 304
f 269 270 306 305
f 270 271 307 306
f 271 272 308 307
f 272 273 309 308
f 273 274 310 309
f 274 275 311 310
f 275 276 312 311
f 276 277 313 312
f 277 278 314 313
f 278 279 315 314
f 279 280 316 315
f 280 281 317 316
f 281 282 318 317
f 282 283 319 318
f 283 284 320 319
f 284 285 321 320
f 285 286 322 321
f 286 287 323 322
f 287 288 324 323
f 288 253 289 324
f 289 290 326 325
f 290 291 327 326
f 291 292 328 327
f 292 293 329 328
f 293 294 330 329
f 294 295 331 330
f 295 296 332 331
f 296 297 333 332
f 297 298 334 333
f 298 299 335 334
f 299 300 336 335
f 300 301 337 336
f 301 302 338 337
f 302 303 339 338
f 303 304 340 339
f 304 305 341 340
f 305 306 342 341
f 306 307 343 342
f 307 308 344 343
f 308 309 345 344
f 309 310 346 345
f 310 311 347 346
f 311 312 348 347
f 312 313 349 348
f 313 314 350 349
f 314 315 351 350
f 315 316 352 351
f 316 317 353 352
f 317 318 354 353
f 318 319 355 354
f 319 320 356 355
f 320 321 357 356
f 321 322 358 357
f 322 323 359 358
f 323 324 360 359
f 324 289 325 360
f 325 326 362 361
f 326 327 363 362
f 327 328 364 363
f 328 329 365 364
f 329 330 366 365
f 330 331 367 366
f 331 332 368 367
f 332 333 369 368
f 333 334 370 369
f 334 335 371 370
f 335 336 372 371
f 336 337 373 372
f 337 338 374 373
f 338 339 375 374
f 339 340 376 375
f 340 341 377 376
f 341 342 378 377
f 342 343 379 378
f 343 344 380 379
f 344 345 381 380
f 345 346 382 381
f 346 347 383 382
f 347 348 384 383
f 348 349 385 384
f 349 350 386 385
f 350 351 387 386
f 351 352 388 387
f 352 353 389 388
f 353 354 390 389
f 354 355 391 390
f 355 356 392 391
f 356 357 393 392
f 357 358 394 393
f 358 359 395 394
f 359 360 396 395
f 360 325 361 396
f 361 362 398 397
f 362 363 399 398
f 363 364 400 399
f 364 365 401 400
f 365 366 402 401
f 366 367 403 402
f 367 368 404 403
f 368 369 405 404
f 369 370 406 405
f 370 371 407 406
f 371 372 408 407
f 372 373 409 408
f 373 374 410 409
f 374 375 411 410
f 375 376 412 411
f 376 377 413 412
f 377 378 414 413
f 378 379 415 414
f 379 380 416 415
f 380 381 417 416
f 381 382 418 417
f 382 383 419 418
f 383 384 420 419
f 384 385 421 420
f 385 386 422 421
f 386 387 423 422
f 387 388 424 423
f 388 389 425 424
f 389 390 426 425
f 390 391 427 426
f 391 392 428 427
f 392 393 429 428
f 393 394 430 429
f 394 395 431 430
f 395 396 432 431
f 396 361 397 432
f 397 398 434 433
f 398 399 435 434
f 399 400 436 435
f 400 401 437 436
f 401 402 438 437
f 402 403 439 438
f 403 404 440 439
f 404 405 441 440
f 405 406 442 441
f 406 407 443 442
f 407 408 444 443
f 408 409 445 444
f 409 410 446 445
f 410 411 447 446
f 411 412 448 447
f 412 413 449 448
f 413 414 450 449
f 414 415 451 450
f 415 416 452 451
f 416 417 453 452
f 417 418 454 453
f 418 419 455 454
f 419 420 456 455
f 420 421 457 456
f 421 422 458 457
f 422 423 459 458
f 423 424 460 459
f 424 425 461 460
f 425 426 462 461
f 426 427 463 462
f 427 428 464 463
f 428 429 465 464
f 429 430 466 465
f 430 431 467 466
f 431 432 468 467
f 432 397 433 468
f 433 434 470 469
f 434 435 471 470
f 435 436 472 471
f 436 437 473 472
f 437 438 474 473
f 438 439 475 474
f 439 440 476 475
f 440 441 477 476
f 441 442 478 477
f 442 443 479 478
f 443 444 480 479
f 444 445 481 480
f 445 446 482 481
f 446 447 483 482
f 447 448 484 483
f 448 449 485 484
f 449 450 486 485
f 450 451 487 486
f 451 452 488 487
f 452 453 489 488
f 453 454 490 489
f 454 455 491 490
f 455 456 492 491
f 456 457 493 492
f 457 458 494 493
f 458 459 495 494
f 459 460 496 495
f 460 461 497 496
f 461 462 498 497
f 462 463 499 498
f 463 464 500 499
f 464 465 501 500
f 465 466 502 501
f 466 467 503 502
f 467 468 504 503
f 468 433 469 504
f 469 470 506 505
f 470 471 507 506
f 471 472 508 507
f 472 473 509 508
f 473 474 510 509
f 474 475 511 510
f 475 476 512 511
f 476 477 513 512
f 477 478 514 513
f 478 479 515 514
f 479 480 516 515
f 480 481 517 516
f 481 482 518 517
f 482 483 519 518
f 483 484 520 519
f 484 485 521 520
f 485 486 522 521
f 486 487 523 522
f 487 488 524 523
f 488 489 525 524
f 489 490 526 525
f 490 491 527 526
f 491 492 528 527
f 492 493 529 528
f 493 494 530 529
f 494 495 531 530
f 495 496 532 531
f 496 497 533 532
f 497 498 534 533
f 498 499 535 534
f 499 500 536 535
f 500 501 537 536
f 501 502 538 537
f 502 503 539 538
f 503 504 540 539
f 504 469 505 540
f 505 506 542 541
f 506 507 543 542
f 507 508 544 543
f 508 509 545 544
f 509 510 546 545
f 510 511 547 546
f 511 512 548 547
f 512 513 549 548
f 513 514 550 549
f 514 515 551 550
f 515 516 552 551
f 516 517 553 552
f 517 518 554 553
f 518 519 555 554
f 519 520 556 555
f 520 521 557 556
f 521 522 558 557
f 522 523 559 558
f 523 524 560 559
f 524 525 561 560
f 525 526 562 561
f 526 527 563 562
f 527 528 564 563
f 528 529 565 564
f 529 530 566 565
f 530 531 567 566
f 531 532 568 567
f 532 533 569 568
f 533 534 570 569
f 534 535 571 570
f 535 536 572 571
f 536 537 573 572
f 537 538 574 573
f 538 539 575 574
f 539 540 576 575
f 540 505 541 576
f 541 542 578 577
f 542 543 579 578
f 543 544 580 579
f 544 545 581 580
f 545 546 582 581
f 546 547 583 582
f 547 548 584 583
f 548 549 585 584
f 549 550 586 585
f 550 551 587 586
f 551 552 588 587
f 552 553 589 588
f 553 554 590 589
f 554 555 591 590
f 555 556 592 591
f 556 557 593 592
f 557 558 594 593
f 558 559 595 594
f 559 560 596 595
f 560 561 597 596
f 561 562 598 597
f 562 563 599 598
f 563 564 600 599
f 564 565 601 600
f 565 566 602 601
f 566 567 603 602
f 567 568 604 603
f 568 569 605 604
f 569 570 606 605
f 570 571 607 606
f 571 572 608 607
f 572 573 609 608
f 573 574 610 609
f 574 575 611 610
f 575 576 612 611
f 576 541 577 612
f 577 578 614 613
f 578 579 615 614
f 579 580 616 615
f 580 581 617 616
f 581 582 618 617
f 582 583 619 618
f 583 584 620 619
f 584 585 621 620
f 585 586 622 621
f 586 587 623 622
f 587 588 624 623
f 588 589 625 624
f 589 590 626 625
f 590 591 627 626
f 591 592 628 627
f 592 593 629 628
f 593 594 630 629
f 594 595 631 630
f 595 596 632 631
f 596 597 633 632
f 597 598 634 633
f 598 599 635 634
f 599 600 636 635
f 600 601 637 636
f 601 602 638 637
f 602 603 639 638
f 603 604 640 639
f 604 605 641 640
f 605 606 642 641
f 606 607 643 642
f 607 608 644 643
f 608 609 645 644
f 609 610 646 645
f 610 611 647 646
f 611 612 648 647
f 612 577 613 648
f 613 614 650 649
f 614 615 651 650
f 615 616 652 651
f 616 617 653 652
f 617 618 654 653
f 618 619 655 654
f 619 620 656 655
f 620 621 657 656
f 621 622 658 657
f 622 623 659 658
f 623 624 660 659
f 624 625 661 660
f 625 626 662 661
f 626 627 663 662
f 627 628 664 663
f 628 629 665 664
f 629 630 666 665
f 630 631 667 666
f 631 632 668 667
f 632 633 669 668
f 633 634 670 669
f 634 635 671 670
f 635 636 672 671
f 636 637 673 672
f 637 638 674 673
f 638 639 675 674
f 639 640 676 675
f 640 641 677 676
f 641 642 678 677
f 642 643 679 678
f 643 644 680 679
f 644 645 681 680
f 645 646 682 681
f 646 647 683 682
f 647 648 684 683
f 648 613 649 684
f 685 686 687 688
f 689 692 691 690
f 685 689 690 686
f 686 690 691 687
f 687 691 692 688
f 688 692 689 685
f 693 694 695 696
f 697 700 699 698
f 693 697 698 694
f 694 698 699 695
f 695 699 700 696
f 696 700 697 693
g green_ibis_head
usemtl green_ibis_head
f 701 702 734 733
f 702 703 735 734
f 703 704 736 735
f 704 705 737 736
f 705 706 738 737
f 706 707 739 738
f 707 708 740 739
f 708 709 741 740
f 709 710 742 741
f 710 711 743 742
f 711 712 744 743
f 712 713 745 744
f 713 714 746 745
f 714 715 747 746
f 715 716 748 747
f 716 717 749 748
f 717 718 750 749
f 718 719 751 750
f 719 720 752 751
f 720 721 753 752
f 721 722 754 753
f 722 723 755 754
f 723 724 756 755
f 724 725 757 756
f 725 726 758 757
f 726 727 759 758
f 727 728 760 759
f 728 729 761 760
f 729 730 762 761
f 730 731 763 762
f 731 732 764 763
f 732 701 733 764
f 733 734 766 765
f 734 735 767 766
f 735 736 768 767
f 736 737 769 768
f 737 738 770 769
f 738 739 771 770
f 739 740 772 771
f 740 741 773 772
f 741 742 774 773
f 742 743 775 774
f 743 744 776 775
f 744 745 777 776
f 745 746 778 777
f 746 747 779 778
f 747 748 780 779
f 748 749 781 780
f 749 750 782 781
f 750 751 783 782
f 751 752 784 783
f 752 753 785 784
f 753 754 786 785
f 754 755 787 786
f 755 756 788 787
f 756 757 789 788
f 757 758 790 789
f 758 759 791 790
f 759 760 792 791
f 760 761 793 792
f 761 762 794 793
f 762 763 795 794
f 763 764 796 795
f 764 733 765 796
f 765 766 798 797
f 766 767 799 798
f 767 768 800 799
f 768 769 801 800
f 769 770 802 801
f 770 771 803 802
f 771 772 804 803
f 772 773 805 804
f 773 774 806 805
f 774 775 807 806
f 775 776 808 807
f 776 777 809 808
f 777 778 810 809
f 778 779 811 810
f 779 780 812 811
f 780 781 813 812
f 781 782 814 813
f 782 783 815 814
f 783 784 816 815
f 784 785 817 816
f 785 786 818 817
f 786 787 819 818
f 787 788 820 819
f 788 789 821 820
f 789 790 822 821
f 790 791 823 822
f 791 792 824 823
f 792 793 825 824
f 793 794 826 825
f 794 795 827 826
f 795 796 828 827
f 796 765 797 828
f 797 798 830 829
f 798 799 831 830
f 799 800 832 831
f 800 801 833 832
f 801 802 834 833
f 802 803 835 834
f 803 804 836 835
f 804 805 837 836
f 805 806 838 837
f 806 807 839 838
f 807 808 840 839
f 808 809 841 840
f 809 810 842 841
f 810 811 843 842
f 811 812 844 843
f 812 813 845 844
f 813 814 846 845
f 814 815 847 846
f 815 816 848 847
f 816 817 849 848
f 817 818 850 849
f 818 819 851 850
f 819 820 852 851
f 820 821 853 852
f 821 822 854 853
f 822 823 855 854
f 823 824 856 855
f 824 825 857 856
f 825 826 858 857
f 826 827 859 858
f 827 828 860 859
f 828 797 829 860
f 829 830 862 861
f 830 831 863 862
f 831 832 864 863
f 832 833 865 864
f 833 834 866 865
f 834 835 867 866
f 835 836 868 867
f 836 837 869 868
f 837 838 870 869
f 838 839 871 870
f 839 840 872 871
f 840 841 873 872
f 841 842 874 873
f 842 843 875 874
f 843 844 876 875
f 844 845 877 876
f 845 846 878 877
f 846 847 879 878
f 847 848 880 879
f 848 849 881 880
f 849 850 882 881
f 850 851 883 882
f 851 852 884 883
f 852 853 885 884
f 853 854 886 885
f 854 855 887 886
f 855 856 888 887
f 856 857 889 888
f 857 858 890 889
f 858 859 891 890
f 859 860 892 891
f 860 829 861 892
f 861 862 894 893
f 862 863 895 894
f 863 864 896 895
f 864 865 897 896
f 865 866 898 897
f 866 867 899 898
f 867 868 900 899
f 868 869 901 900
f 869 870 902 901
f 870 871 903 902
f 871 872 904 903
f 872 873 905 904
f 873 874 906 905
f 874 875 907 906
f 875 876 908 907
f 876 877 909 908
f 877 878 910 909
f 878 879 911 910
f 879 880 912 911
f 880 881 913 912
f 881 882 914 913
f 882 883 915 914
f 883 884 916 915
f 884 885 917 916
f 885 886 918 917
f 886 887 919 918
f 887 888 920 919
f 888 889 921 920
f 889 890 922 921
f 890 891 923 922
f 891 892 924 923
f 892 861 893 924
f 893 894 926 925
f 894 895 927 926
f 895 896 928 927
f 896 897 929 928
f 897 898 930 929
f 898 899 931 930
f 899 900 932 931
f 900 901 933 932
f 901 902 934 933
f 902 903 935 934
f 903 904 936 935
f 904 905 937 936
f 905 906 938 937
f 906 907 939 938
f 907 908 940 939
f 908 909 941 940
f 909 910 942 941
f 910 911 943 942
f 911 912 944 943
f 912 913 945 944
f 913 914 946 945
f 914 915 947 946
f 915 916 948 947
f 916 917 949 948
f 917 918 950 949
f 918 919 951 950
f 919 920 952 951
f 920 921 953 952
f 921 922 954 953
f 922 923 955 954
f 923 924 956 955
f 924 893 925 956
f 925 926 958 957
f 926 927 959 958
f 927 928 960 959
f 928 929 961 960
f 929 930 962 961
f 930 931 963 962
f 931 932 964 963
f 932 933 965 964
f 933 934 966 965
f 934 935 967 966
f 935 936 968 967
f 936 937 969 968
f 937 938 970 969
f 938 939 971 970
f 939 940 972 971
f 940 941 973 972
f 941 942 974 973
f 942 943 975 974
f 943 944 976 975
f 944 945 977 976
f 945 946 978 977
f 946 947 979 978
f 947 948 980 979
f 948 949 981 980
f 949 950 982 981
f 950 951 983 982
f 951 952 984 983
f 952 953 985 984
f 953 954 986 985
f 954 955 987 986
f 955 956 988 987
f 956 925 957 988
f 957 958 990 989
f 958 959 991 990
f 959 960 992 991
f 960 961 993 992
f 961 962 994 993
f 962 963 995 994
f 963 964 996 995
f 964 965 997 996
f 965 966 998 997
f 966 967 999 998
f 967 968 1000 999
f 968 969 1001 1000
f 969 970 1002 1001
f 970 971 1003 1002
f 971 972 1004 1003
f 972 973 1005 1004
f 973 974 1006 1005
f 974 975 1007 1006
f 975 976 1008 1007
f 976 977 1009 1008
f 977 978 1010 1009
f 978 979 1011 1010
f 979 980 1012 1011
f 980 981 1013 1012
f 981 982 1014 1013
f 982 983 1015 1014
f 983 984 1016 1015
f 984 985 1017 1016
f 985 986 1018 1017
f 986 987 1019 1018
f 987 988 1020 1019
f 988 957 989 1020
f 989 990 1022 1021
f 990 991 1023 1022
f 991 992 1024 1023
f 992 993 1025 1024
f 993 994 1026 1025
f 994 995 1027 1026
f 995 996 1028 1027
f 996 997 1029 1028
f 997 998 1030 1029
f 998 999 1031 1030
f 999 1000 1032 1031
f 1000 1001 1033 1032
f 1001 1002 1034 1033
f 1002 1003 1035 1034
f 1003 1004 1036 1035
f 1004 1005 1037 1036
f 1005 1006 1038 1037
f 1006 1007 1039 1038
f 1007 1008 1040 1039
f 1008 1009 1041 1040
f 1009 1010 1042 1041
f 1010 1011 1043 1042
f 1011 1012 1044 1043
f 1012 1013 1045 1044
f 1013 1014 1046 1045
f 1014 1015 1047 1046
f 1015 1016 1048 1047
f 1016 1017 1049 1048
f 1017 1018 1050 1049
f 1018 1019 1051 1050
f 1019 1020 1052 1051
f 1020 989 1021 1052
f 1021 1022 1054 1053
f 1022 1023 1055 1054
f 1023 1024 1056 1055
f 1024 1025 1057 1056
f 1025 1026 1058 1057
f 1026 1027 1059 1058
f 1027 1028 1060 1059
f 1028 1029 1061 1060
f 1029 1030 1062 1061
f 1030 1031 1063 1062
f 1031 1032 1064 1063
f 1032 1033 1065 1064
f 1033 1034 1066 1065
f 1034 1035 1067 1066
f 1035 1036 1068 1067
f 1036 1037 1069 1068
f 1037 1038 1070 1069
f 1038 1039 1071 1070
f 1039 1040 1072 1071
f 1040 1041 1073 1072
f 1041 1042 1074 1073
f 1042 1043 1075 1074
f 1043 1044 1076 1075
f 1044 1045 1077 1076
f 1045 1046 1078 1077
f 1046 1047 1079 1078
f 1047 1048 1080 1079
f 1048 1049 1081 1080
f 1049 1050 1082 1081
f 1050 1051 1083 1082
f 1051 1052 1084 1083
f 1052 1021 1053 1084
f 1053 1054 1086 1085
f 1054 1055 1087 1086
f 1055 1056 1088 1087
f 1056 1057 1089 1088
f 1057 1058 1090 1089
f 1058 1059 1091 1090
f 1059 1060 1092 1091
f 1060 1061 1093 1092
f 1061 1062 1094 1093
f 1062 1063 1095 1094
f 1063 1064 1096 1095
f 1064 1065 1097 1096
f 1065 1066 1098 1097
f 1066 1067 1099 1098
f 1067 1068 1100 1099
f 1068 1069 1101 1100
f 1069 1070 1102 1101
f 1070 1071 1103 1102
f 1071 1072 1104 1103
f 1072 1073 1105 1104
f 1073 1074 1106 1105
f 1074 1075 1107 1106
f 1075 1076 1108 1107
f 1076 1077 1109 1108
f 1077 1078 1110 1109
f 1078 1079 1111 1110
f 1079 1080 1112 1111
f 1080 1081 1113 1112
f 1081 1082 1114 1113
f 1082 1083 1115 1114
f 1083 1084 1116 1115
f 1084 1053 1085 1116
f 1085 1086 1118 1117
f 1086 1087 1119 1118
f 1087 1088 1120 1119
f 1088 1089 1121 1120
f 1089 1090 1122 1121
f 1090 1091 1123 1122
f 1091 1092 1124 1123
f 1092 1093 1125 1124
f 1093 1094 1126 1125
f 1094 1095 1127 1126
f 1095 1096 1128 1127
f 1096 1097 1129 1128
f 1097 1098 1130 1129
f 1098 1099 1131 1130
f 1099 1100 1132 1131
f 1100 1101 1133 1132
f 1101 1102 1134 1133
f 1102 1103 1135 1134
f 1103 1104 1136 1135
f 1104 1105 1137 1136
f 1105 1106 1138 1137
f 1106 1107 1139 1138
f 1107 1108 1140 1139
f 1108 1109 1141 1140
f 1109 1110 1142 1141
f 1110 1111 1143 1142
f 1111 1112 1144 1143
f 1112 1113 1145 1144
f 1113 1114 1146 1145
f 1114 1115 1147 1146
f 1115 1116 1148 1147
f 1116 1085 1117 1148
f 1117 1118 1150 1149
f 1118 1119 1151 1150
f 1119 1120 1152 1151
f 1120 1121 1153 1152
f 1121 1122 1154 1153
f 1122 1123 1155 1154
f 1123 1124 1156 1155
f 1124 1125 1157 1156
f 1125 1126 1158 1157
f 1126 1127 1159 1158
f 1127 1128 1160 1159
f 1128 1129 1161 1160
f 1129 1130 1162 1161
f 1130 1131 1163 1162
f 1131 1132 1164 1163
f 1132 1133 1165 1164
f 1133 1134 1166 1165
f 1134 1135 1167 1166
f 1135 1136 1168 1167
f 1136 1137 1169 1168
f 1137 1138 1170 1169
f 1138 1139 1171 1170
f 1139 1140 1172 1171
f 1140 1141 1173 1172
f 1141 1142 1174 1173
f 1142 1143 1175 1174
f 1143 1144 1176 1175
f 1144 1145 1177 1176
f 1145 1146 1178 1177
f 1146 1147 1179 1178
f 1147 1148 1180 1179
f 1148 1117 1149 1180
f 1149 1150 1182 1181
f 1150 1151 1183 1182
f 1151 1152 1184 1183
f 1152 1153 1185 1184
f 1153 1154 1186 1185
f 1154 1155 1187 1186
f 1155 1156 1188 1187
f 1156 1157 1189 1188
f 1157 1158 1190 1189
f 1158 1159 1191 1190
f 1159 1160 1192 1191
f 1160 1161 1193 1192
f 1161 1162 1194 1193
f 1162 1163 1195 1194
f 1163 1164 1196 1195
f 1164 1165 1197 1196
f 1165 1166 1198 1197
f 1166 1167 1199 1198
f 1167 1168 1200 1199
f 1168 1169 1201 1200
f 1169 1170 1202 1201
f 1170 1171 1203 1202
f 1171 1172 1204 1203
f 1172 1173 1205 1204
f 1173 1174 1206 1205
f 1174 1175 1207 1206
f 1175 1176 1208 1207
f 1176 1177 1209 1208
f 1177 1178 1210 1209
f 1178 1179 1211 1210
f 1179 1180 1212 1211
f 1180 1149 1181 1212
f 1181 1182 1214 1213
f 1182 1183 1215 1214
f 1183 1184 1216 1215
f 1184 1185 1217 1216
f 1185 1186 1218 1217
f 1186 1187 1219 1218
f 1187 1188 1220 1219
f 1188 1189 1221 1220
f 1189 1190 1222 1221
f 1190 1191 1223 1222
f 1191 1192 1224 1223
f 1192 1193 1225 1224
f 1193 1194 1226 1225
f 1194 1195 1227 1226
f 1195 1196 1228 1227
f 1196 1197 1229 1228
f 1197 1198 1230 1229
f 1198 1199 1231 1230
f 1199 1200 1232 1231
f 1200 1201 1233 1232
f 1201 1202 1234 1233
f 1202 1203 1235 1234
f 1203 1204 1236 1235
f 1204 1205 1237 1236
f 1205 1206 1238 1237
f 1206 1207 1239 1238
f 1207 1208 1240 1239
f 1208 1209 1241 1240
f 1209 1210 1242 1241
f 1210 1211 1243 1242
f 1211 1212 1244 1243
f 1212 1181 1213 1244
f 1245 1246 1274 1273
f 1246 1247 1275 1274
f 1247 1248 1276 1275
f 1248 1249 1277 1276
f 1249 1250 1278 1277
f 1250 1251 1279 1278
f 1251 1252 1280 1279
f 1252 1253 1281 1280
f 1253 1254 1282 1281
f 1254 1255 1283 1282
f 1255 1256 1284 1283
f 1256 1257 1285 1284
f 1257 1258 1286 1285
f 1258 1259 1287 1286
f 1259 1260 1288 1287
f 1260 1261 1289 1288
f 1261 1262 1290 1289
f 1262 1263 1291 1290
f 1263 1264 1292 1291
f 1264 1265 1293 1292
f 1265 1266 1294 1293
f 1266 1267 1295 1294
f 1267 1268 1296 1295
f 1268 1269 1297 1296
f 1269 1270 1298 1297
f 1270 1271 1299 1298
f 1271 1272 1300 1299
f 1272 1245 1273 1300
f 1273 1274 1302 1301
f 1274 1275 1303 1302
f 1275 1276 1304 1303
f 1276 1277 1305 1304
f 1277 1278 1306 1305
f 1278 1279 1307 1306
f 1279 1280 1308 1307
f 1280 1281 1309 1308
f 1281 1282 1310 1309
f 1282 1283 1311 1310
f 1283 1284 1312 1311
f 1284 1285 1313 1312
f 1285 1286 1314 1313
f 1286 1287 1315 1314
f 1287 1288 1316 1315
f 1288 1289 1317 1316
f 1289 1290 1318 1317
f 1290 1291 1319 1318
f 1291 1292 1320 1319
f 1292 1293 1321 1320
f 1293 1294 1322 1321
f 1294 1295 1323 1322
f 1295 1296 1324 1323
f 1296 1297 1325 1324
f 1297 1298 1326 1325
f 1298 1299 1327 1326
f 1299 1300 1328 1327
f 1300 1273 1301 1328
f 1301 1302 1330 1329
f 1302 1303 1331 1330
f 1303 1304 1332 1331
f 1304 1305 1333 1332
f 1305 1306 1334 1333
f 1306 1307 1335 1334
f 1307 1308 1336 1335
f 1308 1309 1337 1336
f 1309 1310 1338 1337
f 1310 1311 1339 1338
f 1311 1312 1340 1339
f 1312 1313 1341 1340
f 1313 1314 1342 1341
f 1314 1315 1343 1342
f 1315 1316 1344 1343
f 1316 1317 1345 1344
f 1317 1318 1346 1345
f 1318 1319 1347 1346
f 1319 1320 1348 1347
f 1320 1321 1349 1348
f 1321 1322 1350 1349
f 1322 1323 1351 1350
f 1323 1324 1352 1351
f 1324 1325 1353 1352
f 1325 1326 1354 1353
f 1326 1327 1355 1354
f 1327 1328 1356 1355
f 1328 1301 1329 1356
f 1329 1330 1358 1357
f 1330 1331 1359 1358
f 1331 1332 1360 1359
f 1332 1333 1361 1360
f 1333 1334 1362 1361
f 1334 1335 1363 1362
f 1335 1336 1364 1363
f 1336 1337 1365 1364
f 1337 1338 1366 1365
f 1338 1339 1367 1366
f 1339 1340 1368 1367
f 1340 1341 1369 1368
f 1341 1342 1370 1369
f 1342 1343 1371 1370
f 1343 1344 1372 1371
f 1344 1345 1373 1372
f 1345 1346 1374 1373
f 1346 1347 1375 1374
f 1347 1348 1376 1375
f 1348 1349 1377 1376
f 1349 1350 1378 1377
f 1350 1351 1379 1378
f 1351 1352 1380 1379
f 1352 1353 1381 1380
f 1353 1354 1382 1381
f 1354 1355 1383 1382
f 1355 1356 1384 1383
f 1356 1329 1357 1384
f 1385 1246 1245
f 1386 1357 1358
f 1385 1247 1246
f 1386 1358 1359
f 1385 1248 1247
f 1386 1359 1360
f 1385 1249 1248
f 1386 1360 1361
f 1385 1250 1249
f 1386 1361 1362
f 1385 1251 1250
f 1386 1362 1363
f 1385 1252 1251
f 1386 1363 1364
f 1385 1253 1252
f 1386 1364 1365
f 1385 1254 1253
f 1386 1365 1366
f 1385 1255 1254
f 1386 1366 1367
f 1385 1256 1255
f 1386 1367 1368
f 1385 1257 1256
f 1386 1368 1369
f 1385 1258 1257
f 1386 1369 1370
f 1385 1259 1258
f 1386 1370 1371
f 1385 1260 1259
f 1386 1371 1372
f 1385 1261 1260
f 1386 1372 1373
f 1385 1262 1261
f 1386 1373 1374
f 1385 1263 1262
f 1386 1374 1375
f 1385 1264 1263
f 1386 1375 1376
f 1385 1265 1264
f 1386 1376 1377
f 1385 1266 1265
f 1386 1377 1378
f 1385 1267 1266
f 1386 1378 1379
f 1385 1268 1267
f 1386 1379 1380
f 1385 1269 1268
f 1386 1380 1381
f 1385 1270 1269
f 1386 1381 1382
f 1385 1271 1270
f 1386 1382 1383
f 1385 1272 1271
f 1386 1383 1384
f 1385 1245 1272
f 1386 1384 1357
g black_beak
usemtl black_beak
f 1387 1388 1408 1407
f 1388 1389 1409 1408
f 1389 1390 1410 1409
f 1390 1391 1411 1410
f 1391 1392 1412 1411
f 1392 1393 1413 1412
f 1393 1394 1414 1413
f 1394 1395 1415 1414
f 1395 1396 1416 1415
f 1396 1397 1417 1416
f 1397 1398 1418 1417
f 1398 1399 1419 1418
f 1399 1400 1420 1419
f 1400 1401 1421 1420
f 1401 1402 1422 1421
f 1402 1403 1423 1422
f 1403 1404 1424 1423
f 1404 1405 1425 1424
f 1405 1406 1426 1425
f 1406 1387 1407 1426
f 1407 1408 1428 1427
f 1408 1409 1429 1428
f 1409 1410 1430 1429
f 1410 1411 1431 1430
f 1411 1412 1432 1431
f 1412 1413 1433 1432
f 1413 1414 1434 1433
f 1414 1415 1435 1434
f 1415 1416 1436 1435
f 1416 1417 1437 1436
f 1417 1418 1438 1437
f 1418 1419 1439 1438
f 1419 1420 1440 1439
f 1420 1421 1441 1440
f 1421 1422 1442 1441
f 1422 1423 1443 1442
f 1423 1424 1444 1443
f 1424 1425 1445 1444
f 1425 1426 1446 1445
f 1426 1407 1427 1446
f 1427 1428 1448 1447
f 1428 1429 1449 1448
f 1429 1430 1450 1449
f 1430 1431 1451 1450
f 1431 1432 1452 1451
f 1432 1433 1453 1452
f 1433 1434 1454 1453
f 1434 1435 1455 1454
f 1435 1436 1456 1455
f 1436 1437 1457 1456
f 1437 1438 1458 1457
f 1438 1439 1459 1458
f 1439 1440 1460 1459
f 1440 1441 1461 1460
f 1441 1442 1462 1461
f 1442 1443 1463 1462
f 1443 1444 1464 1463
f 1444 1445 1465 1464
f 1445 1446 1466 1465
f 1446 1427 1447 1466
f 1447 1448 1468 1467
f 1448 1449 1469 1468
f 1449 1450 1470 1469
f 1450 1451 1471 1470
f 1451 1452 1472 1471
f 1452 1453 1473 1472
f 1453 1454 1474 1473
f 1454 1455 1475 1474
f 1455 1456 1476 1475
f 1456 1457 1477 1476
f 1457 1458 1478 1477
f 1458 1459 1479 1478
f 1459 1460 1480 1479
f 1460 1461 1481 1480
f 1461 1462 1482 1481
f 1462 1463 1483 1482
f 1463 1464 1484 1483
f 1464 1465 1485 1484
f 1465 1466 1486 1485
f 1466 1447 1467 1486
f 1467 1468 1488 1487
f 1468 1469 1489 1488
f 1469 1470 1490 1489
f 1470 1471 1491 1490
f 1471 1472 1492 1491
f 1472 1473 1493 1492
f 1473 1474 1494 1493
f 1474 1475 1495 1494
f 1475 1476 1496 1495
f 1476 1477 1497 1496
f 1477 1478 1498 1497
f 1478 1479 1499 1498
f 1479 1480 1500 1499
f 1480 1481 1501 1500
f 1481 1482 1502 1501
f 1482 1483 1503 1502
f 1483 1484 1504 1503
f 1484 1485 1505 1504
f 1485 1486 1506 1505
f 1486 1467 1487 1506
f 1507 1387 1388
f 1508 1488 1487
f 1507 1388 1389
f 1508 1489 1488
f 1507 1389 1390
f 1508 1490 1489
f 1507 1390 1391
f 1508 1491 1490
f 1507 1391 1392
f 1508 1492 1491
f 1507 1392 1393
f 1508 1493 1492
f 1507 1393 1394
f 1508 1494 1493
f 1507 1394 1395
f 1508 1495 1494
f 1507 1395 1396
f 1508 1496 1495
f 1507 1396 1397
f 1508 1497 1496
f 1507 1397 1398
f 1508 1498 1497
f 1507 1398 1399
f 1508 1499 1498
f 1507 1399 1400
f 1508 1500 1499
f 1507 1400 1401
f 1508 1501 1500
f 1507 1401 1402
f 1508 1502 1501
f 1507 1402 1403
f 1508 1503 1502
f 1507 1403 1404
f 1508 1504 1503
f 1507 1404 1405
f 1508 1505 1504
f 1507 1405 1406
f 1508 1506 1505
f 1507 1406 1387
f 1508 1487 1506
g black_eye
usemtl black_eye
f 1509 1510 1522 1521
f 1510 1511 1523 1522
f 1511 1512 1524 1523
f 1512 1513 1525 1524
f 1513 1514 1526 1525
f 1514 1515 1527 1526
f 1515 1516 1528 1527
f 1516 1517 1529 1528
f 1517 1518 1530 1529
f 1518 1519 1531 1530
f 1519 1520 1532 1531
f 1520 1509 1521 1532
f 1521 1522 1534 1533
f 1522 1523 1535 1534
f 1523 1524 1536 1535
f 1524 1525 1537 1536
f 1525 1526 1538 1537
f 1526 1527 1539 1538
f 1527 1528 1540 1539
f 1528 1529 1541 1540
f 1529 1530 1542 1541
f 1530 1531 1543 1542
f 1531 1532 1544 1543
f 1532 1521 1533 1544
f 1533 1534 1546 1545
f 1534 1535 1547 1546
f 1535 1536 1548 1547
f 1536 1537 1549 1548
f 1537 1538 1550 1549
f 1538 1539 1551 1550
f 1539 1540 1552 1551
f 1540 1541 1553 1552
f 1541 1542 1554 1553
f 1542 1543 1555 1554
f 1543 1544 1556 1555
f 1544 1533 1545 1556
f 1545 1546 1558 1557
f 1546 1547 1559 1558
f 1547 1548 1560 1559
f 1548 1549 1561 1560
f 1549 1550 1562 1561
f 1550 1551 1563 1562
f 1551 1552 1564 1563
f 1552 1553 1565 1564
f 1553 1554 1566 1565
f 1554 1555 1567 1566
f 1555 1556 1568 1567
f 1556 1545 1557 1568
f 1557 1558 1570 1569
f 1558 1559 1571 1570
f 1559 1560 1572 1571
f 1560 1561 1573 1572
f 1561 1562 1574 1573
f 1562 1563 1575 1574
f 1563 1564 1576 1575
f 1564 1565 1577 1576
f 1565 1566 1578 1577
f 1566 1567 1579 1578
f 1567 1568 1580 1579
f 1568 1557 1569 1580
f 1569 1570 1582 1581
f 1570 1571 1583 1582
f 1571 1572 1584 1583
f 1572 1573 1585 1584
f 1573 1574 1586 1585
f 1574 1575 1587 1586
f 1575 1576 1588 1587
f 1576 1577 1589 1588
f 1577 1578 1590 1589
f 1578 1579 1591 1590
f 1579 1580 1592 1591
f 1580 1569 1581 1592
f 1581 1582 1594 1593
f 1582 1583 1595 1594
f 1583 1584 1596 1595
f 1584 1585 1597 1596
f 1585 1586 1598 1597
f 1586 1587 1599 1598
f 1587 1588 1600 1599
f 1588 1589 1601 1600
f 1589 1590 1602 1601
f 1590 1591 1603 1602
f 1591 1592 1604 1603
f 1592 1581 1593 1604
f 1593 1594 1606 1605
f 1594 1595 1607 1606
f 1595 1596 1608 1607
f 1596 1597 1609 1608
f 1597 1598 1610 1609
f 1598 1599 1611 1610
f 1599 1600 1612 1611
f 1600 1601 1613 1612
f 1601 1602 1614 1613
f 1602 1603 1615 1614
f 1603 1604 1616 1615
f 1604 1593 1605 1616
f 1617 1618 1630 1629
f 1618 1619 1631 1630
f 1619 1620 1632 1631
f 1620 1621 1633 1632
f 1621 1622 1634 1633
f 1622 1623 1635 1634
f 1623 1624 1636 1635
f 1624 1625 1637 1636
f 1625 1626 1638 1637
f 1626 1627 1639 1638
f 1627 1628 1640 1639
f 1628 1617 1629 1640
f 1629 1630 1642 1641
f 1630 1631 1643 1642
f 1631 1632 1644 1643
f 1632 1633 1645 1644
f 1633 1634 1646 1645
f 1634 1635 1647 1646
f 1635 1636 1648 1647
f 1636 1637 1649 1648
f 1637 1638 1650 1649
f 1638 1639 1651 1650
f 1639 1640 1652 1651
f 1640 1629 1641 1652
f 1641 1642 1654 1653
f 1642 1643 1655 1654
f 1643 1644 1656 1655
f 1644 1645 1657 1656
f 1645 1646 1658 1657
f 1646 1647 1659 1658
f 1647 1648 1660 1659
f 1648 1649 1661 1660
f 1649 1650 1662 1661
f 1650 1651 1663 1662
f 1651 1652 1664 1663
f 1652 1641 1653 1664
f 1653 1654 1666 1665
f 1654 1655 1667 1666
f 1655 1656 1668 1667
f 1656 1657 1669 1668
f 1657 1658 1670 1669
f 1658 1659 1671 1670
f 1659 1660 1672 1671
f 1660 1661 1673 1672
f 1661 1662 1674 1673
f 1662 1663 1675 1674
f 1663 1664 1676 1675
f 1664 1653 1665 1676
f 1665 1666 1678 1677
f 1666 1667 1679 1678
f 1667 1668 1680 1679
f 1668 1669 1681 1680
f 1669 1670 1682 1681
f 1670 1671 1683 1682
f 1671 1672 1684 1683
f 1672 1673 1685 1684
f 1673 1674 1686 1685
f 1674 1675 1687 1686
f 1675 1676 1688 1687
f 1676 1665 1677 1688
f 1677 1678 1690 1689
f 1678 1679 1691 1690
f 1679 1680 1692 1691
f 1680 1681 1693 1692
f 1681 1682 1694 1693
f 1682 1683 1695 1694
f 1683 1684 1696 1695
f 1684 1685 1697 1696
f 1685 1686 1698 1697
f 1686 1687 1699 1698
f 1687 1688 1700 1699
f 1688 1677 1689 1700
f 1689 1690 1702 1701
f 1690 1691 1703 1702
f 1691 1692 1704 1703
f 1692 1693 1705 1704
f 1693 1694 1706 1705
f 1694 1695 1707 1706
f 1695 1696 1708 1707
f 1696 1697 1709 1708
f 1697 1698 1710 1709
f 1698 1699 1711 1710
f 1699 1700 1712 1711
f 1700 1689 1701 1712
f 1701 1702 1714 1713
f 1702 1703 1715 1714
f 1703 1704 1716 1715
f 1704 1705 1717 1716
f 1705 1706 1718 1717
f 1706 1707 1719 1718
f 1707 1708 1720 1719
f 1708 1709 1721 1720
f 1709 1710 1722 1721
f 1710 1711 1723 1722
f 1711 1712 1724 1723
f 1712 1701 1713 1724
g gold_collar
usemtl gold_collar
f 1725 1726 1762 1761
f 1726 1727 1763 1762
f 1727 1728 1764 1763
f 1728 1729 1765 1764
f 1729 1730 1766 1765
f 1730 1731 1767 1766
f 1731 1732 1768 1767
f 1732 1733 1769 1768
f 1733 1734 1770 1769
f 1734 1735 1771 1770
f 1735 1736 1772 1771
f 1736 1737 1773 1772
f 1737 1738 1774 1773
f 1738 1739 1775 1774
f 1739 1740 1776 1775
f 1740 1741 1777 1776
f 1741 1742 1778 1777
f 1742 1743 1779 1778
f 1743 1744 1780 1779
f 1744 1745 1781 1780
f 1745 1746 1782 1781
f 1746 1747 1783 1782
f 1747 1748 1784 1783
f 1748 1749 1785 1784
f 1749 1750 1786 1785
f 1750 1751 1787 1786
f 1751 1752 1788 1787
f 1752 1753 1789 1788
f 1753 1754 1790 1789
f 1754 1755 1791 1790
f 1755 1756 1792 1791
f 1756 1757 1793 1792
f 1757 1758 1794 1793
f 1758 1759 1795 1794
f 1759 1760 1796 1795
f 1760 1725 1761 1796
f 1797 1726 1725
f 1798 1761 1762
f 1797 1727 1726
f 1798 1762 1763
f 1797 1728 1727
f 1798 1763 1764
f 1797 1729 1728
f 1798 1764 1765
f 1797 1730 1729
f 1798 1765 1766
f 1797 1731 1730
f 1798 1766 1767
f 1797 1732 1731
f 1798 1767 1768
f 1797 1733 1732
f 1798 1768 1769
f 1797 1734 1733
f 1798 1769 1770
f 1797 1735 1734
f 1798 1770 1771
f 1797 1736 1735
f 1798 1771 1772
f 1797 1737 1736
f 1798 1772 1773
f 1797 1738 1737
f 1798 1773 1774
f 1797 1739 1738
f 1798 1774 1775
f 1797 1740 1739
f 1798 1775 1776
f 1797 1741 1740
f 1798 1776 1777
f 1797 1742 1741
f 1798 1777 1778
f 1797 1743 1742
f 1798 1778 1779
f 1797 1744 1743
f 1798 1779 1780
f 1797 1745 1744
f 1798 1780 1781
f 1797 1746 1745
f 1798 1781 1782
f 1797 1747 1746
f 1798 1782 1783
f 1797 1748 1747
f 1798 1783 1784
f 1797 1749 1748
f 1798 1784 1785
f 1797 1750 1749
f 1798 1785 1786
f 1797 1751 1750
f 1798 1786 1787
f 1797 1752 1751
f 1798 1787 1788
f 1797 1753 1752
f 1798 1788 1789
f 1797 1754 1753
f 1798 1789 1790
f 1797 1755 1754
f 1798 1790 1791
f 1797 1756 1755
f 1798 1791 1792
f 1797 1757 1756
f 1798 1792 1793
f 1797 1758 1757
f 1798 1793 1794
f 1797 1759 1758
f 1798 1794 1795
f 1797 1760 1759
f 1798 1795 1796
f 1797 1725 1760
f 1798 1796 1761
g red_collar
usemtl red_collar
f 1799 1800 1836 1835
f 1800 1801 1837 1836
f 1801 1802 1838 1837
f 1802 1803 1839 1838
f 1803 1804 1840 1839
f 1804 1805 1841 1840
f 1805 1806 1842 1841
f 1806 1807 1843 1842
f 1807 1808 1844 1843
f 1808 1809 1845 1844
f 1809 1810 1846 1845
f 1810 1811 1847 1846
f 1811 1812 1848 1847
f 1812 1813 1849 1848
f 1813 1814 1850 1849
f 1814 1815 1851 1850
f 1815 1816 1852 1851
f 1816 1817 1853 1852
f 1817 1818 1854 1853
f 1818 1819 1855 1854
f 1819 1820 1856 1855
f 1820 1821 1857 1856
f 1821 1822 1858 1857
f 1822 1823 1859 1858
f 1823 1824 1860 1859
f 1824 1825 1861 1860
f 1825 1826 1862 1861
f 1826 1827 1863 1862
f 1827 1828 1864 1863
f 1828 1829 1865 1864
f 1829 1830 1866 1865
f 1830 1831 1867 1866
f 1831 1832 1868 1867
f 1832 1833 1869 1868
f 1833 1834 1870 1869
f 1834 1799 1835 1870
f 1871 1800 1799
f 1872 1835 1836
f 1871 1801 1800
f 1872 1836 1837
f 1871 1802 1801
f 1872 1837 1838
f 1871 1803 1802
f 1872 1838 1839
f 1871 1804 1803
f 1872 1839 1840
f 1871 1805 1804
f 1872 1840 1841
f 1871 1806 1805
f 1872 1841 1842
f 1871 1807 1806
f 1872 1842 1843
f 1871 1808 1807
f 1872 1843 1844
f 1871 1809 1808
f 1872 1844 1845
f 1871 1810 1809
f 1872 1845 1846
f 1871 1811 1810
f 1872 1846 1847
f 1871 1812 1811
f 1872 1847 1848
f 1871 1813 1812
f 1872 1848 1849
f 1871 1814 1813
f 1872 1849 1850
f 1871 1815 1814
f 1872 1850 1851
f 1871 1816 1815
f 1872 1851 1852
f 1871 1817 1816
f 1872 1852 1853
f 1871 1818 1817
f 1872 1853 1854
f 1871 1819 1818
f 1872 1854 1855
f 1871 1820 1819
f 1872 1855 1856
f 1871 1821 1820
f 1872 1856 1857
f 1871 1822 1821
f 1872 1857 1858
f 1871 1823 1822
f 1872 1858 1859
f 1871 1824 1823
f 1872 1859 1860
f 1871 1825 1824
f 1872 1860 1861
f 1871 1826 1825
f 1872 1861 1862
f 1871 1827 1826
f 1872 1862 1863
f 1871 1828 1827
f 1872 1863 1864
f 1871 1829 1828
f 1872 1864 1865
f 1871 1830 1829
f 1872 1865 1866
f 1871 1831 1830
f 1872 1866 1867
f 1871 1832 1831
f 1872 1867 1868
f 1871 1833 1832
f 1872 1868 1869
f 1871 1834 1833
f 1872 1869 1870
f 1871 1799 1834
f 1872 1870 1835
g gold_collar
usemtl gold_collar
f 1873 1874 1875 1876
f 1877 1880 1879 1878
f 1873 1877 1878 1874
f 1874 1878 1879 1875
f 1875 1879 1880 1876
f 1876 1880 1877 1873
f 1881 1882 1883 1884
f 1885 1888 1887 1886
f 1881 1885 1886 1882
f 1882 1886 1887 1883
f 1883 1887 1888 1884
f 1884 1888 1885 1881
